<svg xmlns="http://www.w3.org/2000/svg" width="187.5" viewBox="0 0 187.5 187.5" height="187.5" version="1.0"><path fill="#0A1128" d="M 169.421875 80.375 L 17.527344 80.375 C 10.128906 80.375 4.125 86.375 4.125 93.777344 C 4.125 101.183594 10.128906 107.183594 17.527344 107.183594 L 169.421875 107.183594 C 176.820312 107.183594 182.824219 101.183594 182.824219 93.777344 C 182.824219 86.375 176.820312 80.375 169.421875 80.375 Z M 169.421875 133.988281 L 17.527344 133.988281 C 10.128906 133.988281 4.125 139.984375 4.125 147.390625 C 4.125 154.792969 10.128906 160.792969 17.527344 160.792969 L 169.421875 160.792969 C 176.820312 160.792969 182.824219 154.792969 182.824219 147.390625 C 182.824219 139.984375 176.820312 133.988281 169.421875 133.988281 Z M 17.53125 53.570312 L 169.425781 53.570312 C 176.824219 53.570312 182.828125 47.574219 182.828125 40.167969 C 182.828125 32.765625 176.824219 26.765625 169.425781 26.765625 L 17.53125 26.765625 C 10.132812 26.765625 4.128906 32.765625 4.128906 40.167969 C 4.128906 47.574219 10.132812 53.570312 17.53125 53.570312 Z M 17.53125 53.570312" fill-rule="evenodd"/></svg>