<svg xmlns="http://www.w3.org/2000/svg" width="187.5" viewBox="0 0 187.5 187.5" height="187.5" version="1.0"><path fill="#034078" d="M 93.910156 175.777344 C 88.09375 175.777344 83.355469 171.039062 83.355469 165.222656 C 83.355469 159.402344 88.09375 154.664062 93.910156 154.664062 C 99.726562 154.664062 104.46875 159.402344 104.46875 165.222656 C 104.46875 171.039062 99.726562 175.777344 93.910156 175.777344 Z M 93.910156 160.445312 C 91.292969 160.445312 89.132812 162.601562 89.132812 165.222656 C 89.132812 167.839844 91.253906 170 93.910156 170 C 96.53125 170 98.6875 167.878906 98.6875 165.222656 C 98.6875 162.601562 96.53125 160.445312 93.910156 160.445312 Z M 93.910156 160.445312"/><path fill="#034078" d="M 132.628906 151.003906 L 55.269531 151.003906 C 53.691406 151.003906 52.378906 149.695312 52.378906 148.117188 L 52.378906 30.421875 C 52.378906 28.839844 53.652344 27.53125 55.269531 27.53125 L 132.667969 27.261719 C 133.4375 27.261719 134.171875 27.570312 134.710938 28.109375 C 135.25 28.648438 135.558594 29.382812 135.558594 30.152344 L 135.519531 148.117188 C 135.519531 149.734375 134.207031 151.003906 132.628906 151.003906 Z M 58.160156 145.226562 L 129.738281 145.226562 L 129.777344 33.039062 L 58.160156 33.3125 Z M 58.160156 145.226562"/><path fill="#034078" d="M 132.398438 185.449219 L 55.425781 185.449219 C 48.449219 185.449219 42.789062 178.667969 42.789062 170.382812 L 42.789062 17.515625 C 42.789062 9.195312 48.449219 2.414062 55.425781 2.414062 L 132.398438 2.414062 C 139.371094 2.414062 145.074219 9.195312 145.074219 17.515625 L 145.074219 170.34375 C 145.074219 178.667969 139.410156 185.449219 132.398438 185.449219 Z M 55.425781 8.230469 C 51.6875 8.230469 48.566406 12.507812 48.566406 17.554688 L 48.566406 170.382812 C 48.566406 175.429688 51.726562 179.667969 55.425781 179.667969 L 132.398438 179.667969 C 136.136719 179.667969 139.292969 175.390625 139.292969 170.382812 L 139.292969 17.515625 C 139.292969 12.46875 136.136719 8.191406 132.398438 8.191406 L 55.425781 8.191406 Z M 93.910156 176.007812 C 88.09375 176.007812 83.355469 171.269531 83.355469 165.453125 C 83.355469 159.636719 88.09375 154.898438 93.910156 154.898438 C 99.726562 154.898438 104.46875 159.636719 104.46875 165.453125 C 104.46875 168.265625 103.386719 170.882812 101.386719 172.886719 C 99.382812 174.890625 96.722656 176.007812 93.910156 176.007812 Z M 93.910156 160.675781 C 91.292969 160.675781 89.132812 162.832031 89.132812 165.453125 C 89.132812 168.074219 91.253906 170.230469 93.910156 170.230469 C 95.183594 170.230469 96.375 169.730469 97.261719 168.84375 C 98.148438 167.957031 98.648438 166.761719 98.648438 165.492188 C 98.6875 162.832031 96.53125 160.675781 93.910156 160.675781 Z M 132.628906 151.238281 L 55.269531 151.238281 C 53.691406 151.238281 52.378906 149.925781 52.378906 148.347656 L 52.378906 30.652344 C 52.378906 29.074219 53.652344 27.761719 55.269531 27.761719 L 132.667969 27.492188 C 133.4375 27.492188 134.171875 27.800781 134.710938 28.339844 C 135.25 28.878906 135.558594 29.613281 135.558594 30.382812 L 135.519531 148.347656 C 135.519531 149.964844 134.207031 151.238281 132.628906 151.238281 Z M 58.160156 145.457031 L 129.738281 145.457031 L 129.777344 33.273438 L 58.160156 33.503906 Z M 100.34375 23.679688 L 87.476562 23.679688 C 84.972656 23.679688 82.929688 21.445312 82.929688 18.710938 C 82.929688 15.972656 84.972656 13.738281 87.476562 13.738281 L 100.34375 13.738281 C 102.886719 13.738281 104.929688 15.972656 104.929688 18.710938 C 104.929688 21.445312 102.886719 23.679688 100.34375 23.679688 Z M 100.34375 23.679688"/><path fill="#034078" d="M 100.34375 23.449219 L 87.476562 23.449219 C 84.972656 23.449219 82.929688 21.214844 82.929688 18.476562 C 82.929688 15.742188 84.972656 13.507812 87.476562 13.507812 L 100.34375 13.507812 C 102.886719 13.507812 104.929688 15.742188 104.929688 18.476562 C 104.929688 21.214844 102.886719 23.449219 100.34375 23.449219 Z M 100.34375 23.449219"/><path fill="#034078" d="M 93.910156 175.777344 C 88.09375 175.777344 83.355469 171.039062 83.355469 165.222656 C 83.355469 159.402344 88.09375 154.664062 93.910156 154.664062 C 99.726562 154.664062 104.46875 159.402344 104.46875 165.222656 C 104.46875 171.039062 99.726562 175.777344 93.910156 175.777344 Z M 93.910156 160.445312 C 91.292969 160.445312 89.132812 162.601562 89.132812 165.222656 C 89.132812 167.839844 91.253906 170 93.910156 170 C 96.53125 170 98.6875 167.878906 98.6875 165.222656 C 98.6875 162.601562 96.53125 160.445312 93.910156 160.445312 Z M 93.910156 160.445312"/><path fill="#034078" d="M 132.398438 185.175781 L 55.425781 185.175781 C 48.449219 185.175781 42.789062 178.398438 42.789062 170.113281 L 42.789062 17.285156 C 42.789062 8.960938 48.449219 2.183594 55.425781 2.183594 L 132.398438 2.183594 C 139.371094 2.183594 145.074219 8.960938 145.074219 17.285156 L 145.074219 170.113281 C 145.074219 178.4375 139.410156 185.175781 132.398438 185.175781 Z M 55.425781 7.960938 C 51.6875 7.960938 48.566406 12.238281 48.566406 17.285156 L 48.566406 170.113281 C 48.566406 175.160156 51.726562 179.398438 55.425781 179.398438 L 132.398438 179.398438 C 136.136719 179.398438 139.292969 175.121094 139.292969 170.113281 L 139.292969 17.285156 C 139.292969 12.238281 136.136719 7.960938 132.398438 7.960938 Z M 55.425781 7.960938"/><path fill="#034078" d="M 132.628906 151.003906 L 55.269531 151.003906 C 53.691406 151.003906 52.378906 149.695312 52.378906 148.117188 L 52.378906 30.421875 C 52.378906 28.839844 53.652344 27.53125 55.269531 27.53125 L 132.667969 27.261719 C 133.4375 27.261719 134.171875 27.570312 134.710938 28.109375 C 135.25 28.648438 135.558594 29.382812 135.558594 30.152344 L 135.519531 148.117188 C 135.519531 149.734375 134.207031 151.003906 132.628906 151.003906 Z M 58.160156 145.226562 L 129.738281 145.226562 L 129.777344 33.039062 L 58.160156 33.3125 Z M 58.160156 145.226562"/></svg>