<svg xmlns="http://www.w3.org/2000/svg" width="375" viewBox="0 0 375 375" height="375" version="1.0"><path fill="#1C1C1C" d="M 39.210938 203.363281 L 179.203125 343.316406 C 183.8125 347.921875 191.28125 347.921875 195.890625 343.316406 L 335.882812 203.363281 C 374.058594 165.199219 374.058594 103.230469 335.882812 65.066406 C 297.707031 26.902344 235.71875 26.902344 197.546875 65.066406 C 197.546875 65.066406 187.542969 75.066406 187.542969 75.066406 C 187.542969 75.066406 177.550781 65.066406 177.550781 65.066406 C 139.371094 26.902344 77.386719 26.902344 39.210938 65.066406 C 1.035156 103.230469 1.035156 165.199219 39.210938 203.363281 Z M 39.210938 203.363281" fill-rule="evenodd"/><path fill="#034078" d="M 145.566406 276.328125 L 187.546875 318.296875 L 202 303.847656 C 194.988281 300.480469 187.941406 295.734375 180.375 289.90625 C 168.667969 280.964844 157.082031 276.296875 145.566406 276.328125 Z M 145.566406 276.328125" fill-rule="evenodd"/><path fill="#034078" d="M 180.382812 219.121094 C 168.785156 210.261719 157.378906 205.472656 145.9375 205.445312 C 134.628906 205.414062 123.511719 210.070312 112.367188 218.933594 L 111.679688 219.445312 C 106.875 222.824219 102.042969 225.660156 97.1875 227.964844 L 125.191406 255.957031 C 148.121094 248.417969 171.34375 253.320312 194.710938 271.171875 L 194.75 271.199219 C 203.949219 278.285156 211.671875 283.871094 220.363281 285.492188 L 295.523438 210.347656 C 289.265625 212.324219 283.011719 215.40625 276.742188 219.523438 C 244.957031 241.660156 212.882812 244.128906 180.382812 219.121094 Z M 180.382812 219.121094" fill-rule="evenodd"/><path fill="#1282A2" d="M 180.382812 148.332031 C 168.785156 139.46875 157.378906 134.683594 145.9375 134.652344 C 134.628906 134.621094 123.511719 139.277344 112.367188 148.140625 L 111.675781 148.65625 C 87.960938 165.328125 63.726562 169.28125 38.976562 160.542969 C 42.582031 170.074219 48.222656 179.011719 55.898438 186.683594 L 79.019531 209.796875 C 85.363281 207.855469 91.648438 204.664062 97.902344 200.292969 C 113.789062 187.726562 129.890625 181.8125 146 181.855469 C 162.085938 181.898438 178.398438 187.917969 194.710938 200.378906 L 194.75 200.40625 C 217.894531 218.234375 240.738281 215.894531 263.375 200.082031 L 263.640625 199.898438 C 282.761719 187.308594 301.9375 182.285156 321.066406 184.742188 C 331.667969 173.363281 338.023438 159.449219 340.136719 145.03125 C 319.003906 133.234375 297.875 134.859375 276.742188 148.730469 C 244.957031 170.867188 212.882812 173.335938 180.382812 148.332031 Z M 180.382812 148.332031" fill-rule="evenodd"/><path fill="#FFF" d="M 339.246094 118.484375 C 336.339844 105.015625 329.660156 92.203125 319.199219 81.742188 C 290.230469 52.785156 243.195312 52.785156 214.230469 81.742188 L 195.890625 100.082031 C 193.601562 102.367188 190.476562 103.613281 187.242188 103.53125 C 184.007812 103.445312 180.949219 102.039062 178.785156 99.640625 C 178.785156 99.640625 160.863281 81.742188 160.863281 81.742188 C 131.898438 52.785156 84.863281 52.785156 55.898438 81.742188 C 41.878906 95.757812 34.644531 114 34.191406 132.382812 C 55.976562 144.730469 77.214844 143.953125 97.902344 129.5 C 113.789062 116.933594 129.890625 111.019531 146 111.0625 C 162.085938 111.105469 178.398438 117.128906 194.710938 129.585938 L 194.75 129.613281 C 217.894531 147.441406 240.738281 145.101562 263.375 129.289062 L 263.640625 129.105469 C 288.84375 112.511719 314.046875 108.6875 339.246094 118.484375 Z M 339.246094 118.484375" fill-rule="evenodd"/></svg>