<svg xmlns="http://www.w3.org/2000/svg" width="187.5" viewBox="0 0 187.5 187.5" height="187.5" version="1.0"><path fill="#034078" d="M 161.09375 51.0625 L 105.738281 8.316406 C 104.882812 7.65625 103.984375 7.070312 103.03125 6.5625 C 102.082031 6.050781 101.097656 5.621094 100.078125 5.273438 C 99.058594 4.925781 98.015625 4.664062 96.953125 4.488281 C 95.886719 4.3125 94.816406 4.222656 93.738281 4.222656 C 92.660156 4.222656 91.589844 4.3125 90.527344 4.488281 C 89.460938 4.664062 88.421875 4.925781 87.398438 5.273438 C 86.378906 5.621094 85.394531 6.050781 84.445312 6.5625 C 83.496094 7.070312 82.59375 7.65625 81.738281 8.316406 L 26.382812 51.0625 C 25.195312 51.976562 24.125 53.011719 23.175781 54.171875 C 22.226562 55.332031 21.421875 56.585938 20.757812 57.933594 C 20.097656 59.277344 19.59375 60.679688 19.253906 62.140625 C 18.917969 63.601562 18.746094 65.082031 18.746094 66.582031 L 18.746094 163.617188 C 18.746094 164.261719 18.777344 164.902344 18.839844 165.542969 C 18.902344 166.179688 18.996094 166.816406 19.121094 167.445312 C 19.25 168.074219 19.402344 168.699219 19.589844 169.3125 C 19.777344 169.929688 19.992188 170.53125 20.238281 171.125 C 20.484375 171.71875 20.757812 172.300781 21.0625 172.867188 C 21.363281 173.433594 21.695312 173.984375 22.050781 174.519531 C 22.40625 175.054688 22.789062 175.570312 23.195312 176.066406 C 23.605469 176.5625 24.035156 177.039062 24.488281 177.492188 C 24.941406 177.949219 25.417969 178.378906 25.914062 178.789062 C 26.410156 179.195312 26.925781 179.578125 27.460938 179.933594 C 27.996094 180.292969 28.542969 180.625 29.109375 180.925781 C 29.675781 181.230469 30.257812 181.503906 30.851562 181.75 C 31.445312 181.996094 32.046875 182.214844 32.664062 182.402344 C 33.277344 182.589844 33.902344 182.746094 34.53125 182.871094 C 35.160156 182.996094 35.796875 183.09375 36.433594 183.15625 C 37.074219 183.21875 37.714844 183.25 38.359375 183.253906 L 149.121094 183.253906 C 149.761719 183.25 150.402344 183.21875 151.042969 183.15625 C 151.683594 183.09375 152.316406 182.996094 152.945312 182.871094 C 153.578125 182.746094 154.199219 182.589844 154.8125 182.402344 C 155.429688 182.214844 156.03125 181.996094 156.625 181.75 C 157.21875 181.503906 157.800781 181.230469 158.367188 180.925781 C 158.933594 180.625 159.484375 180.292969 160.015625 179.933594 C 160.550781 179.578125 161.066406 179.195312 161.5625 178.789062 C 162.058594 178.378906 162.535156 177.949219 162.988281 177.492188 C 163.441406 177.039062 163.875 176.5625 164.28125 176.066406 C 164.6875 175.570312 165.070312 175.054688 165.425781 174.519531 C 165.785156 173.984375 166.113281 173.433594 166.417969 172.867188 C 166.71875 172.300781 166.992188 171.71875 167.238281 171.125 C 167.484375 170.53125 167.699219 169.929688 167.886719 169.3125 C 168.074219 168.699219 168.230469 168.074219 168.355469 167.445312 C 168.480469 166.816406 168.574219 166.179688 168.636719 165.542969 C 168.699219 164.902344 168.730469 164.261719 168.730469 163.617188 L 168.730469 66.582031 C 168.730469 65.082031 168.5625 63.601562 168.222656 62.140625 C 167.882812 60.683594 167.382812 59.277344 166.71875 57.933594 C 166.058594 56.585938 165.25 55.335938 164.300781 54.175781 C 163.351562 53.015625 162.285156 51.976562 161.09375 51.0625 Z M 114.757812 102.828125 L 114.757812 173.277344 L 72.71875 173.277344 L 72.71875 102.828125 Z M 159.640625 163.617188 C 159.640625 164.308594 159.574219 164.996094 159.4375 165.671875 C 159.304688 166.351562 159.105469 167.007812 158.839844 167.648438 C 158.578125 168.285156 158.253906 168.894531 157.867188 169.46875 C 157.484375 170.042969 157.050781 170.578125 156.5625 171.066406 C 156.074219 171.554688 155.542969 171.992188 154.964844 172.378906 C 154.390625 172.761719 153.785156 173.085938 153.148438 173.351562 C 152.507812 173.617188 151.851562 173.820312 151.171875 173.957031 C 150.496094 174.09375 149.8125 174.160156 149.121094 174.164062 L 123.757812 174.164062 C 123.757812 173.890625 123.757812 173.640625 123.757812 173.367188 L 123.757812 102.828125 C 123.757812 102.230469 123.699219 101.640625 123.582031 101.054688 C 123.46875 100.46875 123.292969 99.902344 123.066406 99.351562 C 122.839844 98.796875 122.558594 98.273438 122.226562 97.777344 C 121.894531 97.28125 121.519531 96.824219 121.097656 96.402344 C 120.675781 95.980469 120.214844 95.601562 119.71875 95.269531 C 119.222656 94.9375 118.699219 94.660156 118.148438 94.429688 C 117.59375 94.203125 117.027344 94.03125 116.441406 93.914062 C 115.855469 93.796875 115.265625 93.738281 114.667969 93.738281 L 72.628906 93.738281 C 72.03125 93.738281 71.4375 93.796875 70.855469 93.914062 C 70.269531 94.03125 69.699219 94.203125 69.148438 94.429688 C 68.597656 94.660156 68.074219 94.9375 67.578125 95.269531 C 67.082031 95.601562 66.621094 95.980469 66.199219 96.402344 C 65.777344 96.824219 65.402344 97.28125 65.070312 97.777344 C 64.738281 98.273438 64.457031 98.796875 64.230469 99.351562 C 64 99.902344 63.828125 100.46875 63.710938 101.054688 C 63.59375 101.640625 63.535156 102.230469 63.535156 102.828125 L 63.535156 173.277344 C 63.535156 173.546875 63.535156 173.796875 63.535156 174.070312 L 38.359375 174.070312 C 37.671875 174.070312 36.988281 174.003906 36.316406 173.867188 C 35.640625 173.734375 34.984375 173.535156 34.351562 173.269531 C 33.714844 173.007812 33.109375 172.6875 32.539062 172.304688 C 31.964844 171.925781 31.4375 171.492188 30.949219 171.007812 C 30.460938 170.523438 30.023438 169.996094 29.640625 169.425781 C 29.253906 168.855469 28.929688 168.253906 28.664062 167.621094 C 28.394531 166.988281 28.191406 166.332031 28.054688 165.660156 C 27.914062 164.984375 27.84375 164.304688 27.835938 163.617188 L 27.835938 66.582031 C 27.84375 64.953125 28.203125 63.40625 28.921875 61.941406 C 29.640625 60.480469 30.640625 59.246094 31.925781 58.242188 L 87.308594 15.519531 C 87.765625 15.164062 88.246094 14.847656 88.753906 14.574219 C 89.265625 14.300781 89.792969 14.066406 90.339844 13.878906 C 90.886719 13.691406 91.445312 13.550781 92.015625 13.457031 C 92.585938 13.359375 93.160156 13.3125 93.738281 13.3125 C 94.316406 13.3125 94.890625 13.359375 95.460938 13.457031 C 96.03125 13.550781 96.589844 13.691406 97.136719 13.878906 C 97.683594 14.066406 98.214844 14.300781 98.722656 14.574219 C 99.230469 14.847656 99.714844 15.164062 100.167969 15.519531 L 155.550781 58.242188 C 156.835938 59.246094 157.835938 60.480469 158.554688 61.941406 C 159.273438 63.40625 159.632812 64.953125 159.640625 66.582031 Z M 159.640625 163.617188"/><path fill="#034078" d="M 84.648438 146.007812 C 84.945312 146.007812 85.242188 145.976562 85.535156 145.917969 C 85.828125 145.859375 86.113281 145.773438 86.386719 145.660156 C 86.664062 145.546875 86.925781 145.40625 87.171875 145.238281 C 87.421875 145.074219 87.652344 144.886719 87.863281 144.675781 C 88.074219 144.464844 88.261719 144.234375 88.425781 143.984375 C 88.59375 143.738281 88.734375 143.476562 88.847656 143.199219 C 88.960938 142.925781 89.046875 142.640625 89.105469 142.347656 C 89.164062 142.054688 89.195312 141.757812 89.195312 141.460938 L 89.195312 132.371094 C 89.195312 132.074219 89.164062 131.777344 89.105469 131.484375 C 89.046875 131.191406 88.960938 130.90625 88.847656 130.632812 C 88.734375 130.355469 88.59375 130.09375 88.425781 129.847656 C 88.261719 129.597656 88.074219 129.367188 87.863281 129.15625 C 87.652344 128.945312 87.421875 128.757812 87.171875 128.59375 C 86.925781 128.425781 86.664062 128.285156 86.386719 128.171875 C 86.113281 128.058594 85.828125 127.972656 85.535156 127.914062 C 85.242188 127.855469 84.945312 127.824219 84.648438 127.824219 C 84.351562 127.824219 84.054688 127.855469 83.761719 127.914062 C 83.46875 127.972656 83.183594 128.058594 82.910156 128.171875 C 82.632812 128.285156 82.371094 128.425781 82.125 128.59375 C 81.875 128.757812 81.644531 128.945312 81.433594 129.15625 C 81.222656 129.367188 81.035156 129.597656 80.871094 129.847656 C 80.703125 130.09375 80.5625 130.355469 80.449219 130.632812 C 80.335938 130.90625 80.25 131.191406 80.191406 131.484375 C 80.132812 131.777344 80.105469 132.074219 80.105469 132.371094 L 80.105469 141.460938 C 80.105469 141.757812 80.132812 142.054688 80.191406 142.347656 C 80.25 142.640625 80.335938 142.925781 80.449219 143.199219 C 80.5625 143.476562 80.703125 143.738281 80.871094 143.984375 C 81.035156 144.234375 81.222656 144.464844 81.433594 144.675781 C 81.644531 144.886719 81.875 145.074219 82.125 145.238281 C 82.371094 145.40625 82.632812 145.546875 82.910156 145.660156 C 83.183594 145.773438 83.46875 145.859375 83.761719 145.917969 C 84.054688 145.976562 84.351562 146.007812 84.648438 146.007812 Z M 84.648438 146.007812"/></svg>