<svg xmlns="http://www.w3.org/2000/svg" width="187.5" viewBox="0 0 187.5 187.5" height="187.5" version="1.0"><defs><clipPath id="a"><path d="M 2.386719 73 L 39 73 L 39 106 L 2.386719 106 Z M 2.386719 73"/></clipPath><clipPath id="b"><path d="M 33 42 L 185.386719 42 L 185.386719 152 L 33 152 Z M 33 42"/></clipPath></defs><g clip-path="url(#a)"><path fill="#034078" d="M 15.644531 86.785156 L 32.804688 86.785156 C 34.417969 84.5625 36.34375 82.65625 38.585938 81.070312 L 15.503906 81.074219 C 14.875 81.117188 13.132812 80.230469 10.59375 76.757812 C 8.835938 74.359375 7.007812 73.445312 5.160156 74.050781 C 3.320312 74.652344 2.386719 76.453125 2.386719 79.402344 L 2.386719 99.789062 C 2.386719 102.738281 3.320312 104.542969 5.160156 105.140625 C 7.433594 105.882812 9.347656 104.132812 10.59375 102.433594 C 13.132812 98.960938 14.859375 98.066406 15.644531 98.121094 L 28.34375 98.121094 C 28.625 96.164062 29.109375 94.257812 29.800781 92.40625 L 15.785156 92.410156 C 13.238281 92.277344 10.722656 93.609375 8.105469 96.449219 L 8.105469 82.746094 C 10.71875 85.582031 13.207031 86.894531 15.644531 86.785156 Z M 15.644531 86.785156"/></g><g clip-path="url(#b)"><path fill="#034078" d="M 182.628906 42.476562 C 179.859375 41.933594 178.644531 44.902344 178.058594 46.328125 C 169.296875 67.667969 144.082031 76.722656 133.648438 79.628906 C 130.050781 80.457031 126.40625 80.886719 122.714844 80.910156 L 112.472656 80.910156 L 112.472656 75.300781 C 112.851562 75.300781 113.214844 75.226562 113.566406 75.082031 C 113.917969 74.9375 114.226562 74.730469 114.496094 74.464844 C 114.761719 74.195312 114.96875 73.886719 115.113281 73.535156 C 115.257812 73.183594 115.332031 72.820312 115.332031 72.441406 C 115.332031 72.0625 115.257812 71.695312 115.113281 71.347656 C 114.96875 70.996094 114.761719 70.6875 114.496094 70.417969 C 114.226562 70.152344 113.917969 69.945312 113.566406 69.800781 C 113.214844 69.652344 112.851562 69.582031 112.472656 69.582031 L 106.753906 69.582031 C 106.375 69.582031 106.007812 69.652344 105.660156 69.800781 C 105.308594 69.945312 105 70.152344 104.730469 70.417969 C 104.464844 70.6875 104.257812 70.996094 104.113281 71.347656 C 103.964844 71.695312 103.894531 72.0625 103.894531 72.441406 C 103.894531 72.820312 103.964844 73.183594 104.113281 73.535156 C 104.257812 73.886719 104.464844 74.195312 104.730469 74.464844 C 105 74.730469 105.308594 74.9375 105.660156 75.082031 C 106.007812 75.226562 106.375 75.300781 106.753906 75.300781 L 106.753906 80.910156 L 95.316406 80.910156 L 95.316406 75.300781 C 95.695312 75.300781 96.058594 75.226562 96.410156 75.082031 C 96.761719 74.9375 97.070312 74.730469 97.339844 74.464844 C 97.605469 74.195312 97.8125 73.886719 97.957031 73.535156 C 98.101562 73.183594 98.175781 72.820312 98.175781 72.441406 C 98.175781 72.0625 98.101562 71.695312 97.957031 71.347656 C 97.8125 70.996094 97.605469 70.6875 97.339844 70.417969 C 97.070312 70.152344 96.761719 69.945312 96.410156 69.800781 C 96.058594 69.652344 95.695312 69.582031 95.316406 69.582031 L 89.597656 69.582031 C 89.21875 69.582031 88.851562 69.652344 88.503906 69.800781 C 88.152344 69.945312 87.84375 70.152344 87.574219 70.417969 C 87.308594 70.6875 87.101562 70.996094 86.957031 71.347656 C 86.808594 71.695312 86.738281 72.0625 86.738281 72.441406 C 86.738281 72.820312 86.808594 73.183594 86.957031 73.535156 C 87.101562 73.886719 87.308594 74.195312 87.574219 74.464844 C 87.84375 74.730469 88.152344 74.9375 88.503906 75.082031 C 88.851562 75.226562 89.21875 75.300781 89.597656 75.300781 L 89.597656 80.910156 L 78.160156 80.910156 L 78.160156 75.300781 C 78.539062 75.300781 78.902344 75.226562 79.253906 75.082031 C 79.605469 74.9375 79.914062 74.730469 80.183594 74.464844 C 80.449219 74.195312 80.65625 73.886719 80.800781 73.535156 C 80.945312 73.183594 81.019531 72.820312 81.019531 72.441406 C 81.019531 72.0625 80.945312 71.695312 80.800781 71.347656 C 80.65625 70.996094 80.449219 70.6875 80.183594 70.417969 C 79.914062 70.152344 79.605469 69.945312 79.253906 69.800781 C 78.902344 69.652344 78.539062 69.582031 78.160156 69.582031 L 72.441406 69.582031 C 72.0625 69.582031 71.695312 69.652344 71.347656 69.800781 C 70.996094 69.945312 70.6875 70.152344 70.417969 70.417969 C 70.152344 70.6875 69.945312 70.996094 69.800781 71.347656 C 69.652344 71.695312 69.582031 72.0625 69.582031 72.441406 C 69.582031 72.820312 69.652344 73.183594 69.800781 73.535156 C 69.945312 73.886719 70.152344 74.195312 70.417969 74.464844 C 70.6875 74.730469 70.996094 74.9375 71.347656 75.082031 C 71.695312 75.226562 72.0625 75.300781 72.441406 75.300781 L 72.441406 80.910156 L 60.597656 80.910156 C 52.003906 80.230469 35.535156 83.375 33.855469 100.097656 C 33.84375 100.191406 33.839844 100.285156 33.839844 100.382812 L 33.839844 130.59375 C 33.839844 130.796875 34.125 151.074219 58.945312 151.074219 L 114.386719 151.074219 C 122.425781 150.859375 137.75 146.421875 138.207031 131.058594 L 138.207031 112.472656 C 138.207031 112.09375 138.132812 111.726562 137.988281 111.378906 C 137.84375 111.027344 137.636719 110.71875 137.371094 110.449219 C 137.101562 110.183594 136.792969 109.976562 136.441406 109.832031 C 136.089844 109.683594 135.726562 109.613281 135.347656 109.613281 C 134.96875 109.613281 134.601562 109.683594 134.253906 109.832031 C 133.902344 109.976562 133.59375 110.183594 133.324219 110.449219 C 133.058594 110.71875 132.851562 111.027344 132.707031 111.378906 C 132.558594 111.726562 132.488281 112.09375 132.488281 112.472656 L 132.488281 130.972656 C 132.082031 144.660156 114.957031 145.335938 114.308594 145.355469 L 58.945312 145.355469 C 40.269531 145.355469 39.574219 132.089844 39.558594 130.59375 L 39.558594 100.53125 C 41.199219 85.285156 59.46875 86.554688 60.242188 86.617188 C 60.320312 86.625 60.402344 86.628906 60.480469 86.628906 L 122.714844 86.628906 C 126.925781 86.609375 131.082031 86.109375 135.183594 85.136719 C 142.210938 83.179688 155.46875 78.585938 166.800781 69.648438 L 166.800781 78.160156 C 166.800781 78.539062 166.871094 78.902344 167.019531 79.253906 C 167.164062 79.605469 167.371094 79.914062 167.636719 80.183594 C 167.90625 80.449219 168.214844 80.65625 168.566406 80.800781 C 168.914062 80.945312 169.28125 81.019531 169.660156 81.019531 C 170.039062 81.019531 170.402344 80.945312 170.753906 80.800781 C 171.105469 80.65625 171.414062 80.449219 171.683594 80.183594 C 171.949219 79.914062 172.15625 79.605469 172.300781 79.253906 C 172.445312 78.902344 172.519531 78.539062 172.519531 78.160156 L 172.519531 64.550781 C 175.230469 61.84375 177.613281 58.871094 179.667969 55.636719 L 179.667969 135.460938 C 171.519531 120.570312 154.578125 97.480469 128.199219 98.175781 L 62.339844 98.175781 C 60.570312 98.304688 58.882812 98.742188 57.273438 99.488281 C 55.667969 100.238281 54.246094 101.25 53.011719 102.523438 C 51.582031 104.167969 50.535156 106.03125 49.867188 108.109375 C 49.199219 110.183594 48.964844 112.308594 49.164062 114.480469 L 49.164062 121.945312 C 49.097656 123.777344 49.378906 125.546875 50.011719 127.265625 C 50.644531 128.980469 51.582031 130.515625 52.820312 131.863281 C 56.15625 135.382812 61.355469 137.035156 68.152344 136.777344 L 106.554688 136.777344 C 109.300781 136.730469 115.867188 137.402344 120.25 133.734375 C 121.480469 132.679688 122.429688 131.414062 123.097656 129.941406 C 123.769531 128.464844 124.101562 126.917969 124.089844 125.300781 L 123.910156 112.433594 C 123.898438 112.054688 123.816406 111.695312 123.664062 111.347656 C 123.511719 111.003906 123.300781 110.699219 123.03125 110.4375 C 122.761719 110.171875 122.449219 109.96875 122.101562 109.828125 C 121.75 109.6875 121.386719 109.613281 121.011719 109.613281 C 120.632812 109.617188 120.269531 109.695312 119.917969 109.847656 C 119.570312 109.996094 119.265625 110.207031 119 110.476562 C 118.734375 110.75 118.535156 111.0625 118.394531 111.414062 C 118.253906 111.765625 118.1875 112.132812 118.191406 112.511719 L 118.371094 125.242188 C 118.398438 126.019531 118.253906 126.765625 117.945312 127.480469 C 117.636719 128.199219 117.191406 128.8125 116.605469 129.328125 C 115.375 130.246094 113.996094 130.796875 112.472656 130.984375 L 112.472656 103.894531 L 128.273438 103.894531 C 155.429688 103.199219 171.886719 131.816406 177.671875 144.15625 C 178.21875 145.316406 179.675781 148.398438 182.527344 147.761719 C 185.386719 147.125 185.386719 143.621094 185.386719 142.472656 L 185.386719 47.71875 C 185.386719 46.195312 185.386719 43.019531 182.628906 42.476562 Z M 89.597656 103.894531 L 89.597656 131.058594 L 78.160156 131.058594 L 78.160156 103.894531 Z M 68.042969 131.058594 C 62.878906 131.25 59.183594 130.21875 57.019531 127.980469 C 56.300781 127.210938 55.757812 126.332031 55.382812 125.347656 C 55.011719 124.363281 54.839844 123.347656 54.871094 122.292969 C 54.878906 122.207031 54.882812 122.121094 54.882812 122.035156 L 54.878906 114.371094 C 54.519531 104.78125 61.207031 103.957031 62.433594 103.894531 L 72.441406 103.894531 L 72.441406 131.058594 Z M 106.753906 131.058594 L 95.316406 131.058594 L 95.316406 103.894531 L 106.753906 103.894531 Z M 106.753906 131.058594"/></g><path fill="#034078" d="M 172.519531 89.597656 C 172.519531 89.976562 172.445312 90.339844 172.300781 90.691406 C 172.15625 91.042969 171.949219 91.351562 171.683594 91.621094 C 171.414062 91.886719 171.105469 92.09375 170.753906 92.238281 C 170.402344 92.382812 170.039062 92.457031 169.660156 92.457031 C 169.28125 92.457031 168.914062 92.382812 168.566406 92.238281 C 168.214844 92.09375 167.90625 91.886719 167.636719 91.621094 C 167.371094 91.351562 167.164062 91.042969 167.019531 90.691406 C 166.871094 90.339844 166.800781 89.976562 166.800781 89.597656 C 166.800781 89.21875 166.871094 88.851562 167.019531 88.503906 C 167.164062 88.152344 167.371094 87.84375 167.636719 87.574219 C 167.90625 87.308594 168.214844 87.101562 168.566406 86.957031 C 168.914062 86.808594 169.28125 86.738281 169.660156 86.738281 C 170.039062 86.738281 170.402344 86.808594 170.753906 86.957031 C 171.105469 87.101562 171.414062 87.308594 171.683594 87.574219 C 171.949219 87.84375 172.15625 88.152344 172.300781 88.503906 C 172.445312 88.851562 172.519531 89.21875 172.519531 89.597656 Z M 172.519531 89.597656"/><path fill="#034078" d="M 42.390625 64.148438 L 40.492188 66.21875 C 40.234375 66.5 40.039062 66.816406 39.90625 67.175781 C 39.777344 67.53125 39.71875 67.898438 39.734375 68.277344 C 39.75 68.660156 39.839844 69.023438 40 69.367188 C 40.160156 69.710938 40.378906 70.011719 40.660156 70.269531 C 40.941406 70.527344 41.257812 70.71875 41.617188 70.847656 C 41.972656 70.976562 42.34375 71.035156 42.722656 71.015625 C 43.101562 71 43.464844 70.910156 43.808594 70.75 C 44.152344 70.585938 44.453125 70.363281 44.707031 70.082031 L 48.058594 66.425781 C 48.269531 66.195312 48.4375 65.941406 48.5625 65.65625 C 48.691406 65.375 48.769531 65.078125 48.796875 64.769531 C 48.828125 64.460938 48.808594 64.15625 48.738281 63.851562 C 48.667969 63.550781 48.554688 63.265625 48.390625 63.003906 L 41.59375 51.882812 L 47.203125 44.597656 L 54.570312 56.644531 L 52.523438 58.824219 C 52.261719 59.101562 52.066406 59.417969 51.933594 59.773438 C 51.800781 60.128906 51.738281 60.492188 51.753906 60.871094 C 51.765625 61.25 51.847656 61.613281 52.003906 61.957031 C 52.160156 62.304688 52.378906 62.605469 52.652344 62.863281 C 52.929688 63.125 53.246094 63.320312 53.601562 63.453125 C 53.953125 63.589844 54.320312 63.648438 54.699219 63.636719 C 55.078125 63.625 55.441406 63.542969 55.785156 63.386719 C 56.132812 63.230469 56.433594 63.011719 56.695312 62.738281 L 60.230469 58.964844 C 60.445312 58.738281 60.617188 58.480469 60.746094 58.195312 C 60.875 57.910156 60.957031 57.613281 60.988281 57.300781 C 61.019531 56.992188 61 56.683594 60.933594 56.378906 C 60.863281 56.074219 60.746094 55.785156 60.582031 55.519531 L 49.914062 38.066406 C 49.792969 37.871094 49.652344 37.6875 49.488281 37.527344 C 49.320312 37.363281 49.140625 37.222656 48.941406 37.101562 C 48.742188 36.984375 48.53125 36.890625 48.308594 36.824219 C 48.085938 36.753906 47.859375 36.714844 47.628906 36.703125 C 47.398438 36.691406 47.167969 36.707031 46.941406 36.75 C 46.710938 36.792969 46.492188 36.863281 46.28125 36.960938 C 46.070312 37.054688 45.875 37.175781 45.695312 37.320312 C 45.511719 37.464844 45.351562 37.628906 45.210938 37.8125 L 35.863281 49.953125 C 35.5 50.421875 35.304688 50.949219 35.273438 51.542969 C 35.242188 52.132812 35.378906 52.679688 35.6875 53.1875 Z M 42.390625 64.148438"/><path fill="#034078" d="M 126.789062 62.738281 C 127.050781 63.011719 127.351562 63.230469 127.699219 63.386719 C 128.042969 63.542969 128.40625 63.625 128.785156 63.636719 C 129.160156 63.648438 129.527344 63.589844 129.882812 63.453125 C 130.238281 63.320312 130.554688 63.125 130.828125 62.863281 C 131.105469 62.605469 131.320312 62.304688 131.476562 61.957031 C 131.632812 61.613281 131.71875 61.25 131.730469 60.871094 C 131.742188 60.492188 131.683594 60.128906 131.550781 59.773438 C 131.417969 59.417969 131.21875 59.101562 130.960938 58.824219 L 128.914062 56.644531 L 136.277344 44.597656 L 141.890625 51.882812 L 135.089844 63.003906 C 134.929688 63.265625 134.816406 63.550781 134.746094 63.851562 C 134.675781 64.15625 134.65625 64.460938 134.6875 64.769531 C 134.714844 65.078125 134.792969 65.375 134.917969 65.65625 C 135.046875 65.941406 135.214844 66.195312 135.421875 66.425781 L 138.773438 70.082031 C 139.03125 70.363281 139.332031 70.585938 139.675781 70.746094 C 140.019531 70.910156 140.378906 71 140.761719 71.015625 C 141.140625 71.035156 141.507812 70.976562 141.867188 70.847656 C 142.222656 70.71875 142.542969 70.527344 142.824219 70.269531 C 143.105469 70.011719 143.324219 69.710938 143.484375 69.367188 C 143.644531 69.019531 143.734375 68.660156 143.75 68.277344 C 143.765625 67.898438 143.707031 67.53125 143.574219 67.175781 C 143.445312 66.816406 143.25 66.5 142.992188 66.21875 L 141.09375 64.148438 L 147.792969 53.1875 C 148.105469 52.679688 148.242188 52.132812 148.210938 51.542969 C 148.179688 50.949219 147.980469 50.421875 147.621094 49.953125 L 138.273438 37.8125 C 138.132812 37.628906 137.972656 37.464844 137.789062 37.320312 C 137.609375 37.175781 137.410156 37.054688 137.199219 36.960938 C 136.992188 36.863281 136.769531 36.792969 136.542969 36.75 C 136.316406 36.707031 136.085938 36.691406 135.855469 36.703125 C 135.621094 36.714844 135.394531 36.753906 135.175781 36.824219 C 134.953125 36.890625 134.742188 36.984375 134.542969 37.101562 C 134.34375 37.222656 134.160156 37.363281 133.996094 37.527344 C 133.832031 37.6875 133.691406 37.871094 133.570312 38.066406 L 122.898438 55.519531 C 122.738281 55.785156 122.621094 56.074219 122.550781 56.378906 C 122.480469 56.683594 122.464844 56.992188 122.496094 57.300781 C 122.527344 57.613281 122.609375 57.910156 122.738281 58.195312 C 122.867188 58.480469 123.039062 58.738281 123.253906 58.964844 Z M 126.789062 62.738281"/></svg>