<svg xmlns="http://www.w3.org/2000/svg" width="187.5" viewBox="0 0 187.5 187.5" height="187.5" version="1.0"><path fill="#034078" d="M 181.515625 144.082031 L 139.582031 102.148438 L 127.804688 113.921875 C 127.890625 114.675781 128.238281 115.394531 128.816406 115.945312 C 130.171875 117.300781 132.367188 117.328125 133.722656 115.945312 L 140.386719 109.304688 L 150.230469 119.117188 L 135.800781 133.578125 C 134.414062 134.933594 134.441406 137.128906 135.800781 138.511719 C 137.15625 139.867188 139.351562 139.867188 140.734375 138.511719 L 155.164062 124.054688 L 164.082031 133 L 157.417969 139.636719 C 156.058594 141.023438 156.058594 143.214844 157.417969 144.574219 C 158.800781 145.929688 160.996094 145.929688 162.351562 144.574219 L 169.019531 137.90625 L 178.339844 147.257812 C 179.320312 148.210938 179.320312 149.796875 178.339844 150.75 L 150.75 178.339844 C 149.796875 179.320312 148.210938 179.320312 147.257812 178.339844 L 105.351562 136.433594 C 104.3125 137.503906 103.246094 138.570312 102.207031 139.636719 L 144.082031 181.515625 C 146.796875 184.226562 151.210938 184.226562 153.925781 181.515625 L 181.515625 153.925781 C 184.226562 151.210938 184.226562 146.796875 181.515625 144.082031 Z M 33.574219 5.984375 L 5.984375 33.574219 C 3.273438 36.289062 3.273438 40.703125 5.984375 43.417969 L 54.527344 91.960938 C 55.597656 90.894531 56.664062 89.851562 57.703125 88.785156 L 9.160156 40.242188 C 8.175781 39.289062 8.175781 37.703125 9.160156 36.75 L 36.75 9.160156 C 37.703125 8.175781 39.289062 8.175781 40.242188 9.160156 L 49.59375 18.480469 L 42.925781 25.148438 C 41.570312 26.503906 41.570312 28.699219 42.925781 30.082031 C 44.28125 31.4375 46.476562 31.4375 47.863281 30.082031 L 54.5 23.417969 L 64.339844 33.257812 L 49.910156 47.6875 C 48.554688 49.042969 48.554688 51.265625 49.910156 52.621094 C 51.265625 53.980469 53.488281 53.980469 54.847656 52.621094 L 69.277344 38.191406 L 78.195312 47.109375 L 71.554688 53.777344 C 70.171875 55.132812 70.171875 57.328125 71.554688 58.683594 C 72.914062 60.070312 75.105469 60.070312 76.492188 58.683594 L 83.128906 52.046875 L 88.757812 57.671875 C 89.824219 56.605469 90.894531 55.566406 91.929688 54.5 L 43.417969 5.984375 C 40.703125 3.273438 36.289062 3.273438 33.574219 5.984375 Z M 33.574219 5.984375"/><path fill="#034078" d="M 125.523438 34.355469 L 118.164062 41.511719 L 101.65625 58.050781 C 81.136719 78.597656 60.617188 99.148438 40.097656 119.722656 C 38.511719 121.339844 37.097656 123.304688 36.144531 125.265625 C 31.210938 135.164062 26.359375 145.0625 21.511719 154.933594 L 18.050781 162.003906 C 17.183594 163.707031 16.578125 165.410156 16.257812 167.144531 C 15.363281 172.25 18.222656 176.753906 23.011719 177.878906 C 24.425781 178.195312 25.871094 178.226562 27.542969 177.851562 C 29.015625 177.53125 30.632812 176.925781 32.480469 176.03125 L 39.203125 172.714844 C 47.3125 168.789062 55.367188 164.804688 63.449219 160.765625 L 64.542969 160.214844 C 68.152344 158.425781 72.25 156.378906 75.972656 152.652344 C 86.851562 141.6875 97.792969 130.75 108.699219 119.8125 L 155.832031 72.566406 C 156.148438 72.304688 156.378906 72.046875 156.636719 71.816406 L 159.8125 68.84375 Z M 103.273438 114.414062 C 92.304688 125.410156 81.425781 136.320312 70.546875 147.257812 C 67.71875 150.085938 64.457031 151.703125 61.050781 153.40625 L 60.011719 153.925781 C 50.863281 158.484375 43.183594 162.265625 35.855469 165.84375 L 29.101562 169.164062 C 27.832031 169.769531 26.761719 170.203125 25.925781 170.375 C 25.636719 170.433594 25.40625 170.460938 25.203125 170.460938 C 25.03125 170.460938 24.886719 170.460938 24.742188 170.433594 C 24.367188 170.347656 23.53125 170 23.792969 168.5 C 23.964844 167.519531 24.339844 166.507812 24.886719 165.441406 L 28.410156 158.28125 C 33.230469 148.441406 38.078125 138.542969 42.984375 128.671875 C 43.589844 127.429688 44.511719 126.132812 45.523438 125.152344 C 66.015625 104.542969 86.535156 84.023438 107.054688 63.476562 L 125.4375 45.121094 L 148.871094 68.699219 Z M 103.273438 114.414062"/><path fill="#034078" d="M 63.792969 144.660156 L 60.011719 146.535156 C 55.566406 148.730469 51.035156 150.980469 46.535156 153.261719 C 46.070312 153.492188 45.695312 153.605469 45.351562 153.605469 L 45.351562 154.328125 L 45.292969 153.605469 C 45.003906 153.578125 44.628906 153.492188 44.136719 152.972656 C 43.648438 152.394531 43.128906 151.875 42.578125 151.328125 C 42.03125 150.808594 41.484375 150.230469 40.960938 149.652344 C 40.703125 149.335938 40.53125 148.644531 40.730469 148.238281 C 43.039062 143.476562 45.351562 138.773438 47.714844 134.039062 L 49.363281 130.664062 C 49.390625 130.605469 49.449219 130.519531 49.59375 130.375 L 56.605469 137.445312 C 58.972656 139.8125 61.339844 142.207031 63.792969 144.660156 Z M 63.792969 144.660156"/><path fill="#034078" d="M 179.300781 31.609375 C 173.761719 25.96875 168.164062 20.402344 162.511719 14.871094 C 157.234375 9.644531 149.070312 10.152344 143.078125 16.054688 C 140.144531 18.929688 137.296875 21.824219 134.402344 24.710938 L 132.039062 27.050781 C 131.851562 27.273438 131.617188 27.53125 131.429688 27.753906 L 131.25 27.578125 L 133.8125 30.128906 L 134.570312 30.882812 L 163.464844 59.632812 L 166.542969 62.65625 L 170.003906 59.238281 C 172.71875 56.53125 175.4375 53.828125 178.121094 51.074219 C 184.097656 45.035156 184.582031 37.011719 179.300781 31.609375 Z M 179.300781 31.609375"/></svg>