<svg xmlns="http://www.w3.org/2000/svg" width="187.5" viewBox="0 0 187.5 187.5" height="187.5" version="1.0"><path fill="#034078" d="M 177.855469 159.0625 C 174.53125 155.742188 168.742188 155.742188 165.425781 159.0625 L 160.421875 164.0625 L 157.617188 164.0625 C 158.480469 162.664062 159.109375 161.09375 159.371094 159.363281 L 169.890625 88.316406 C 170.019531 87.4375 169.742188 86.546875 169.140625 85.894531 C 168.53125 85.246094 167.660156 84.890625 166.777344 84.96875 L 161.132812 85.386719 L 161.132812 76.171875 C 161.132812 74.089844 160.78125 72.039062 160.164062 70.074219 C 160.972656 69.894531 161.78125 69.675781 162.558594 69.355469 C 167.171875 67.445312 169.921875 63.421875 169.921875 58.59375 C 169.921875 51.125 162.101562 13.390625 147.441406 11.792969 C 145.082031 10.378906 136.6875 5.859375 125.730469 5.859375 C 115.195312 5.859375 106.859375 10.382812 104.511719 11.792969 C 89.847656 13.398438 82.03125 51.125 82.03125 58.59375 C 82.03125 63.421875 84.78125 67.445312 89.390625 69.355469 C 90.167969 69.675781 90.976562 69.894531 91.785156 70.074219 C 91.171875 72.039062 90.820312 74.089844 90.820312 76.171875 L 90.820312 82.445312 C 89.875 82.199219 88.90625 82.03125 87.890625 82.03125 C 82.75 82.03125 78.414062 85.382812 76.84375 90 L 70.246094 89.511719 C 69.984375 84.128906 68.125 79.054688 64.878906 74.816406 C 71.585938 70.191406 76.171875 63.582031 76.171875 55.664062 C 76.171875 40.304688 64.457031 22.558594 63.960938 21.8125 C 63.402344 20.976562 62.484375 20.511719 61.453125 20.507812 C 60.449219 20.535156 59.527344 21.066406 59.011719 21.929688 L 51.074219 35.15625 L 30.957031 35.15625 L 23.019531 21.929688 C 22.503906 21.066406 21.582031 20.535156 20.578125 20.507812 C 19.496094 20.515625 18.628906 20.976562 18.070312 21.8125 C 17.574219 22.558594 5.859375 40.304688 5.859375 55.664062 C 5.859375 63.582031 10.445312 70.195312 17.160156 74.816406 C 14.808594 77.90625 13.15625 81.460938 12.328125 85.214844 L 9.007812 84.96875 C 8.101562 84.894531 7.25 85.246094 6.644531 85.894531 C 6.039062 86.546875 5.761719 87.4375 5.890625 88.316406 L 16.410156 159.375 C 16.667969 161.0625 17.296875 162.640625 18.183594 164.0625 L 14.648438 164.0625 C 9.804688 164.0625 5.859375 168.003906 5.859375 172.851562 C 5.859375 177.695312 9.804688 181.640625 14.648438 181.640625 L 164.0625 181.640625 C 166.410156 181.640625 168.617188 180.726562 170.277344 179.066406 L 177.855469 171.488281 C 181.277344 168.0625 181.277344 162.488281 177.855469 159.0625 Z M 98.9375 90 C 98.441406 88.539062 97.671875 87.21875 96.679688 86.078125 L 96.679688 76.171875 C 96.679688 74.65625 96.941406 73.164062 97.394531 71.738281 C 99.019531 76.886719 103.496094 82.03125 111.328125 82.03125 C 118.023438 82.03125 123.152344 77.890625 125.976562 74.910156 C 128.800781 77.890625 133.925781 82.03125 140.625 82.03125 C 149.042969 82.03125 153.222656 77.429688 154.664062 72.050781 C 155.054688 73.386719 155.273438 74.769531 155.273438 76.171875 L 155.273438 85.820312 Z M 125.976562 67.382812 C 122.800781 67.382812 120.117188 65.371094 120.117188 62.988281 C 120.117188 60.605469 122.800781 58.59375 125.976562 58.59375 C 129.152344 58.59375 131.835938 60.605469 131.835938 62.988281 C 131.835938 65.371094 129.152344 67.382812 125.976562 67.382812 Z M 164.0625 58.59375 C 164.0625 61.894531 161.71875 63.359375 160.320312 63.941406 C 157.292969 65.195312 153.660156 64.550781 151.484375 62.382812 C 145.363281 56.257812 144.0625 25.308594 147.800781 17.832031 C 155.683594 20.804688 164.0625 49.132812 164.0625 58.59375 Z M 142.445312 15.753906 C 137.515625 27.488281 139.945312 59.125 147.34375 66.523438 C 147.964844 67.144531 148.648438 67.691406 149.371094 68.167969 C 149.171875 71.992188 147.421875 76.171875 140.625 76.171875 C 136.808594 76.171875 133.585938 74.019531 131.402344 72.019531 C 135.125 70.300781 137.695312 66.917969 137.695312 62.988281 C 137.695312 57.332031 132.4375 52.734375 125.976562 52.734375 C 119.511719 52.734375 114.257812 57.332031 114.257812 62.988281 C 114.257812 66.917969 116.828125 70.300781 120.550781 72.019531 C 118.367188 74.019531 115.140625 76.171875 111.328125 76.171875 C 104.820312 76.171875 102.90625 70.847656 102.601562 68.148438 C 103.316406 67.675781 103.996094 67.140625 104.609375 66.523438 C 112.011719 59.125 114.4375 27.460938 109.5 15.742188 C 112.65625 14.148438 118.644531 11.71875 125.730469 11.71875 C 133.105469 11.71875 139.238281 14.167969 142.445312 15.753906 Z M 87.890625 58.59375 C 87.890625 49.132812 96.269531 20.804688 104.152344 17.828125 C 107.886719 25.304688 106.589844 56.257812 100.46875 62.382812 C 98.292969 64.550781 94.664062 65.195312 91.632812 63.941406 C 90.234375 63.359375 87.890625 61.894531 87.890625 58.59375 Z M 87.890625 87.890625 C 91.121094 87.890625 93.75 90.519531 93.75 93.75 C 93.75 96.980469 91.121094 99.609375 87.890625 99.609375 C 84.660156 99.609375 82.03125 96.980469 82.03125 93.75 C 82.03125 90.519531 84.660156 87.890625 87.890625 87.890625 Z M 11.71875 55.664062 C 11.71875 46.128906 17.199219 34.976562 20.503906 29.125 L 26.785156 39.589844 C 27.3125 40.472656 28.269531 41.015625 29.296875 41.015625 L 52.734375 41.015625 C 53.761719 41.015625 54.71875 40.472656 55.246094 39.59375 L 61.527344 29.125 C 64.832031 34.976562 70.3125 46.128906 70.3125 55.664062 C 70.3125 69.042969 53.296875 76.171875 41.015625 76.171875 C 28.734375 76.171875 11.71875 69.042969 11.71875 55.664062 Z M 22.332031 77.796875 C 28.039062 80.519531 34.609375 82.03125 41.015625 82.03125 C 47.449219 82.03125 54.046875 80.503906 59.769531 77.757812 C 62.433594 80.984375 64.019531 84.902344 64.367188 89.074219 L 18.265625 85.65625 C 19.019531 82.789062 20.425781 80.125 22.332031 77.796875 Z M 24.40625 162.484375 C 23.222656 161.464844 22.4375 160.046875 22.203125 158.507812 L 12.222656 91.082031 L 76.382812 95.839844 C 77.371094 101.304688 82.144531 105.46875 87.890625 105.46875 C 93.636719 105.46875 98.40625 101.304688 99.398438 95.839844 L 163.558594 91.082031 L 153.578125 158.496094 C 153.085938 161.722656 150.375 164.0625 147.128906 164.0625 C 145.378906 164.0625 143.742188 163.390625 142.515625 162.164062 C 141.296875 160.945312 140.625 159.308594 140.625 157.558594 L 140.625 155.273438 C 140.625 153.652344 139.3125 152.34375 137.695312 152.34375 L 38.085938 152.34375 C 36.46875 152.34375 35.15625 153.652344 35.15625 155.273438 L 35.15625 157.558594 C 35.15625 161.144531 32.238281 164.0625 28.652344 164.0625 C 27.078125 164.0625 25.578125 163.507812 24.40625 162.484375 Z M 136.644531 164.0625 L 39.101562 164.0625 C 40.179688 162.335938 40.886719 160.355469 40.996094 158.203125 L 134.78125 158.203125 C 134.886719 160.316406 135.554688 162.304688 136.644531 164.0625 Z M 173.710938 167.347656 L 166.132812 174.921875 C 165.578125 175.476562 164.84375 175.78125 164.0625 175.78125 L 14.648438 175.78125 C 13.035156 175.78125 11.71875 174.46875 11.71875 172.851562 C 11.71875 171.234375 13.035156 169.921875 14.648438 169.921875 L 161.632812 169.921875 C 162.410156 169.921875 163.15625 169.613281 163.703125 169.0625 L 169.566406 163.203125 C 170.671875 162.09375 172.601562 162.09375 173.707031 163.203125 C 174.847656 164.347656 174.847656 166.203125 173.710938 167.347656 Z M 173.710938 167.347656"/><path fill="#034078" d="M 26.367188 52.734375 L 32.226562 52.734375 L 32.226562 58.59375 L 26.367188 58.59375 Z M 26.367188 52.734375"/><path fill="#034078" d="M 49.804688 52.734375 L 55.664062 52.734375 L 55.664062 58.59375 L 49.804688 58.59375 Z M 49.804688 52.734375"/><path fill="#034078" d="M 114.257812 40.070312 L 120.117188 40.070312 L 120.117188 45.929688 L 114.257812 45.929688 Z M 114.257812 40.070312"/><path fill="#034078" d="M 131.835938 40.070312 L 137.695312 40.070312 L 137.695312 45.929688 L 131.835938 45.929688 Z M 131.835938 40.070312"/></svg>