<svg xmlns="http://www.w3.org/2000/svg" width="375" viewBox="0 0 375 390" height="390" version="1.0"><defs><clipPath id="a"><path d="M 53.164062 60.664062 L 246 60.664062 L 246 329 L 53.164062 329 Z M 53.164062 60.664062"/></clipPath></defs><path fill="#FFF" d="M-37.5 -39H412.5V429H-37.5z"/><path fill="#FFF" d="M-37.5 -39H412.5V429H-37.5z"/><path fill="#001F54" d="M-37.5 -39H412.5V429H-37.5z"/><g clip-path="url(#a)"><path fill="#FFF" d="M 67.238281 254.164062 C 66.507812 252.15625 65.683594 250.195312 64.546875 248.378906 C 64.417969 247.507812 64.097656 246.714844 63.558594 246.019531 C 62.914062 244.308594 62.273438 242.605469 61.628906 240.898438 C 61.339844 240.246094 61.457031 239.429688 60.824219 238.921875 C 60.25 236.996094 59.667969 235.070312 59.09375 233.140625 C 58.867188 232.417969 58.644531 231.6875 58.417969 230.960938 C 55 217.960938 53.136719 204.761719 53.515625 191.300781 C 53.792969 181.488281 55.039062 171.796875 57.484375 162.28125 C 57.589844 161.867188 57.582031 161.421875 57.625 160.988281 C 58.257812 159.839844 58.550781 158.597656 58.644531 157.300781 C 60.054688 153.261719 61.460938 149.226562 62.867188 145.1875 C 63.429688 143.796875 63.992188 142.398438 64.546875 141.003906 C 67.421875 135.570312 70.285156 130.148438 73.152344 124.714844 C 74.882812 122.082031 76.605469 119.449219 78.335938 116.816406 C 87.136719 104.960938 97.453125 94.613281 109.289062 85.789062 C 111.902344 84.066406 114.507812 82.34375 117.121094 80.625 C 122.570312 77.742188 128.023438 74.863281 133.472656 71.976562 C 135.027344 71.378906 136.582031 70.78125 138.136719 70.191406 C 142.023438 68.832031 145.90625 67.476562 149.792969 66.121094 C 151.085938 65.984375 152.316406 65.640625 153.488281 65.089844 C 164.847656 62.519531 176.289062 60.792969 187.992188 60.878906 C 198.710938 60.964844 209.242188 62.273438 219.828125 64.835938 C 217.804688 66.164062 215.40625 65.570312 213.511719 66.667969 C 212.402344 66.589844 211.347656 66.789062 210.355469 67.289062 C 206.757812 67.84375 203.277344 68.832031 199.835938 69.976562 C 198.449219 70.375 197.0625 70.777344 195.679688 71.171875 C 191.550781 72.480469 187.375 73.679688 183.496094 75.65625 C 181.960938 75.871094 180.617188 76.566406 179.285156 77.296875 C 173.796875 79.457031 168.476562 81.957031 163.457031 85.066406 C 161.222656 85.9375 159.226562 87.238281 157.238281 88.542969 C 143.925781 96.507812 132.085938 106.261719 121.828125 117.90625 C 115.984375 124.539062 110.664062 131.5625 106.507812 139.410156 C 105.222656 141.191406 104.179688 143.105469 103.453125 145.1875 C 100.953125 149.519531 99.011719 154.085938 97.625 158.886719 C 96.8125 160.179688 96.503906 161.640625 96.179688 163.097656 C 94.945312 166.519531 94.101562 170.039062 93.515625 173.621094 C 93.34375 174.675781 92.769531 175.671875 93 176.789062 C 92.316406 179.734375 91.851562 182.699219 91.902344 185.734375 C 91.84375 186.796875 91.785156 187.859375 91.726562 188.925781 C 91.175781 191.53125 91.328125 194.152344 91.53125 196.785156 C 91.417969 197.695312 91.375 198.597656 91.796875 199.453125 C 91.8125 201.746094 91.605469 204.050781 92.371094 206.277344 C 92.449219 207.175781 92.53125 208.082031 92.613281 208.984375 C 92.925781 211.105469 93.070312 213.257812 93.808594 215.296875 C 93.964844 216.171875 93.773438 217.132812 94.457031 217.878906 C 94.585938 219.914062 95.171875 221.835938 95.976562 223.699219 C 96.007812 224.453125 96.085938 225.179688 96.648438 225.761719 C 97.066406 228.171875 97.992188 230.402344 99.070312 232.578125 C 99.207031 232.960938 99.347656 233.351562 99.484375 233.738281 C 100.242188 235.824219 101.042969 237.882812 102.277344 239.742188 C 102.339844 240.253906 102.445312 240.738281 102.925781 241.035156 C 103.617188 243.078125 104.714844 244.90625 105.957031 246.65625 C 106.09375 246.910156 106.230469 247.164062 106.371094 247.417969 C 107.28125 249.289062 108.335938 251.066406 109.707031 252.648438 C 109.902344 253.28125 110.195312 253.84375 110.777344 254.21875 C 111.761719 256.042969 112.949219 257.710938 114.414062 259.179688 C 114.589844 259.808594 114.964844 260.28125 115.519531 260.609375 C 116.515625 262.234375 117.734375 263.675781 119.175781 264.9375 C 119.371094 265.539062 119.761719 265.984375 120.316406 266.28125 C 121.335938 267.476562 122.355469 268.671875 123.367188 269.871094 L 123.375 269.871094 C 117.878906 272.570312 112.921875 275.953125 108.824219 280.617188 C 107.257812 282.402344 107.050781 283.527344 109.054688 284.835938 C 109.5 285.640625 110.011719 286.394531 110.8125 286.894531 C 111.761719 288.222656 112.902344 289.335938 114.378906 290.070312 C 114.75 290.640625 115.25 291.023438 115.941406 291.125 C 117.6875 292.605469 119.679688 293.640625 121.863281 294.300781 C 122.25 294.878906 122.917969 294.898438 123.480469 295.121094 C 125.382812 295.808594 127.289062 296.496094 129.191406 297.175781 C 129.917969 297.398438 130.644531 297.617188 131.375 297.835938 C 133.429688 298.558594 135.507812 299.179688 137.683594 299.421875 C 138.367188 299.675781 139.007812 300.109375 139.796875 299.953125 C 141.867188 300.511719 143.9375 301.085938 146.109375 301.074219 C 146.914062 301.632812 147.820312 301.667969 148.746094 301.566406 C 150.984375 302.1875 153.269531 302.507812 155.585938 302.574219 C 156.46875 302.714844 157.355469 302.855469 158.238281 303.003906 C 160.511719 303.207031 162.785156 303.414062 165.066406 303.621094 C 165.765625 303.664062 166.457031 303.699219 167.15625 303.738281 C 169.574219 304.480469 172.0625 304.253906 174.535156 304.277344 C 175.5625 304.710938 176.632812 304.722656 177.714844 304.65625 C 179.769531 304.679688 181.53125 305.824219 183.492188 306.191406 C 183.882812 306.292969 184.265625 306.390625 184.652344 306.492188 C 186.824219 307.40625 189.039062 308.175781 191.398438 308.453125 C 191.976562 309.058594 192.734375 309.023438 193.476562 309.027344 C 195.519531 309.851562 197.621094 310.40625 199.824219 310.550781 C 200.601562 311.183594 201.523438 311.125 202.4375 311.136719 C 204.445312 311.964844 206.605469 312.054688 208.714844 312.421875 C 209.597656 312.535156 210.484375 312.644531 211.367188 312.757812 C 213.628906 313.296875 215.902344 313.800781 218.253906 313.660156 C 219.136719 313.8125 220.019531 313.96875 220.902344 314.121094 C 223.175781 314.296875 225.457031 314.476562 227.730469 314.660156 C 228.613281 314.675781 229.496094 314.695312 230.371094 314.714844 C 232.824219 314.855469 235.269531 315.210938 237.730469 314.898438 C 238.773438 315.210938 239.816406 315.226562 240.871094 314.957031 C 242.222656 315.1875 243.566406 315.109375 244.902344 314.835938 C 244.921875 315.015625 245 315.164062 245.136719 315.28125 C 241.445312 317.441406 237.300781 318.574219 233.515625 320.503906 C 232.171875 320.917969 230.832031 321.328125 229.488281 321.738281 C 213.792969 326.90625 197.667969 329.0625 181.1875 328.371094 C 170.238281 327.914062 159.488281 326.078125 148.980469 322.910156 C 148.402344 322.738281 147.792969 322.667969 147.191406 322.546875 C 146.8125 321.980469 146.191406 322.105469 145.648438 321.996094 C 143.699219 321.324219 141.757812 320.648438 139.808594 319.964844 C 139.222656 319.378906 138.453125 319.214844 137.683594 319.042969 C 135.929688 318.320312 134.171875 317.597656 132.417969 316.875 C 131.824219 316.3125 131.097656 316.027344 130.308594 315.875 C 128.773438 315.128906 127.246094 314.382812 125.714844 313.636719 C 125.121094 313.007812 124.34375 312.730469 123.546875 312.472656 C 121.859375 311.308594 120.121094 310.234375 118.210938 309.464844 C 117.824219 308.902344 117.269531 308.601562 116.628906 308.421875 C 115.242188 307.542969 113.863281 306.652344 112.476562 305.769531 C 111.753906 305.253906 111.03125 304.738281 110.304688 304.21875 C 109.089844 303.335938 107.871094 302.460938 106.65625 301.578125 C 105.949219 301.03125 105.246094 300.492188 104.542969 299.949219 C 102.972656 298.664062 101.410156 297.371094 99.839844 296.082031 C 99.484375 295.78125 99.121094 295.476562 98.765625 295.167969 C 97.492188 293.984375 96.21875 292.808594 94.945312 291.621094 C 94.652344 291.082031 94.242188 290.675781 93.65625 290.460938 C 92.335938 289.09375 91.015625 287.71875 89.695312 286.351562 C 89.191406 285.8125 88.6875 285.28125 88.183594 284.746094 C 87.113281 283.519531 86.046875 282.292969 84.972656 281.074219 C 84.507812 280.523438 84.03125 279.980469 83.566406 279.433594 C 82.707031 277.863281 81.503906 276.5625 80.308594 275.253906 C 79.78125 274.535156 79.257812 273.8125 78.730469 273.097656 C 77.753906 271.675781 76.777344 270.253906 75.800781 268.832031 C 75.363281 268.175781 74.925781 267.511719 74.484375 266.855469 C 73.617188 265.445312 72.746094 264.03125 71.875 262.621094 C 71.726562 261.976562 71.449219 261.414062 70.902344 261.015625 C 69.980469 259.269531 69.054688 257.527344 68.125 255.78125 C 68.019531 255.136719 67.746094 254.589844 67.238281 254.164062"/></g><path fill="#FFF" d="M 224.117188 152.804688 C 227.304688 150.761719 230.796875 149.808594 234.582031 149.875 C 235.285156 150.035156 235.992188 150.195312 236.695312 150.351562 C 238.894531 151.140625 241.148438 151.636719 243.496094 151.675781 C 244.144531 152.1875 244.902344 152.070312 245.644531 152.015625 C 247.882812 152.621094 250.152344 153.066406 252.484375 153.054688 C 253.152344 153.378906 253.828125 153.65625 254.597656 153.535156 C 256.878906 153.882812 259.160156 154.226562 261.433594 154.574219 C 262.257812 154.730469 263.078125 154.878906 263.898438 155.03125 C 266.039062 155.351562 268.183594 155.671875 270.328125 155.992188 C 271.214844 156.105469 272.105469 156.210938 272.992188 156.324219 C 275.902344 157.449219 278.683594 156.742188 281.457031 155.777344 C 282.550781 155.820312 283.628906 155.75 284.613281 155.179688 C 288.007812 154.777344 291.347656 154.085938 294.617188 153.09375 C 295.734375 153.238281 296.769531 152.972656 297.777344 152.527344 C 301.160156 152.054688 304.503906 151.429688 307.78125 150.453125 C 308.644531 150.484375 309.511719 150.519531 310.375 150.546875 C 311.9375 151.234375 313.496094 151.921875 315.054688 152.609375 C 315.605469 153.148438 316.148438 153.695312 316.695312 154.230469 C 321.636719 161.636719 317.183594 169.285156 309.894531 170.542969 C 308.667969 170.765625 307.441406 170.992188 306.210938 171.222656 C 303.046875 171.878906 299.890625 172.539062 296.730469 173.195312 C 295.507812 173.457031 294.285156 173.714844 293.058594 173.976562 C 289.894531 174.605469 286.734375 175.226562 283.566406 175.855469 C 282.339844 176.132812 281.019531 176.042969 279.878906 176.707031 C 277.429688 177.050781 274.976562 176.859375 272.53125 176.675781 C 271.714844 176.078125 270.777344 176.234375 269.867188 176.25 C 267.628906 175.613281 265.359375 175.183594 263.019531 175.203125 C 261.171875 174.425781 259.207031 174.398438 256.730469 174.058594 C 258.109375 176.121094 259.234375 177.808594 260.355469 179.492188 C 261.03125 181 261.914062 182.386719 262.980469 183.648438 C 263.152344 184.289062 263.433594 184.851562 263.996094 185.242188 C 264.949219 186.804688 265.90625 188.375 266.859375 189.9375 C 267.332031 190.660156 267.800781 191.375 268.265625 192.09375 C 268.953125 193.609375 269.84375 194.996094 270.898438 196.273438 C 271.074219 196.917969 271.363281 197.484375 271.933594 197.863281 C 272.855469 199.609375 273.78125 201.363281 274.710938 203.109375 C 275.019531 203.8125 275.320312 204.523438 275.628906 205.234375 C 276.007812 208.140625 275.914062 210.980469 274.3125 213.578125 C 273.539062 214.414062 272.769531 215.242188 272 216.078125 C 265.132812 220.324219 258.265625 224.578125 251.394531 228.828125 C 248.777344 230.355469 246.265625 232.109375 243.523438 233.351562 C 240.21875 234.839844 239.011719 237.0625 239.933594 240.511719 C 239.804688 243.167969 239.800781 245.8125 240.308594 248.4375 C 240.105469 249.136719 240.171875 249.828125 240.398438 250.511719 C 240.421875 252.96875 240.4375 255.417969 240.460938 257.878906 C 240.375 258.949219 240.34375 260.019531 240.667969 261.0625 C 240.765625 263.515625 240.851562 265.960938 240.941406 268.414062 C 240.960938 269.296875 240.976562 270.171875 240.988281 271.054688 C 240.710938 272.503906 241.046875 273.980469 240.582031 275.441406 C 239.046875 280.28125 235.765625 282.441406 229.324219 282.699219 C 228.617188 282.496094 227.917969 282.292969 227.214844 282.09375 C 226 281.21875 224.773438 280.335938 223.558594 279.457031 C 223.046875 278.71875 222.523438 277.976562 222.007812 277.238281 C 221.640625 275.355469 221.273438 273.464844 220.90625 271.574219 C 220.882812 270.691406 220.855469 269.816406 220.832031 268.941406 C 220.964844 266.304688 220.996094 263.679688 220.671875 261.058594 C 220.789062 260.152344 220.800781 259.25 220.433594 258.386719 C 220.386719 255.941406 220.34375 253.488281 220.296875 251.042969 C 220.285156 250.160156 220.269531 249.277344 220.253906 248.394531 C 220.367188 245.925781 220.167969 243.472656 219.851562 241.027344 C 219.828125 240.152344 219.800781 239.269531 219.777344 238.394531 C 219.777344 236.683594 219.777344 234.96875 219.777344 232.789062 C 217.933594 234.230469 215.625 233.964844 214.523438 236.011719 C 212.203125 240.304688 209.855469 244.582031 207.523438 248.871094 C 206.171875 250.894531 204.988281 253.007812 204.046875 255.253906 C 200.796875 261.058594 197.542969 266.867188 194.292969 272.671875 C 193.28125 274.566406 192.265625 276.460938 191.25 278.355469 C 189.84375 280.753906 188.074219 282.796875 185.5625 284.101562 C 184.519531 284.332031 183.484375 284.558594 182.441406 284.792969 C 180.480469 284.847656 178.667969 284.214844 176.851562 283.597656 C 176.332031 283.242188 175.816406 282.894531 175.292969 282.539062 C 174.042969 281.09375 172.84375 279.613281 172.203125 277.765625 C 172.074219 277.105469 171.9375 276.445312 171.804688 275.78125 C 171.675781 273.085938 172.523438 270.691406 173.914062 268.414062 C 174.945312 266.71875 175.773438 264.90625 176.691406 263.148438 C 177.949219 261.332031 179.035156 259.429688 179.847656 257.367188 C 183.34375 251.742188 186.429688 245.886719 189.53125 240.039062 C 190.839844 237.996094 192.058594 235.910156 192.984375 233.660156 C 194.761719 230.5625 196.679688 227.539062 198.273438 224.351562 C 200.011719 220.875 202.484375 218.445312 206.21875 217.210938 C 208.1875 216.550781 210.035156 215.515625 211.933594 214.652344 C 213.605469 214.195312 215.203125 213.585938 216.671875 212.65625 C 221.34375 210.957031 225.933594 209.058594 230.390625 206.84375 C 233.320312 206.070312 235.972656 204.625 238.820312 203.5 C 238.230469 202.355469 237.71875 201.273438 236.808594 200.445312 C 235.960938 198.554688 234.820312 196.835938 233.550781 195.207031 C 233.378906 194.570312 233.082031 194.011719 232.53125 193.621094 C 231.542969 192.003906 230.558594 190.398438 229.570312 188.789062 C 229.257812 188.292969 228.9375 187.800781 228.625 187.308594 C 227.925781 186.113281 227.21875 184.914062 226.402344 183.511719 C 223.382812 188.042969 220.488281 192.394531 217.589844 196.75 C 216.0625 198.644531 214.636719 200.632812 212.402344 201.800781 C 206.777344 204.800781 201.152344 207.800781 195.523438 210.800781 C 193.71875 211.546875 191.960938 212.402344 190.359375 213.542969 C 189.496094 213.953125 188.625 214.347656 187.761719 214.761719 C 183.921875 216.605469 180.457031 219.257812 176.136719 220.023438 C 175.441406 219.976562 174.75 219.933594 174.054688 219.890625 C 172.171875 219.265625 170.390625 218.429688 168.792969 217.226562 C 168.484375 216.894531 168.167969 216.558594 167.863281 216.226562 C 166.859375 214.585938 166.199219 212.816406 165.699219 210.972656 C 165.792969 209.929688 165.890625 208.890625 165.984375 207.847656 C 166.789062 204.960938 168.371094 202.675781 171.035156 201.203125 C 172.398438 200.457031 173.730469 199.660156 175.074219 198.890625 C 177.113281 198.105469 179.035156 197.078125 180.855469 195.867188 C 187.480469 192.390625 194.113281 188.925781 200.730469 185.425781 C 201.175781 185.195312 201.589844 184.796875 201.867188 184.382812 C 208.054688 174.984375 214.925781 166.054688 220.597656 156.316406 C 221.773438 155.144531 222.945312 153.976562 224.117188 152.804688"/><path fill="#FFF" d="M 271.441406 290.59375 C 267.757812 291.617188 264.070312 292.636719 260.386719 293.660156 C 259.269531 293.542969 258.230469 293.820312 257.222656 294.261719 C 254.066406 294.800781 250.910156 295.347656 247.753906 295.886719 C 246.644531 295.707031 245.636719 296.195312 244.585938 296.378906 C 241.605469 296.738281 238.625 297.105469 235.640625 297.46875 C 234.558594 297.332031 233.492188 297.390625 232.480469 297.851562 C 229.648438 297.734375 226.859375 298.21875 224.058594 298.511719 C 223.019531 298.378906 221.992188 298.339844 220.972656 298.65625 C 218.3125 298.789062 215.660156 298.925781 213 299.0625 C 212.113281 299.085938 211.230469 299.109375 210.347656 299.136719 C 207.539062 299.257812 204.738281 299.378906 201.933594 299.503906 C 201.054688 299.5 200.179688 299.492188 199.296875 299.488281 C 196.667969 299.488281 194.03125 299.488281 191.402344 299.492188 C 190.710938 299.257812 190.011719 299.246094 189.3125 299.445312 C 186.6875 299.019531 184.054688 298.9375 181.40625 299.0625 C 180.523438 299.035156 179.640625 299.019531 178.757812 298.996094 C 176.308594 298.835938 173.847656 298.675781 171.398438 298.515625 C 170.519531 298.472656 169.648438 298.425781 168.773438 298.386719 C 166.542969 297.6875 164.203125 297.964844 161.925781 297.65625 C 161.070312 297.273438 160.175781 297.335938 159.273438 297.421875 C 156.996094 297.089844 154.71875 296.761719 152.441406 296.4375 C 151.597656 296.300781 150.765625 296.160156 149.921875 296.023438 C 148.050781 295.726562 146.175781 295.4375 144.304688 295.140625 C 143.148438 294.867188 141.992188 294.589844 140.839844 294.316406 C 138.917969 293.890625 137.007812 293.46875 135.089844 293.050781 C 134.195312 292.765625 133.304688 292.476562 132.417969 292.183594 C 130.664062 291.628906 128.910156 291.070312 127.160156 290.515625 C 126.578125 289.917969 125.796875 289.773438 125.039062 289.574219 C 123.480469 288.832031 121.921875 288.085938 120.367188 287.347656 C 119.644531 286.855469 118.921875 286.363281 118.199219 285.871094 C 117.160156 284.960938 116.125 284.054688 115.089844 283.148438 C 115.640625 281.1875 117.652344 280.613281 118.800781 279.214844 C 123.535156 276 128.816406 273.878906 134 271.550781 C 135.492188 271.34375 136.863281 270.792969 138.195312 270.117188 C 141.894531 269.015625 145.582031 267.921875 149.273438 266.820312 C 150.558594 266.910156 151.710938 266.375 152.90625 266.050781 C 156.261719 265.261719 159.613281 264.476562 162.964844 263.6875 C 164.070312 263.792969 165.132812 263.644531 166.125 263.128906 C 167.5 263.460938 168.761719 262.34375 170.210938 262.8125 C 169.367188 264.523438 168.53125 266.203125 167.703125 267.886719 C 166.742188 269.136719 166.457031 270.609375 166.238281 272.109375 C 165.902344 274.597656 165.792969 277.066406 166.738281 279.464844 C 166.867188 280.257812 167.0625 281.015625 167.671875 281.589844 C 168.3125 283.65625 169.632812 285.207031 171.339844 286.46875 C 171.734375 287.105469 172.257812 287.570312 172.980469 287.796875 C 174.683594 289.097656 176.550781 290.003906 178.746094 290.066406 C 179.367188 290.65625 180.121094 290.554688 180.871094 290.46875 C 187.003906 290.804688 191.800781 288.277344 194.984375 283.199219 C 197.976562 278.421875 200.476562 273.335938 203.1875 268.382812 C 204.367188 266.566406 205.484375 264.710938 206.273438 262.675781 C 206.8125 261.808594 207.394531 260.96875 207.878906 260.074219 C 208.542969 258.84375 209.152344 257.597656 210.882812 257.800781 C 211.761719 257.777344 212.644531 257.753906 213.527344 257.730469 C 214.355469 257.730469 214.777344 258.054688 214.789062 258.972656 C 214.8125 260.191406 214.984375 261.40625 215.097656 262.621094 C 215.121094 263.503906 215.144531 264.378906 215.167969 265.261719 C 215.019531 267.714844 215.003906 270.167969 215.3125 272.613281 C 215.117188 273.535156 215.328125 274.414062 215.667969 275.265625 C 215.652344 277.445312 216.5 279.316406 217.738281 281.050781 C 218.039062 281.921875 218.566406 282.621094 219.308594 283.164062 C 220.34375 284.644531 221.683594 285.742188 223.375 286.386719 C 223.992188 287.019531 224.726562 287.375 225.617188 287.398438 C 227.953125 288.695312 230.460938 288.613281 232.996094 288.339844 C 234.320312 288.359375 235.554688 288.027344 236.691406 287.351562 C 241.089844 285.800781 244.027344 282.792969 245.609375 278.421875 C 246.324219 277.296875 246.539062 276.027344 246.605469 274.726562 C 246.605469 272.097656 246.605469 269.472656 246.605469 266.84375 C 246.550781 265.957031 246.492188 265.066406 246.433594 264.183594 C 246.414062 263.152344 246.433594 262.117188 246.371094 261.085938 C 246.175781 257.742188 246.171875 257.734375 249.589844 257.960938 C 250.535156 258.019531 251.476562 258.109375 252.425781 258.183594 C 253.300781 258.523438 254.214844 258.464844 255.125 258.378906 C 257.398438 258.707031 259.679688 259.039062 261.960938 259.363281 C 262.785156 259.519531 263.605469 259.664062 264.429688 259.820312 C 266.589844 260.222656 268.757812 260.625 270.921875 261.027344 C 271.519531 261.585938 272.257812 261.636719 273.023438 261.621094 C 274.679688 262.171875 276.34375 262.726562 278.003906 263.277344 C 278.703125 263.824219 279.496094 264.136719 280.371094 264.253906 C 281.929688 265.132812 283.480469 266.007812 285.03125 266.886719 C 285.5 267.257812 285.976562 267.625 286.441406 268 C 287.53125 269.390625 288.617188 270.78125 289.707031 272.171875 C 289.949219 272.855469 290.191406 273.53125 290.441406 274.210938 C 290.710938 278.9375 288.148438 282.011719 284.535156 284.539062 C 281.609375 286.589844 278.257812 287.808594 275.109375 289.414062 C 273.886719 289.804688 272.660156 290.199219 271.441406 290.59375"/><path fill="#FFF" d="M 246.699219 77.195312 C 248.960938 77.457031 251.222656 77.722656 253.484375 77.984375 C 254.332031 78.488281 255.261719 78.351562 256.167969 78.332031 C 258.257812 78.757812 260.34375 79.179688 262.429688 79.605469 C 263.132812 79.742188 263.835938 79.882812 264.535156 80.019531 C 266.644531 80.589844 268.746094 81.15625 270.855469 81.730469 C 271.578125 81.957031 272.304688 82.183594 273.035156 82.40625 C 274.953125 83 276.878906 83.585938 278.796875 84.171875 C 279.144531 84.734375 279.710938 84.6875 280.253906 84.6875 C 280.136719 85.179688 279.65625 85.066406 279.355469 85.246094 C 278.472656 85.238281 277.589844 85.226562 276.707031 85.21875 C 274.078125 85.226562 271.449219 85.238281 268.816406 85.246094 C 267.9375 85.246094 267.054688 85.246094 266.171875 85.238281 C 263.371094 85.414062 260.5625 85.585938 257.761719 85.765625 C 256.707031 85.640625 255.660156 85.570312 254.640625 85.972656 C 251.816406 86.257812 248.996094 86.542969 246.175781 86.824219 C 245.070312 86.636719 244.046875 87.050781 243.003906 87.300781 C 239.800781 87.511719 236.625 87.949219 233.535156 88.863281 C 232.414062 88.683594 231.382812 88.988281 230.363281 89.402344 C 226.753906 89.847656 223.234375 90.738281 219.742188 91.753906 C 218.714844 92.023438 217.699219 92.296875 216.671875 92.570312 C 212.710938 93.453125 208.800781 94.53125 205.058594 96.136719 C 203.746094 96.222656 202.558594 96.722656 201.40625 97.3125 C 196.660156 98.78125 192.089844 100.664062 187.613281 102.796875 C 186.089844 103.484375 184.574219 104.171875 183.058594 104.851562 C 177.011719 107.707031 171.058594 110.722656 165.558594 114.546875 C 162.726562 115.976562 160.109375 117.726562 157.640625 119.710938 C 153.238281 122.460938 149.25 125.753906 145.328125 129.109375 C 135.484375 137.53125 126.695312 146.914062 119.546875 157.761719 C 117.742188 160.058594 116.15625 162.492188 114.898438 165.140625 C 111.53125 170.292969 108.804688 175.765625 106.636719 181.523438 C 105.878906 182.84375 105.234375 184.203125 105.027344 185.738281 C 103.320312 188.527344 103.136719 191.980469 101.148438 194.703125 C 101.136719 193.417969 101.585938 192.234375 101.359375 191.003906 C 101.875 190.003906 101.976562 188.941406 101.839844 187.839844 C 102.5625 184.507812 103.285156 181.171875 104.007812 177.839844 C 104.648438 176.691406 104.847656 175.429688 104.972656 174.148438 C 106.253906 170.28125 107.539062 166.421875 108.816406 162.558594 C 109.378906 161.183594 109.941406 159.8125 110.503906 158.4375 C 112.972656 153.070312 115.605469 147.789062 118.464844 142.625 C 120 140.160156 121.53125 137.699219 123.066406 135.234375 C 132.910156 121.257812 144.804688 109.347656 158.832031 99.5625 C 161.082031 98.148438 163.332031 96.734375 165.574219 95.3125 C 170.847656 92.617188 176.125 89.917969 181.394531 87.222656 C 182.957031 86.613281 184.527344 85.996094 186.097656 85.386719 C 189.96875 84.066406 193.84375 82.746094 197.714844 81.417969 C 199.019531 81.402344 200.246094 81.0625 201.398438 80.472656 C 204.738281 79.753906 208.074219 79.03125 211.414062 78.316406 C 212.484375 78.34375 213.582031 78.511719 214.566406 77.863281 C 217.566406 77.65625 220.582031 77.480469 223.53125 76.804688 C 224.40625 76.777344 225.285156 76.738281 226.160156 76.710938 C 228.789062 76.675781 231.417969 76.644531 234.046875 76.617188 C 234.929688 76.621094 235.8125 76.632812 236.695312 76.640625 C 239.140625 76.703125 241.585938 76.777344 244.035156 76.839844 C 244.867188 77.34375 245.785156 77.277344 246.699219 77.195312"/><path fill="#FFF" d="M 240.285156 134.648438 C 238.207031 141.648438 233.652344 146.195312 226.679688 148.34375 C 225.621094 148.308594 224.5625 148.261719 223.542969 148.652344 C 221.25 148.433594 218.953125 148.296875 216.71875 147.660156 C 216.175781 147.402344 215.628906 147.148438 215.085938 146.894531 C 213.683594 145.976562 212.277344 145.058594 210.875 144.140625 C 210.355469 143.613281 209.828125 143.085938 209.304688 142.558594 C 208.40625 141.15625 207.5 139.753906 206.597656 138.347656 C 206.296875 137.636719 205.988281 136.925781 205.679688 136.21875 C 205.253906 133.960938 205.007812 131.691406 205.023438 129.394531 C 205.191406 128.339844 205.363281 127.28125 205.527344 126.226562 C 207.59375 119.8125 211.886719 115.632812 218.253906 113.527344 C 219.308594 113.355469 220.367188 113.191406 221.421875 113.019531 C 223.714844 113 225.972656 113.292969 228.191406 113.84375 C 228.636719 113.984375 229.074219 114.121094 229.511719 114.257812 C 231.171875 115.28125 232.824219 116.304688 234.480469 117.324219 C 235.027344 117.863281 235.570312 118.410156 236.121094 118.941406 C 237.027344 120.320312 237.933594 121.695312 238.839844 123.070312 C 239.152344 123.78125 239.460938 124.492188 239.777344 125.203125 C 240.277344 127.445312 240.480469 129.71875 240.484375 132.011719 C 240.421875 132.894531 240.355469 133.769531 240.285156 134.648438"/></svg>