<svg xmlns="http://www.w3.org/2000/svg" width="187.5" viewBox="0 0 187.5 187.5" height="187.5" version="1.0"><path fill="#034078" d="M 174.210938 15.925781 C 169.050781 10.765625 162.320312 7.902344 155.597656 8.132812 C 150.199219 8.296875 145.378906 10.484375 141.953125 14.363281 L 85.246094 83.414062 C 73.414062 97.824219 60.734375 111.816406 47.5625 124.996094 L 20.667969 151.917969 L 16.523438 147.777344 C 15.996094 147.25 15.28125 146.953125 14.535156 146.953125 C 13.789062 146.953125 13.074219 147.25 12.546875 147.777344 L 7.523438 152.800781 C 6.050781 154.273438 5.320312 156.378906 5.515625 158.578125 C 5.695312 160.621094 6.640625 162.59375 8.175781 164.128906 L 26.011719 181.960938 C 27.785156 183.738281 30.074219 184.644531 32.269531 184.644531 C 34.160156 184.644531 35.976562 183.976562 37.335938 182.613281 L 42.359375 177.589844 C 43.460938 176.492188 43.460938 174.710938 42.359375 173.613281 L 38.21875 169.472656 L 65.140625 142.574219 C 78.3125 129.414062 92.300781 116.738281 106.71875 104.898438 L 175.851562 48.121094 C 179.652344 44.757812 181.839844 39.9375 182.007812 34.539062 C 182.214844 27.871094 179.371094 21.085938 174.210938 15.925781 Z M 33.359375 178.636719 C 32.71875 179.277344 31.171875 179.171875 29.988281 177.984375 L 12.152344 160.152344 C 10.964844 158.964844 10.855469 157.421875 11.5 156.777344 L 14.535156 153.742188 L 18.679688 157.886719 C 19.734375 158.941406 21.601562 158.941406 22.65625 157.886719 L 23.726562 156.816406 L 33.320312 166.414062 L 32.253906 167.480469 C 31.726562 168.007812 31.429688 168.722656 31.429688 169.472656 C 31.429688 170.214844 31.726562 170.933594 32.253906 171.460938 L 36.394531 175.601562 Z M 37.300781 162.4375 L 27.699219 152.839844 L 32.34375 148.1875 L 41.949219 157.792969 Z M 45.929688 153.816406 L 36.320312 144.210938 L 40.964844 139.5625 L 50.578125 149.175781 Z M 54.554688 145.199219 L 44.9375 135.582031 L 49.582031 130.933594 L 59.203125 140.554688 Z M 63.207031 136.601562 L 53.535156 126.929688 C 55.074219 125.375 56.597656 123.800781 58.121094 122.222656 L 67.914062 132.015625 C 66.335938 133.539062 64.761719 135.066406 63.207031 136.601562 Z M 172.203125 43.839844 L 103.148438 100.550781 C 92.464844 109.324219 82.019531 118.5625 71.957031 128.105469 L 62.03125 118.179688 C 71.582031 108.109375 80.820312 97.664062 89.59375 86.984375 L 146.234375 18.011719 C 148.554688 15.382812 151.941406 13.871094 155.773438 13.753906 C 160.917969 13.589844 166.167969 15.835938 170.234375 19.902344 C 174.300781 23.972656 176.542969 29.242188 176.386719 34.367188 C 176.265625 38.195312 174.753906 41.582031 172.203125 43.839844 Z M 51.675781 75.886719 C 71.8125 75.886719 88.191406 59.507812 88.191406 39.371094 C 88.191406 19.238281 71.8125 2.855469 51.675781 2.855469 C 31.539062 2.855469 15.160156 19.238281 15.160156 39.371094 C 15.160156 59.507812 31.539062 75.886719 51.675781 75.886719 Z M 74.367188 18.480469 C 79.441406 23.988281 82.566406 31.3125 82.566406 39.371094 C 82.566406 47.6875 79.246094 55.234375 73.882812 60.792969 C 67.558594 55.425781 63.921875 47.84375 63.921875 39.828125 C 63.921875 31.542969 67.734375 23.867188 74.367188 18.480469 Z M 51.675781 8.480469 C 58.59375 8.480469 64.964844 10.792969 70.121094 14.648438 C 62.578125 21.078125 58.296875 30.109375 58.296875 39.828125 C 58.296875 49.21875 62.375 58.117188 69.550781 64.519531 C 64.496094 68.121094 58.339844 70.261719 51.675781 70.261719 C 45.011719 70.261719 38.851562 68.121094 33.800781 64.519531 C 40.976562 58.117188 45.054688 49.21875 45.054688 39.828125 C 45.054688 30.109375 40.769531 21.078125 33.230469 14.652344 C 38.386719 10.792969 44.757812 8.480469 51.675781 8.480469 Z M 28.984375 18.480469 C 35.621094 23.867188 39.429688 31.542969 39.429688 39.828125 C 39.429688 47.84375 35.792969 55.425781 29.46875 60.792969 C 24.105469 55.234375 20.785156 47.6875 20.785156 39.371094 C 20.785156 31.3125 23.914062 23.988281 28.984375 18.480469 Z M 28.984375 18.480469"/></svg>