<svg xmlns="http://www.w3.org/2000/svg" width="187.5" viewBox="0 0 187.5 187.5" height="187.5" version="1.0"><path fill="#034078" d="M 124.558594 16.917969 L 112.753906 6.867188 L 112.277344 6.460938 L 110.324219 4.796875 L 110.003906 5.167969 C 107.292969 3.984375 102.4375 2.78125 93.839844 2.78125 C 85.242188 2.78125 80.390625 3.984375 77.675781 5.167969 L 77.355469 4.796875 L 75.40625 6.460938 L 74.929688 6.867188 L 63.121094 16.917969 L 36.789062 23.113281 L 1.324219 85.980469 L 34.769531 106.285156 L 44.292969 91.382812 L 44.292969 184.898438 L 143.390625 184.898438 L 143.390625 91.382812 L 152.914062 106.285156 L 186.363281 85.980469 L 150.894531 23.113281 Z M 111 13.5625 L 118.75 20.160156 C 114.414062 25.734375 107.90625 35.769531 104.171875 41.636719 L 97.585938 29.121094 Z M 93.839844 9.015625 C 99.777344 9.015625 103.449219 9.628906 105.636719 10.234375 L 93.839844 23.921875 L 82.046875 10.238281 C 84.230469 9.632812 87.90625 9.015625 93.839844 9.015625 Z M 76.683594 13.5625 L 90.09375 29.121094 L 83.507812 41.636719 C 79.773438 35.769531 73.265625 25.734375 68.929688 20.160156 Z M 154.886719 97.796875 L 143.390625 79.808594 L 143.390625 60.910156 L 137.15625 60.910156 L 137.15625 178.664062 L 50.527344 178.664062 L 50.527344 60.910156 L 44.292969 60.910156 L 44.292969 79.808594 L 32.796875 97.796875 L 9.71875 83.785156 L 40.875 28.554688 L 63.429688 23.246094 C 69.1875 30.367188 80.972656 49.3125 81.101562 49.515625 L 83.972656 54.140625 L 90.722656 41.3125 L 90.722656 63.015625 L 96.957031 63.015625 L 96.957031 41.308594 L 103.710938 54.136719 L 106.582031 49.515625 C 106.710938 49.3125 118.496094 30.367188 124.253906 23.246094 L 146.808594 28.554688 L 177.964844 83.785156 Z M 154.886719 97.796875"/></svg>