<svg xmlns="http://www.w3.org/2000/svg" xmlns:xlink="http://www.w3.org/1999/xlink" width="525" viewBox="0 0 525 105" height="105" version="1.0"><defs><g id="l"><path d="M 0.328125 0 L 0.328125 -0.953125 C 0.328125 -1.210938 0.457031 -1.375 0.71875 -1.4375 L 0.75 -1.453125 C 0.769531 -1.453125 0.789062 -1.453125 0.8125 -1.453125 C 0.832031 -1.453125 0.867188 -1.457031 0.921875 -1.46875 C 0.972656 -1.488281 1.019531 -1.503906 1.0625 -1.515625 C 1.09375 -1.515625 1.128906 -1.519531 1.171875 -1.53125 C 1.222656 -1.539062 1.285156 -1.550781 1.359375 -1.5625 C 1.429688 -1.570312 1.492188 -1.582031 1.546875 -1.59375 L 1.546875 -10 C 1.492188 -10.007812 1.429688 -10.019531 1.359375 -10.03125 C 1.285156 -10.039062 1.222656 -10.050781 1.171875 -10.0625 C 1.128906 -10.070312 1.09375 -10.078125 1.0625 -10.078125 C 1.019531 -10.085938 0.972656 -10.097656 0.921875 -10.109375 C 0.867188 -10.117188 0.832031 -10.125 0.8125 -10.125 C 0.789062 -10.125 0.769531 -10.128906 0.75 -10.140625 L 0.71875 -10.140625 C 0.457031 -10.203125 0.328125 -10.367188 0.328125 -10.640625 L 0.328125 -11.59375 L 5.53125 -11.59375 C 6.269531 -11.59375 6.914062 -11.519531 7.46875 -11.375 C 8.019531 -11.238281 8.460938 -11.03125 8.796875 -10.75 C 9.148438 -10.476562 9.40625 -10.148438 9.5625 -9.765625 C 9.71875 -9.390625 9.796875 -8.972656 9.796875 -8.515625 C 9.796875 -8.234375 9.757812 -7.96875 9.6875 -7.71875 C 9.625 -7.507812 9.492188 -7.273438 9.296875 -7.015625 C 9.140625 -6.816406 8.925781 -6.625 8.65625 -6.4375 C 8.425781 -6.28125 8.117188 -6.132812 7.734375 -6 C 9.328125 -5.644531 10.125 -4.78125 10.125 -3.40625 C 10.125 -2.90625 10.03125 -2.453125 9.84375 -2.046875 C 9.632812 -1.617188 9.363281 -1.257812 9.03125 -0.96875 C 8.695312 -0.6875 8.253906 -0.453125 7.703125 -0.265625 C 7.191406 -0.0859375 6.597656 0 5.921875 0 Z M 3.6875 -1.6875 L 5.890625 -1.6875 C 6.285156 -1.6875 6.617188 -1.734375 6.890625 -1.828125 C 7.148438 -1.910156 7.363281 -2.039062 7.53125 -2.21875 C 7.707031 -2.394531 7.828125 -2.578125 7.890625 -2.765625 C 7.960938 -2.960938 8 -3.191406 8 -3.453125 C 8 -3.679688 7.957031 -3.910156 7.875 -4.140625 C 7.78125 -4.347656 7.65625 -4.519531 7.5 -4.65625 C 7.320312 -4.789062 7.101562 -4.894531 6.84375 -4.96875 C 6.582031 -5.039062 6.257812 -5.078125 5.875 -5.078125 L 3.6875 -5.078125 Z M 3.6875 -6.578125 L 5.421875 -6.578125 C 6.160156 -6.578125 6.710938 -6.707031 7.078125 -6.96875 C 7.453125 -7.238281 7.640625 -7.664062 7.640625 -8.25 C 7.640625 -8.84375 7.46875 -9.273438 7.125 -9.546875 C 6.789062 -9.796875 6.257812 -9.921875 5.53125 -9.921875 L 3.6875 -9.921875 Z M 3.6875 -6.578125"/></g><g id="m"><path d="M 0.328125 0 L 0.328125 -0.953125 C 0.328125 -1.210938 0.457031 -1.375 0.71875 -1.4375 L 0.75 -1.453125 C 0.769531 -1.453125 0.789062 -1.453125 0.8125 -1.453125 C 0.832031 -1.453125 0.867188 -1.457031 0.921875 -1.46875 C 0.972656 -1.488281 1.019531 -1.503906 1.0625 -1.515625 C 1.09375 -1.515625 1.128906 -1.519531 1.171875 -1.53125 C 1.222656 -1.539062 1.285156 -1.550781 1.359375 -1.5625 C 1.429688 -1.570312 1.492188 -1.582031 1.546875 -1.59375 L 1.546875 -10 C 1.492188 -10.007812 1.429688 -10.019531 1.359375 -10.03125 C 1.285156 -10.039062 1.222656 -10.050781 1.171875 -10.0625 C 1.128906 -10.070312 1.09375 -10.078125 1.0625 -10.078125 C 1.019531 -10.085938 0.972656 -10.097656 0.921875 -10.109375 C 0.867188 -10.117188 0.832031 -10.125 0.8125 -10.125 C 0.789062 -10.125 0.769531 -10.128906 0.75 -10.140625 L 0.71875 -10.140625 C 0.457031 -10.203125 0.328125 -10.367188 0.328125 -10.640625 L 0.328125 -11.59375 L 8.84375 -11.59375 L 8.84375 -8.546875 L 7.921875 -8.546875 C 7.722656 -8.546875 7.597656 -8.644531 7.546875 -8.84375 C 7.484375 -9.34375 7.445312 -9.6875 7.4375 -9.875 L 3.703125 -9.875 L 3.703125 -6.671875 L 7.625 -6.671875 L 7.625 -5 L 3.703125 -5 L 3.703125 -1.734375 L 7.4375 -1.734375 C 7.445312 -1.898438 7.484375 -2.238281 7.546875 -2.75 C 7.597656 -2.957031 7.722656 -3.0625 7.921875 -3.0625 L 8.84375 -3.0625 L 8.84375 0 Z M 0.328125 0"/></g><g id="o"><path d="M 0.265625 -8.84375 L 0.265625 -11.59375 L 9.890625 -11.59375 L 9.890625 -8.84375 L 8.984375 -8.84375 C 8.773438 -8.84375 8.644531 -8.945312 8.59375 -9.15625 C 8.550781 -9.382812 8.523438 -9.601562 8.515625 -9.8125 L 6.15625 -9.8125 L 6.15625 -1.59375 C 6.21875 -1.582031 6.300781 -1.566406 6.40625 -1.546875 C 6.507812 -1.523438 6.578125 -1.507812 6.609375 -1.5 C 6.648438 -1.5 6.695312 -1.488281 6.75 -1.46875 C 6.8125 -1.457031 6.847656 -1.453125 6.859375 -1.453125 C 6.878906 -1.453125 6.898438 -1.445312 6.921875 -1.4375 C 6.941406 -1.4375 6.953125 -1.4375 6.953125 -1.4375 C 7.234375 -1.375 7.375 -1.210938 7.375 -0.953125 L 7.375 0 L 2.78125 0 L 2.78125 -0.953125 C 2.78125 -1.210938 2.914062 -1.375 3.1875 -1.4375 L 3.21875 -1.453125 C 3.238281 -1.453125 3.257812 -1.453125 3.28125 -1.453125 C 3.300781 -1.453125 3.335938 -1.457031 3.390625 -1.46875 C 3.441406 -1.488281 3.484375 -1.5 3.515625 -1.5 C 3.554688 -1.507812 3.628906 -1.523438 3.734375 -1.546875 C 3.835938 -1.566406 3.921875 -1.582031 3.984375 -1.59375 L 3.984375 -9.828125 L 1.640625 -9.828125 C 1.609375 -9.535156 1.582031 -9.3125 1.5625 -9.15625 C 1.507812 -8.945312 1.382812 -8.84375 1.1875 -8.84375 Z M 0.265625 -8.84375"/></g><g id="p"><path d="M 0.328125 0 L 0.328125 -0.953125 C 0.328125 -1.210938 0.457031 -1.375 0.71875 -1.4375 L 0.75 -1.453125 C 0.769531 -1.453125 0.789062 -1.453125 0.8125 -1.453125 C 0.832031 -1.453125 0.867188 -1.457031 0.921875 -1.46875 C 0.972656 -1.488281 1.019531 -1.503906 1.0625 -1.515625 C 1.09375 -1.515625 1.128906 -1.519531 1.171875 -1.53125 C 1.222656 -1.539062 1.285156 -1.550781 1.359375 -1.5625 C 1.429688 -1.570312 1.492188 -1.582031 1.546875 -1.59375 L 1.546875 -10 C 1.492188 -10.007812 1.429688 -10.019531 1.359375 -10.03125 C 1.285156 -10.039062 1.222656 -10.050781 1.171875 -10.0625 C 1.128906 -10.070312 1.09375 -10.078125 1.0625 -10.078125 C 1.019531 -10.085938 0.972656 -10.097656 0.921875 -10.109375 C 0.867188 -10.117188 0.832031 -10.125 0.8125 -10.125 C 0.78125 -10.132812 0.75 -10.140625 0.71875 -10.140625 C 0.457031 -10.203125 0.328125 -10.367188 0.328125 -10.640625 L 0.328125 -11.59375 L 4.921875 -11.59375 L 4.921875 -10.640625 C 4.921875 -10.367188 4.789062 -10.203125 4.53125 -10.140625 C 4.488281 -10.140625 4.453125 -10.132812 4.421875 -10.125 C 4.410156 -10.125 4.378906 -10.117188 4.328125 -10.109375 C 4.273438 -10.097656 4.226562 -10.085938 4.1875 -10.078125 C 4.15625 -10.078125 4.113281 -10.070312 4.0625 -10.0625 C 4.007812 -10.050781 3.945312 -10.039062 3.875 -10.03125 C 3.800781 -10.019531 3.742188 -10.007812 3.703125 -10 L 3.703125 -6.609375 L 9.140625 -6.609375 L 9.140625 -10 C 9.078125 -10.007812 8.992188 -10.023438 8.890625 -10.046875 C 8.785156 -10.066406 8.710938 -10.078125 8.671875 -10.078125 C 8.554688 -10.097656 8.476562 -10.113281 8.4375 -10.125 C 8.414062 -10.125 8.394531 -10.125 8.375 -10.125 C 8.351562 -10.132812 8.34375 -10.140625 8.34375 -10.140625 C 8.070312 -10.203125 7.9375 -10.367188 7.9375 -10.640625 L 7.9375 -11.59375 L 12.515625 -11.59375 L 12.515625 -10.640625 C 12.515625 -10.367188 12.382812 -10.203125 12.125 -10.140625 L 12.09375 -10.140625 C 12.070312 -10.128906 12.050781 -10.125 12.03125 -10.125 C 12.007812 -10.125 11.96875 -10.117188 11.90625 -10.109375 C 11.851562 -10.097656 11.804688 -10.085938 11.765625 -10.078125 C 11.734375 -10.078125 11.664062 -10.066406 11.5625 -10.046875 C 11.457031 -10.023438 11.375 -10.007812 11.3125 -10 L 11.3125 -1.59375 C 11.375 -1.582031 11.457031 -1.566406 11.5625 -1.546875 C 11.664062 -1.523438 11.734375 -1.507812 11.765625 -1.5 C 11.804688 -1.5 11.851562 -1.488281 11.90625 -1.46875 C 11.96875 -1.457031 12.007812 -1.453125 12.03125 -1.453125 C 12.050781 -1.453125 12.070312 -1.453125 12.09375 -1.453125 L 12.125 -1.4375 C 12.382812 -1.375 12.515625 -1.210938 12.515625 -0.953125 L 12.515625 0 L 7.9375 0 L 7.9375 -0.953125 C 7.9375 -1.210938 8.070312 -1.375 8.34375 -1.4375 C 8.375 -1.4375 8.40625 -1.441406 8.4375 -1.453125 C 8.5 -1.472656 8.578125 -1.492188 8.671875 -1.515625 C 8.710938 -1.515625 8.785156 -1.523438 8.890625 -1.546875 C 8.992188 -1.566406 9.078125 -1.582031 9.140625 -1.59375 L 9.140625 -5.0625 L 3.703125 -5.0625 L 3.703125 -1.59375 C 3.742188 -1.582031 3.800781 -1.570312 3.875 -1.5625 C 3.945312 -1.550781 4.007812 -1.539062 4.0625 -1.53125 C 4.113281 -1.519531 4.15625 -1.515625 4.1875 -1.515625 C 4.226562 -1.503906 4.273438 -1.488281 4.328125 -1.46875 C 4.378906 -1.457031 4.410156 -1.453125 4.421875 -1.453125 C 4.453125 -1.441406 4.488281 -1.4375 4.53125 -1.4375 C 4.789062 -1.375 4.921875 -1.210938 4.921875 -0.953125 L 4.921875 0 Z M 0.328125 0"/></g><g id="q"><path d="M 0.296875 -0.484375 L 0.296875 -3.453125 L 1.203125 -3.453125 C 1.398438 -3.453125 1.523438 -3.359375 1.578125 -3.171875 C 1.609375 -3.035156 1.65625 -2.59375 1.71875 -1.84375 C 2.175781 -1.707031 2.90625 -1.640625 3.90625 -1.640625 C 4.53125 -1.640625 5.007812 -1.78125 5.34375 -2.0625 C 5.664062 -2.34375 5.828125 -2.757812 5.828125 -3.3125 C 5.828125 -3.613281 5.753906 -3.867188 5.609375 -4.078125 C 5.472656 -4.265625 5.269531 -4.425781 5 -4.5625 C 4.695312 -4.707031 4.414062 -4.816406 4.15625 -4.890625 C 3.570312 -5.054688 3.242188 -5.15625 3.171875 -5.1875 C 2.898438 -5.269531 2.578125 -5.394531 2.203125 -5.5625 C 1.890625 -5.695312 1.597656 -5.894531 1.328125 -6.15625 C 1.066406 -6.394531 0.867188 -6.691406 0.734375 -7.046875 C 0.578125 -7.453125 0.5 -7.898438 0.5 -8.390625 C 0.5 -8.828125 0.582031 -9.238281 0.75 -9.625 C 0.90625 -10.019531 1.148438 -10.375 1.484375 -10.6875 C 1.773438 -10.96875 2.171875 -11.210938 2.671875 -11.421875 C 3.128906 -11.617188 3.671875 -11.71875 4.296875 -11.71875 C 5.421875 -11.71875 6.523438 -11.5 7.609375 -11.0625 L 7.609375 -8.09375 L 6.703125 -8.09375 C 6.503906 -8.09375 6.378906 -8.195312 6.328125 -8.40625 C 6.296875 -8.539062 6.25 -8.972656 6.1875 -9.703125 C 5.8125 -9.867188 5.1875 -9.953125 4.3125 -9.953125 C 4.019531 -9.953125 3.765625 -9.921875 3.546875 -9.859375 C 3.304688 -9.773438 3.117188 -9.675781 2.984375 -9.5625 C 2.816406 -9.414062 2.695312 -9.257812 2.625 -9.09375 C 2.550781 -8.925781 2.515625 -8.726562 2.515625 -8.5 C 2.515625 -8.25 2.59375 -8.019531 2.75 -7.8125 C 2.894531 -7.625 3.09375 -7.472656 3.34375 -7.359375 C 3.6875 -7.191406 3.976562 -7.070312 4.21875 -7 C 4.34375 -6.96875 4.523438 -6.910156 4.765625 -6.828125 C 5.015625 -6.742188 5.160156 -6.695312 5.203125 -6.6875 C 5.359375 -6.632812 5.679688 -6.5 6.171875 -6.28125 C 6.484375 -6.144531 6.769531 -5.953125 7.03125 -5.703125 C 7.3125 -5.441406 7.515625 -5.160156 7.640625 -4.859375 C 7.796875 -4.535156 7.875 -4.125 7.875 -3.625 C 7.875 -3.113281 7.78125 -2.625 7.59375 -2.15625 C 7.414062 -1.6875 7.15625 -1.289062 6.8125 -0.96875 C 6.46875 -0.625 6.046875 -0.351562 5.546875 -0.15625 C 5.078125 0.03125 4.507812 0.125 3.84375 0.125 L 3.609375 0.125 C 2.585938 0.125 1.484375 -0.078125 0.296875 -0.484375 Z M 0.296875 -0.484375"/></g><g id="r"><path d="M 0.234375 -5.796875 C 0.234375 -6.679688 0.367188 -7.46875 0.640625 -8.15625 C 0.929688 -8.882812 1.332031 -9.507812 1.84375 -10.03125 C 2.363281 -10.570312 2.984375 -10.984375 3.703125 -11.265625 C 4.441406 -11.566406 5.242188 -11.71875 6.109375 -11.71875 C 6.992188 -11.71875 7.789062 -11.566406 8.5 -11.265625 C 9.25 -10.953125 9.867188 -10.539062 10.359375 -10.03125 C 10.847656 -9.519531 11.242188 -8.894531 11.546875 -8.15625 C 11.828125 -7.4375 11.96875 -6.648438 11.96875 -5.796875 C 11.96875 -4.929688 11.828125 -4.140625 11.546875 -3.421875 C 11.242188 -2.691406 10.847656 -2.070312 10.359375 -1.5625 C 9.835938 -1.03125 9.21875 -0.617188 8.5 -0.328125 C 7.75 -0.0234375 6.953125 0.125 6.109375 0.125 C 5.242188 0.125 4.441406 -0.0234375 3.703125 -0.328125 C 2.984375 -0.609375 2.363281 -1.019531 1.84375 -1.5625 C 1.332031 -2.09375 0.929688 -2.710938 0.640625 -3.421875 C 0.367188 -4.117188 0.234375 -4.910156 0.234375 -5.796875 Z M 2.421875 -5.796875 C 2.421875 -5.148438 2.503906 -4.582031 2.671875 -4.09375 C 2.847656 -3.570312 3.09375 -3.140625 3.40625 -2.796875 C 3.71875 -2.460938 4.109375 -2.191406 4.578125 -1.984375 C 4.992188 -1.804688 5.503906 -1.71875 6.109375 -1.71875 C 6.703125 -1.71875 7.207031 -1.804688 7.625 -1.984375 C 8.082031 -2.179688 8.46875 -2.453125 8.78125 -2.796875 C 9.113281 -3.160156 9.351562 -3.59375 9.5 -4.09375 C 9.675781 -4.65625 9.765625 -5.222656 9.765625 -5.796875 C 9.765625 -6.359375 9.675781 -6.925781 9.5 -7.5 C 9.351562 -7.988281 9.113281 -8.414062 8.78125 -8.78125 C 8.457031 -9.132812 8.070312 -9.410156 7.625 -9.609375 C 7.207031 -9.785156 6.703125 -9.875 6.109375 -9.875 C 5.503906 -9.875 4.992188 -9.785156 4.578125 -9.609375 C 4.117188 -9.410156 3.726562 -9.132812 3.40625 -8.78125 C 3.09375 -8.445312 2.847656 -8.019531 2.671875 -7.5 C 2.503906 -7 2.421875 -6.429688 2.421875 -5.796875 Z M 2.421875 -5.796875"/></g><g id="s"><path d="M 0.328125 0 L 0.328125 -0.953125 C 0.328125 -1.210938 0.457031 -1.375 0.71875 -1.4375 C 0.75 -1.4375 0.78125 -1.441406 0.8125 -1.453125 C 0.882812 -1.472656 0.96875 -1.492188 1.0625 -1.515625 C 1.09375 -1.515625 1.128906 -1.519531 1.171875 -1.53125 C 1.222656 -1.539062 1.285156 -1.550781 1.359375 -1.5625 C 1.429688 -1.570312 1.492188 -1.582031 1.546875 -1.59375 L 1.546875 -10 C 1.492188 -10.007812 1.429688 -10.019531 1.359375 -10.03125 C 1.285156 -10.039062 1.222656 -10.050781 1.171875 -10.0625 C 1.128906 -10.070312 1.09375 -10.078125 1.0625 -10.078125 C 1.019531 -10.085938 0.972656 -10.097656 0.921875 -10.109375 C 0.867188 -10.117188 0.832031 -10.125 0.8125 -10.125 C 0.78125 -10.132812 0.75 -10.140625 0.71875 -10.140625 C 0.457031 -10.203125 0.328125 -10.367188 0.328125 -10.640625 L 0.328125 -11.59375 L 4.90625 -11.59375 L 4.90625 -10.640625 C 4.90625 -10.367188 4.769531 -10.203125 4.5 -10.140625 C 4.46875 -10.140625 4.4375 -10.132812 4.40625 -10.125 C 4.363281 -10.113281 4.285156 -10.097656 4.171875 -10.078125 C 4.128906 -10.078125 4.050781 -10.066406 3.9375 -10.046875 C 3.820312 -10.023438 3.738281 -10.007812 3.6875 -10 L 3.6875 -1.78125 L 7.421875 -1.78125 C 7.453125 -2.207031 7.472656 -2.4375 7.484375 -2.46875 C 7.523438 -2.664062 7.648438 -2.765625 7.859375 -2.765625 L 8.71875 -2.765625 L 8.71875 0 Z M 0.328125 0"/></g><g id="t"><path d="M 0.25 -10.640625 L 0.25 -11.59375 L 4.890625 -11.59375 L 4.890625 -10.640625 C 4.890625 -10.367188 4.753906 -10.203125 4.484375 -10.140625 C 4.484375 -10.140625 4.46875 -10.132812 4.4375 -10.125 C 4.414062 -10.125 4.394531 -10.125 4.375 -10.125 C 4.363281 -10.125 4.328125 -10.117188 4.265625 -10.109375 C 4.203125 -10.097656 4.148438 -10.085938 4.109375 -10.078125 C 4.097656 -10.078125 3.929688 -10.050781 3.609375 -10 L 3.609375 -4.671875 C 3.609375 -4.179688 3.664062 -3.773438 3.78125 -3.453125 C 3.882812 -3.128906 4.0625 -2.820312 4.3125 -2.53125 C 4.53125 -2.289062 4.800781 -2.097656 5.125 -1.953125 C 5.445312 -1.816406 5.820312 -1.75 6.25 -1.75 C 6.675781 -1.75 7.050781 -1.816406 7.375 -1.953125 C 7.726562 -2.109375 8.007812 -2.300781 8.21875 -2.53125 C 8.425781 -2.769531 8.59375 -3.070312 8.71875 -3.4375 C 8.851562 -3.863281 8.921875 -4.269531 8.921875 -4.65625 L 8.921875 -10 C 8.617188 -10.050781 8.453125 -10.078125 8.421875 -10.078125 C 8.378906 -10.085938 8.328125 -10.097656 8.265625 -10.109375 C 8.203125 -10.117188 8.160156 -10.125 8.140625 -10.125 C 8.117188 -10.125 8.097656 -10.128906 8.078125 -10.140625 L 8.03125 -10.140625 C 7.757812 -10.203125 7.625 -10.367188 7.625 -10.640625 L 7.625 -11.59375 L 12.28125 -11.59375 L 12.28125 -10.640625 C 12.28125 -10.367188 12.144531 -10.203125 11.875 -10.140625 L 11.84375 -10.140625 C 11.8125 -10.128906 11.785156 -10.125 11.765625 -10.125 C 11.753906 -10.125 11.722656 -10.117188 11.671875 -10.109375 C 11.617188 -10.097656 11.578125 -10.085938 11.546875 -10.078125 C 11.515625 -10.078125 11.472656 -10.070312 11.421875 -10.0625 C 11.367188 -10.050781 11.304688 -10.039062 11.234375 -10.03125 C 11.160156 -10.019531 11.101562 -10.007812 11.0625 -10 L 11.0625 -4.65625 C 11.0625 -3.945312 10.945312 -3.304688 10.71875 -2.734375 C 10.488281 -2.140625 10.175781 -1.632812 9.78125 -1.21875 C 9.351562 -0.800781 8.847656 -0.472656 8.265625 -0.234375 C 7.679688 0.00390625 7.007812 0.125 6.25 0.125 C 5.488281 0.125 4.820312 0.00390625 4.25 -0.234375 C 3.664062 -0.460938 3.160156 -0.789062 2.734375 -1.21875 C 2.328125 -1.644531 2.007812 -2.148438 1.78125 -2.734375 C 1.5625 -3.285156 1.453125 -3.925781 1.453125 -4.65625 L 1.453125 -10 C 1.398438 -10.007812 1.316406 -10.023438 1.203125 -10.046875 C 1.097656 -10.066406 1.023438 -10.078125 0.984375 -10.078125 C 0.941406 -10.085938 0.894531 -10.097656 0.84375 -10.109375 C 0.789062 -10.117188 0.753906 -10.125 0.734375 -10.125 C 0.710938 -10.125 0.691406 -10.128906 0.671875 -10.140625 L 0.640625 -10.140625 C 0.378906 -10.203125 0.25 -10.367188 0.25 -10.640625 Z M 0.25 -10.640625"/></g><g id="u"><path d="M 0.328125 0 L 0.328125 -0.953125 C 0.328125 -1.210938 0.457031 -1.375 0.71875 -1.4375 L 0.75 -1.453125 C 0.769531 -1.453125 0.789062 -1.453125 0.8125 -1.453125 C 0.882812 -1.472656 0.96875 -1.492188 1.0625 -1.515625 C 1.09375 -1.515625 1.128906 -1.519531 1.171875 -1.53125 C 1.222656 -1.539062 1.285156 -1.550781 1.359375 -1.5625 C 1.429688 -1.570312 1.492188 -1.582031 1.546875 -1.59375 L 1.546875 -10 C 1.492188 -10.007812 1.429688 -10.019531 1.359375 -10.03125 C 1.285156 -10.039062 1.222656 -10.050781 1.171875 -10.0625 C 1.128906 -10.070312 1.09375 -10.078125 1.0625 -10.078125 C 1.019531 -10.085938 0.972656 -10.097656 0.921875 -10.109375 C 0.867188 -10.117188 0.832031 -10.125 0.8125 -10.125 C 0.78125 -10.132812 0.75 -10.140625 0.71875 -10.140625 C 0.457031 -10.203125 0.328125 -10.367188 0.328125 -10.640625 L 0.328125 -11.59375 L 4.90625 -11.59375 L 4.90625 -10.640625 C 4.90625 -10.367188 4.769531 -10.203125 4.5 -10.140625 C 4.5 -10.140625 4.488281 -10.132812 4.46875 -10.125 C 4.445312 -10.125 4.425781 -10.125 4.40625 -10.125 C 4.394531 -10.125 4.359375 -10.117188 4.296875 -10.109375 C 4.242188 -10.097656 4.195312 -10.085938 4.15625 -10.078125 C 4.125 -10.078125 4.054688 -10.066406 3.953125 -10.046875 C 3.847656 -10.023438 3.765625 -10.007812 3.703125 -10 L 3.703125 -1.59375 C 3.765625 -1.582031 3.847656 -1.566406 3.953125 -1.546875 C 4.054688 -1.523438 4.125 -1.507812 4.15625 -1.5 C 4.195312 -1.5 4.242188 -1.488281 4.296875 -1.46875 C 4.359375 -1.457031 4.394531 -1.453125 4.40625 -1.453125 C 4.425781 -1.453125 4.445312 -1.445312 4.46875 -1.4375 C 4.488281 -1.4375 4.5 -1.4375 4.5 -1.4375 C 4.769531 -1.375 4.90625 -1.210938 4.90625 -0.953125 L 4.90625 0 Z M 0.328125 0"/></g><g id="v"><path d="M 0.328125 0 L 0.328125 -0.953125 C 0.328125 -1.210938 0.457031 -1.375 0.71875 -1.4375 C 0.75 -1.4375 0.78125 -1.441406 0.8125 -1.453125 C 0.882812 -1.472656 0.96875 -1.492188 1.0625 -1.515625 C 1.09375 -1.515625 1.128906 -1.519531 1.171875 -1.53125 C 1.222656 -1.539062 1.285156 -1.550781 1.359375 -1.5625 C 1.429688 -1.570312 1.492188 -1.582031 1.546875 -1.59375 L 1.546875 -10 C 1.492188 -10.007812 1.429688 -10.019531 1.359375 -10.03125 C 1.285156 -10.039062 1.222656 -10.050781 1.171875 -10.0625 C 1.128906 -10.070312 1.09375 -10.078125 1.0625 -10.078125 C 1.019531 -10.085938 0.972656 -10.097656 0.921875 -10.109375 C 0.867188 -10.117188 0.832031 -10.125 0.8125 -10.125 C 0.789062 -10.125 0.769531 -10.128906 0.75 -10.140625 L 0.71875 -10.140625 C 0.457031 -10.203125 0.328125 -10.367188 0.328125 -10.640625 L 0.328125 -11.59375 L 2.65625 -11.59375 C 2.6875 -11.59375 2.726562 -11.585938 2.78125 -11.578125 C 2.84375 -11.578125 2.882812 -11.578125 2.90625 -11.578125 C 2.96875 -11.578125 3.023438 -11.5625 3.078125 -11.53125 C 3.117188 -11.507812 3.164062 -11.472656 3.21875 -11.421875 C 3.238281 -11.398438 3.289062 -11.335938 3.375 -11.234375 L 9.46875 -3.484375 C 9.46875 -3.546875 9.453125 -3.734375 9.421875 -4.046875 C 9.410156 -4.160156 9.40625 -4.332031 9.40625 -4.5625 L 9.40625 -10 C 8.738281 -10.09375 8.394531 -10.140625 8.375 -10.140625 C 8.101562 -10.203125 7.96875 -10.367188 7.96875 -10.640625 L 7.96875 -11.59375 L 12.515625 -11.59375 L 12.515625 -10.640625 C 12.515625 -10.367188 12.382812 -10.203125 12.125 -10.140625 L 12.09375 -10.140625 C 12.070312 -10.128906 12.050781 -10.125 12.03125 -10.125 C 12.007812 -10.125 11.96875 -10.117188 11.90625 -10.109375 C 11.851562 -10.097656 11.804688 -10.085938 11.765625 -10.078125 C 11.734375 -10.078125 11.664062 -10.066406 11.5625 -10.046875 C 11.457031 -10.023438 11.375 -10.007812 11.3125 -10 L 11.3125 0 L 10.203125 0 C 10.035156 0 9.894531 -0.0234375 9.78125 -0.078125 C 9.664062 -0.128906 9.550781 -0.226562 9.4375 -0.375 L 3.375 -8.078125 C 3.394531 -7.835938 3.40625 -7.671875 3.40625 -7.578125 C 3.40625 -7.523438 3.40625 -7.445312 3.40625 -7.34375 C 3.414062 -7.238281 3.421875 -7.160156 3.421875 -7.109375 L 3.421875 -1.59375 C 3.609375 -1.5625 3.789062 -1.53125 3.96875 -1.5 C 4.15625 -1.476562 4.28125 -1.460938 4.34375 -1.453125 C 4.414062 -1.441406 4.457031 -1.4375 4.46875 -1.4375 C 4.738281 -1.375 4.875 -1.210938 4.875 -0.953125 L 4.875 0 Z M 0.328125 0"/></g><g id="w"><path d="M 0.421875 -1.21875 C 0.421875 -1.394531 0.445312 -1.535156 0.5 -1.640625 C 0.582031 -1.804688 0.65625 -1.921875 0.71875 -1.984375 C 0.800781 -2.066406 0.925781 -2.144531 1.09375 -2.21875 C 1.207031 -2.269531 1.367188 -2.296875 1.578125 -2.296875 C 1.785156 -2.296875 1.957031 -2.265625 2.09375 -2.203125 C 2.238281 -2.140625 2.363281 -2.035156 2.46875 -1.890625 C 2.570312 -1.753906 2.644531 -1.609375 2.6875 -1.453125 C 2.738281 -1.285156 2.765625 -1.117188 2.765625 -0.953125 C 2.765625 -0.671875 2.726562 -0.394531 2.65625 -0.125 C 2.613281 0.03125 2.5 0.304688 2.3125 0.703125 C 2.164062 0.992188 1.984375 1.273438 1.765625 1.546875 C 1.535156 1.828125 1.285156 2.070312 1.015625 2.28125 L 0.65625 1.953125 C 0.5625 1.878906 0.515625 1.785156 0.515625 1.671875 C 0.515625 1.617188 0.53125 1.570312 0.5625 1.53125 C 0.613281 1.445312 0.648438 1.394531 0.671875 1.375 C 0.710938 1.34375 0.785156 1.265625 0.890625 1.140625 C 0.898438 1.117188 0.925781 1.085938 0.96875 1.046875 C 1.007812 1.003906 1.046875 0.960938 1.078125 0.921875 C 1.109375 0.890625 1.132812 0.851562 1.15625 0.8125 C 1.28125 0.601562 1.351562 0.476562 1.375 0.4375 C 1.46875 0.238281 1.523438 0.0820312 1.546875 -0.03125 C 1.359375 -0.03125 1.207031 -0.0546875 1.09375 -0.109375 C 0.9375 -0.179688 0.8125 -0.269531 0.71875 -0.375 C 0.632812 -0.476562 0.5625 -0.597656 0.5 -0.734375 C 0.445312 -0.847656 0.421875 -1.007812 0.421875 -1.21875 Z M 0.421875 -1.21875"/></g><g id="x"><path d="M 0.328125 0 L 0.328125 -0.953125 C 0.328125 -1.210938 0.457031 -1.375 0.71875 -1.4375 L 0.75 -1.453125 C 0.769531 -1.453125 0.789062 -1.453125 0.8125 -1.453125 C 0.882812 -1.472656 0.96875 -1.492188 1.0625 -1.515625 C 1.09375 -1.515625 1.128906 -1.519531 1.171875 -1.53125 C 1.222656 -1.539062 1.285156 -1.550781 1.359375 -1.5625 C 1.429688 -1.570312 1.492188 -1.582031 1.546875 -1.59375 L 1.546875 -10 C 1.492188 -10.007812 1.429688 -10.019531 1.359375 -10.03125 C 1.285156 -10.039062 1.222656 -10.050781 1.171875 -10.0625 C 1.128906 -10.070312 1.09375 -10.078125 1.0625 -10.078125 C 1.019531 -10.085938 0.972656 -10.097656 0.921875 -10.109375 C 0.867188 -10.117188 0.832031 -10.125 0.8125 -10.125 C 0.78125 -10.132812 0.75 -10.140625 0.71875 -10.140625 C 0.457031 -10.203125 0.328125 -10.367188 0.328125 -10.640625 L 0.328125 -11.59375 L 5.109375 -11.59375 C 5.878906 -11.59375 6.550781 -11.5 7.125 -11.3125 C 7.675781 -11.132812 8.144531 -10.878906 8.53125 -10.546875 C 8.882812 -10.234375 9.15625 -9.847656 9.34375 -9.390625 C 9.53125 -8.941406 9.625 -8.445312 9.625 -7.90625 C 9.625 -7.320312 9.523438 -6.800781 9.328125 -6.34375 C 9.128906 -5.863281 8.851562 -5.460938 8.5 -5.140625 C 8.144531 -4.828125 7.671875 -4.566406 7.078125 -4.359375 C 6.554688 -4.179688 5.898438 -4.09375 5.109375 -4.09375 L 3.6875 -4.09375 L 3.6875 -1.59375 C 3.738281 -1.582031 3.820312 -1.566406 3.9375 -1.546875 C 4.050781 -1.523438 4.128906 -1.515625 4.171875 -1.515625 C 4.203125 -1.503906 4.242188 -1.488281 4.296875 -1.46875 C 4.359375 -1.457031 4.394531 -1.453125 4.40625 -1.453125 C 4.425781 -1.453125 4.445312 -1.445312 4.46875 -1.4375 C 4.488281 -1.4375 4.5 -1.4375 4.5 -1.4375 C 4.769531 -1.375 4.90625 -1.210938 4.90625 -0.953125 L 4.90625 0 Z M 3.6875 -5.765625 L 5.109375 -5.765625 C 5.492188 -5.765625 5.835938 -5.8125 6.140625 -5.90625 C 6.453125 -6.007812 6.695312 -6.148438 6.875 -6.328125 C 7.070312 -6.503906 7.21875 -6.726562 7.3125 -7 C 7.40625 -7.257812 7.453125 -7.5625 7.453125 -7.90625 C 7.453125 -8.195312 7.40625 -8.472656 7.3125 -8.734375 C 7.21875 -8.984375 7.070312 -9.195312 6.875 -9.375 C 6.695312 -9.539062 6.457031 -9.675781 6.15625 -9.78125 C 5.84375 -9.875 5.492188 -9.921875 5.109375 -9.921875 L 3.6875 -9.921875 Z M 3.6875 -5.765625"/></g><g id="b"><path d="M 22.046875 0.511719 C 29.648438 0.511719 36.230469 -3.769531 39.488281 -10.03125 L 32.203125 -13.800781 C 30.351562 -10.160156 26.582031 -7.730469 22.046875 -7.730469 C 15.589844 -7.730469 10.671875 -12.714844 10.671875 -19.167969 C 10.671875 -25.625 15.589844 -30.605469 22.046875 -30.605469 C 26.582031 -30.605469 30.351562 -28.179688 32.203125 -24.535156 L 39.488281 -28.308594 C 36.230469 -34.570312 29.648438 -38.851562 22.046875 -38.851562 C 11.183594 -38.851562 2.363281 -30.03125 2.363281 -19.167969 C 2.363281 -8.308594 11.183594 0.511719 22.046875 0.511719 Z M 22.046875 0.511719"/></g><g id="c"><path d="M 27.796875 -38.339844 L 27.796875 -22.941406 L 12.203125 -22.941406 L 12.203125 -38.339844 L 3.769531 -38.339844 L 3.769531 0 L 12.203125 0 L 12.203125 -15.464844 L 27.796875 -15.464844 L 27.796875 0 L 36.167969 0 L 36.167969 -38.339844 Z M 27.796875 -38.339844"/></g><g id="d"><path d="M 27.222656 0 L 36.230469 0 L 22.429688 -38.339844 L 12.972656 -38.339844 L -0.832031 0 L 8.179688 0 L 10.542969 -7.21875 L 24.855469 -7.21875 Z M 12.78125 -14.25 L 17.699219 -29.457031 L 22.621094 -14.25 Z M 12.78125 -14.25"/></g><g id="e"><path d="M 3.769531 0 L 16.421875 0 C 26.964844 0 35.589844 -8.5625 35.589844 -19.167969 C 35.589844 -29.777344 26.964844 -38.339844 16.421875 -38.339844 L 3.769531 -38.339844 Z M 12.203125 -7.476562 L 12.203125 -30.863281 L 16.359375 -30.863281 C 22.429688 -30.863281 27.15625 -25.816406 27.15625 -19.167969 C 27.15625 -12.523438 22.429688 -7.476562 16.359375 -7.476562 Z M 12.203125 -7.476562"/></g><g id="g"><path d="M 15.589844 0.511719 C 22.746094 0.511719 28.816406 -3.707031 28.816406 -10.863281 C 28.816406 -25.046875 11.183594 -21.535156 11.183594 -28.179688 C 11.183594 -30.351562 12.84375 -31.375 14.886719 -31.375 C 17.0625 -31.375 19.234375 -30.160156 21.148438 -28.050781 L 26.773438 -33.417969 C 23.960938 -36.675781 19.679688 -38.851562 14.953125 -38.851562 C 8.882812 -38.851562 2.683594 -35.207031 2.683594 -27.539062 C 2.683594 -14.503906 20.382812 -17.636719 20.382812 -10.925781 C 20.382812 -8.816406 18.59375 -7.414062 15.65625 -7.414062 C 12.140625 -7.414062 9.394531 -9.394531 7.988281 -12.394531 L 1.023438 -8.050781 C 3.515625 -3.257812 8.882812 0.511719 15.589844 0.511719 Z M 15.589844 0.511719"/></g><g id="i"><path d="M 12.203125 -7.476562 L 12.203125 -38.339844 L 3.769531 -38.339844 L 3.769531 0 L 24.921875 0 L 24.921875 -7.476562 Z M 12.203125 -7.476562"/></g><g id="j"><path d="M 4.089844 0 L 12.523438 0 L 12.523438 -38.339844 L 4.089844 -38.339844 Z M 4.089844 0"/></g><g id="k"><path d="M 27.414062 -38.339844 L -0.320312 -38.339844 L -0.320312 -30.863281 L 9.394531 -30.863281 L 9.394531 0 L 17.765625 0 L 17.765625 -30.863281 L 27.414062 -30.863281 Z M 27.414062 -38.339844"/></g><g id="f"><path d="M 5.558594 -23.515625 L 11.183594 -23.515625 L 12.203125 -38.851562 L 4.535156 -38.851562 Z M 5.558594 -23.515625"/></g><clipPath id="a"><path d="M 23 12 L 117 12 L 117 94.5 L 23 94.5 Z M 23 12"/></clipPath></defs><g clip-path="url(#a)"><path fill="#1C1C1C" d="M 31.003906 56.664062 L 67.683594 93.285156 C 68.890625 94.492188 70.847656 94.492188 72.054688 93.285156 L 108.734375 56.664062 C 118.734375 46.675781 118.734375 30.460938 108.734375 20.472656 C 98.730469 10.488281 82.488281 10.488281 72.488281 20.472656 C 72.488281 20.472656 69.867188 23.089844 69.867188 23.089844 C 69.867188 23.089844 67.25 20.472656 67.25 20.472656 C 57.246094 10.488281 41.003906 10.488281 31.003906 20.472656 C 21 30.460938 21 46.675781 31.003906 56.664062 Z M 31.003906 56.664062" fill-rule="evenodd"/></g><path fill="#034078" d="M 58.867188 75.757812 L 69.867188 86.738281 L 73.65625 82.957031 C 71.816406 82.078125 69.972656 80.835938 67.988281 79.308594 C 64.921875 76.96875 61.886719 75.75 58.867188 75.757812 Z M 58.867188 75.757812" fill-rule="evenodd"/><path fill="#034078" d="M 67.992188 60.789062 C 64.953125 58.46875 61.964844 57.214844 58.964844 57.207031 C 56.003906 57.199219 53.089844 58.417969 50.167969 60.738281 L 49.988281 60.871094 C 48.730469 61.753906 47.464844 62.496094 46.191406 63.101562 L 53.53125 70.425781 C 59.539062 68.453125 65.621094 69.734375 71.746094 74.40625 L 71.753906 74.414062 C 74.164062 76.269531 76.1875 77.730469 78.464844 78.15625 L 98.160156 58.492188 C 96.519531 59.007812 94.878906 59.816406 93.238281 60.890625 C 84.910156 66.683594 76.507812 67.332031 67.992188 60.789062 Z M 67.992188 60.789062" fill-rule="evenodd"/><path fill="#1282A2" d="M 67.992188 42.261719 C 64.953125 39.941406 61.964844 38.691406 58.964844 38.683594 C 56.003906 38.675781 53.089844 39.894531 50.167969 42.210938 L 49.988281 42.347656 C 43.773438 46.710938 37.425781 47.746094 30.941406 45.457031 C 31.886719 47.953125 33.363281 50.292969 35.375 52.296875 L 41.433594 58.347656 C 43.09375 57.839844 44.742188 57.003906 46.378906 55.859375 C 50.542969 52.570312 54.761719 51.023438 58.980469 51.035156 C 63.195312 51.046875 67.472656 52.621094 71.746094 55.882812 L 71.753906 55.890625 C 77.820312 60.554688 83.804688 59.941406 89.734375 55.804688 L 89.804688 55.757812 C 94.816406 52.460938 99.839844 51.148438 104.851562 51.792969 C 107.628906 48.8125 109.292969 45.171875 109.847656 41.398438 C 104.3125 38.3125 98.773438 38.738281 93.238281 42.367188 C 84.910156 48.160156 76.507812 48.804688 67.992188 42.261719 Z M 67.992188 42.261719" fill-rule="evenodd"/><path fill="#FFF" d="M 109.613281 34.453125 C 108.855469 30.925781 107.101562 27.574219 104.363281 24.835938 C 96.773438 17.261719 84.449219 17.261719 76.859375 24.835938 L 72.054688 29.636719 C 71.453125 30.234375 70.636719 30.5625 69.789062 30.539062 C 68.941406 30.515625 68.140625 30.148438 67.570312 29.519531 C 67.570312 29.519531 62.875 24.835938 62.875 24.835938 C 55.289062 17.261719 42.964844 17.261719 35.375 24.835938 C 31.699219 28.503906 29.804688 33.277344 29.6875 38.089844 C 35.394531 41.320312 40.960938 41.117188 46.378906 37.335938 C 50.542969 34.046875 54.761719 32.5 58.980469 32.511719 C 63.195312 32.519531 67.472656 34.097656 71.746094 37.355469 L 71.753906 37.363281 C 77.820312 42.03125 83.804688 41.417969 89.734375 37.277344 L 89.804688 37.230469 C 96.410156 32.890625 103.011719 31.890625 109.613281 34.453125 Z M 109.613281 34.453125" fill-rule="evenodd"/><g fill="#001F54"><use x="140.085" y="61.371" xmlns:xlink="http://www.w3.org/1999/xlink" xlink:href="#b" xlink:type="simple" xlink:actuate="onLoad" xlink:show="embed"/></g><g fill="#001F54"><use x="186.343" y="61.371" xmlns:xlink="http://www.w3.org/1999/xlink" xlink:href="#c" xlink:type="simple" xlink:actuate="onLoad" xlink:show="embed"/></g><g fill="#001F54"><use x="231.451" y="61.371" xmlns:xlink="http://www.w3.org/1999/xlink" xlink:href="#d" xlink:type="simple" xlink:actuate="onLoad" xlink:show="embed"/></g><g fill="#001F54"><use x="271.959" y="61.371" xmlns:xlink="http://www.w3.org/1999/xlink" xlink:href="#e" xlink:type="simple" xlink:actuate="onLoad" xlink:show="embed"/></g><g fill="#001F54"><use x="315.022" y="61.371" xmlns:xlink="http://www.w3.org/1999/xlink" xlink:href="#f" xlink:type="simple" xlink:actuate="onLoad" xlink:show="embed"/></g><g fill="#001F54"><use x="336.875" y="61.371" xmlns:xlink="http://www.w3.org/1999/xlink" xlink:href="#g" xlink:type="simple" xlink:actuate="onLoad" xlink:show="embed"/></g><g fill="#001F54"><use x="372.271" y="61.371" xmlns:xlink="http://www.w3.org/1999/xlink" xlink:href="#h" xlink:type="simple" xlink:actuate="onLoad" xlink:show="embed"/></g><g fill="#001F54"><use x="392.718" y="61.371" xmlns:xlink="http://www.w3.org/1999/xlink" xlink:href="#i" xlink:type="simple" xlink:actuate="onLoad" xlink:show="embed"/></g><g fill="#001F54"><use x="422.876" y="61.371" xmlns:xlink="http://www.w3.org/1999/xlink" xlink:href="#j" xlink:type="simple" xlink:actuate="onLoad" xlink:show="embed"/></g><g fill="#001F54"><use x="444.536" y="61.371" xmlns:xlink="http://www.w3.org/1999/xlink" xlink:href="#g" xlink:type="simple" xlink:actuate="onLoad" xlink:show="embed"/></g><g fill="#001F54"><use x="479.933" y="61.371" xmlns:xlink="http://www.w3.org/1999/xlink" xlink:href="#k" xlink:type="simple" xlink:actuate="onLoad" xlink:show="embed"/></g><g fill="#D90429"><use x="146.292" y="88.872" xmlns:xlink="http://www.w3.org/1999/xlink" xlink:href="#l" xlink:type="simple" xlink:actuate="onLoad" xlink:show="embed"/></g><g fill="#D90429"><use x="159.027" y="88.872" xmlns:xlink="http://www.w3.org/1999/xlink" xlink:href="#m" xlink:type="simple" xlink:actuate="onLoad" xlink:show="embed"/></g><g fill="#D90429"><use x="170.627" y="88.872" xmlns:xlink="http://www.w3.org/1999/xlink" xlink:href="#n" xlink:type="simple" xlink:actuate="onLoad" xlink:show="embed"/></g><g fill="#D90429"><use x="176.735" y="88.872" xmlns:xlink="http://www.w3.org/1999/xlink" xlink:href="#o" xlink:type="simple" xlink:actuate="onLoad" xlink:show="embed"/></g><g fill="#D90429"><use x="189.282" y="88.872" xmlns:xlink="http://www.w3.org/1999/xlink" xlink:href="#p" xlink:type="simple" xlink:actuate="onLoad" xlink:show="embed"/></g><g fill="#D90429"><use x="204.521" y="88.872" xmlns:xlink="http://www.w3.org/1999/xlink" xlink:href="#m" xlink:type="simple" xlink:actuate="onLoad" xlink:show="embed"/></g><g fill="#D90429"><use x="216.122" y="88.872" xmlns:xlink="http://www.w3.org/1999/xlink" xlink:href="#n" xlink:type="simple" xlink:actuate="onLoad" xlink:show="embed"/></g><g fill="#D90429"><use x="222.229" y="88.872" xmlns:xlink="http://www.w3.org/1999/xlink" xlink:href="#q" xlink:type="simple" xlink:actuate="onLoad" xlink:show="embed"/></g><g fill="#D90429"><use x="232.726" y="88.872" xmlns:xlink="http://www.w3.org/1999/xlink" xlink:href="#r" xlink:type="simple" xlink:actuate="onLoad" xlink:show="embed"/></g><g fill="#D90429"><use x="247.339" y="88.872" xmlns:xlink="http://www.w3.org/1999/xlink" xlink:href="#s" xlink:type="simple" xlink:actuate="onLoad" xlink:show="embed"/></g><g fill="#D90429"><use x="258.799" y="88.872" xmlns:xlink="http://www.w3.org/1999/xlink" xlink:href="#t" xlink:type="simple" xlink:actuate="onLoad" xlink:show="embed"/></g><g fill="#D90429"><use x="273.717" y="88.872" xmlns:xlink="http://www.w3.org/1999/xlink" xlink:href="#o" xlink:type="simple" xlink:actuate="onLoad" xlink:show="embed"/></g><g fill="#D90429"><use x="286.264" y="88.872" xmlns:xlink="http://www.w3.org/1999/xlink" xlink:href="#u" xlink:type="simple" xlink:actuate="onLoad" xlink:show="embed"/></g><g fill="#D90429"><use x="293.89" y="88.872" xmlns:xlink="http://www.w3.org/1999/xlink" xlink:href="#r" xlink:type="simple" xlink:actuate="onLoad" xlink:show="embed"/></g><g fill="#D90429"><use x="308.503" y="88.872" xmlns:xlink="http://www.w3.org/1999/xlink" xlink:href="#v" xlink:type="simple" xlink:actuate="onLoad" xlink:show="embed"/></g><g fill="#D90429"><use x="323.664" y="88.872" xmlns:xlink="http://www.w3.org/1999/xlink" xlink:href="#w" xlink:type="simple" xlink:actuate="onLoad" xlink:show="embed"/></g><g fill="#D90429"><use x="329.239" y="88.872" xmlns:xlink="http://www.w3.org/1999/xlink" xlink:href="#n" xlink:type="simple" xlink:actuate="onLoad" xlink:show="embed"/></g><g fill="#D90429"><use x="335.347" y="88.872" xmlns:xlink="http://www.w3.org/1999/xlink" xlink:href="#q" xlink:type="simple" xlink:actuate="onLoad" xlink:show="embed"/></g><g fill="#D90429"><use x="345.844" y="88.872" xmlns:xlink="http://www.w3.org/1999/xlink" xlink:href="#o" xlink:type="simple" xlink:actuate="onLoad" xlink:show="embed"/></g><g fill="#D90429"><use x="358.391" y="88.872" xmlns:xlink="http://www.w3.org/1999/xlink" xlink:href="#r" xlink:type="simple" xlink:actuate="onLoad" xlink:show="embed"/></g><g fill="#D90429"><use x="373.004" y="88.872" xmlns:xlink="http://www.w3.org/1999/xlink" xlink:href="#x" xlink:type="simple" xlink:actuate="onLoad" xlink:show="embed"/></g><g fill="#D90429"><use x="385.262" y="88.872" xmlns:xlink="http://www.w3.org/1999/xlink" xlink:href="#n" xlink:type="simple" xlink:actuate="onLoad" xlink:show="embed"/></g><g fill="#D90429"><use x="391.369" y="88.872" xmlns:xlink="http://www.w3.org/1999/xlink" xlink:href="#x" xlink:type="simple" xlink:actuate="onLoad" xlink:show="embed"/></g><g fill="#D90429"><use x="403.627" y="88.872" xmlns:xlink="http://www.w3.org/1999/xlink" xlink:href="#r" xlink:type="simple" xlink:actuate="onLoad" xlink:show="embed"/></g><g fill="#D90429"><use x="418.24" y="88.872" xmlns:xlink="http://www.w3.org/1999/xlink" xlink:href="#s" xlink:type="simple" xlink:actuate="onLoad" xlink:show="embed"/></g><g fill="#D90429"><use x="429.7" y="88.872" xmlns:xlink="http://www.w3.org/1999/xlink" xlink:href="#s" xlink:type="simple" xlink:actuate="onLoad" xlink:show="embed"/></g><g fill="#D90429"><use x="441.159" y="88.872" xmlns:xlink="http://www.w3.org/1999/xlink" xlink:href="#t" xlink:type="simple" xlink:actuate="onLoad" xlink:show="embed"/></g><g fill="#D90429"><use x="456.077" y="88.872" xmlns:xlink="http://www.w3.org/1999/xlink" xlink:href="#o" xlink:type="simple" xlink:actuate="onLoad" xlink:show="embed"/></g><g fill="#D90429"><use x="468.625" y="88.872" xmlns:xlink="http://www.w3.org/1999/xlink" xlink:href="#u" xlink:type="simple" xlink:actuate="onLoad" xlink:show="embed"/></g><g fill="#D90429"><use x="476.25" y="88.872" xmlns:xlink="http://www.w3.org/1999/xlink" xlink:href="#r" xlink:type="simple" xlink:actuate="onLoad" xlink:show="embed"/></g><g fill="#D90429"><use x="490.863" y="88.872" xmlns:xlink="http://www.w3.org/1999/xlink" xlink:href="#v" xlink:type="simple" xlink:actuate="onLoad" xlink:show="embed"/></g></svg>