<svg xmlns="http://www.w3.org/2000/svg" xmlns:xlink="http://www.w3.org/1999/xlink" width="375" viewBox="0 0 375 375" height="375" version="1.0"><defs><g id="l"><path d="M 0.1875 0.21875 L 0.8125 -0.3125 C 1 -0.46875 1.1875 -0.472656 1.375 -0.328125 L 1.390625 -0.3125 C 1.410156 -0.300781 1.429688 -0.289062 1.453125 -0.28125 C 1.453125 -0.269531 1.46875 -0.25 1.5 -0.21875 C 1.539062 -0.1875 1.578125 -0.164062 1.609375 -0.15625 C 1.628906 -0.132812 1.65625 -0.109375 1.6875 -0.078125 C 1.71875 -0.0546875 1.757812 -0.0234375 1.8125 0.015625 C 1.863281 0.0664062 1.90625 0.101562 1.9375 0.125 L 7.578125 -4.640625 C 7.566406 -4.679688 7.535156 -4.726562 7.484375 -4.78125 C 7.441406 -4.84375 7.410156 -4.890625 7.390625 -4.921875 C 7.378906 -4.960938 7.363281 -4.992188 7.34375 -5.015625 C 7.320312 -5.035156 7.300781 -5.066406 7.28125 -5.109375 C 7.257812 -5.160156 7.25 -5.191406 7.25 -5.203125 C 7.226562 -5.210938 7.210938 -5.226562 7.203125 -5.25 L 7.203125 -5.265625 C 7.097656 -5.484375 7.132812 -5.671875 7.3125 -5.828125 L 7.953125 -6.359375 L 8.640625 -5.546875 L 10.90625 -2.875 C 11.320312 -2.375 11.632812 -1.898438 11.84375 -1.453125 C 12.0625 -1.003906 12.175781 -0.585938 12.1875 -0.203125 C 12.195312 0.171875 12.117188 0.519531 11.953125 0.84375 C 11.796875 1.175781 11.566406 1.472656 11.265625 1.734375 C 11.066406 1.890625 10.867188 2.007812 10.671875 2.09375 C 10.484375 2.164062 10.25 2.210938 9.96875 2.234375 C 9.75 2.242188 9.5 2.210938 9.21875 2.140625 C 8.96875 2.078125 8.695312 1.957031 8.40625 1.78125 C 9.070312 3.050781 8.945312 4.070312 8.03125 4.84375 C 7.695312 5.132812 7.335938 5.328125 6.953125 5.421875 C 6.546875 5.523438 6.148438 5.550781 5.765625 5.5 C 5.390625 5.4375 4.984375 5.269531 4.546875 5 C 4.140625 4.769531 3.742188 4.421875 3.359375 3.953125 L 0.875 1.03125 Z M 3.21875 1.515625 L 4.453125 2.984375 C 4.679688 3.253906 4.90625 3.453125 5.125 3.578125 C 5.332031 3.703125 5.539062 3.773438 5.75 3.796875 C 5.96875 3.804688 6.160156 3.773438 6.328125 3.703125 C 6.492188 3.648438 6.664062 3.550781 6.84375 3.40625 C 6.988281 3.269531 7.117188 3.109375 7.234375 2.921875 C 7.328125 2.742188 7.367188 2.5625 7.359375 2.375 C 7.347656 2.1875 7.296875 1.984375 7.203125 1.765625 C 7.109375 1.554688 6.945312 1.320312 6.71875 1.0625 L 5.484375 -0.40625 Z M 6.5 -1.265625 L 7.484375 -0.109375 C 7.898438 0.390625 8.300781 0.691406 8.6875 0.796875 C 9.070312 0.878906 9.457031 0.753906 9.84375 0.421875 C 10.238281 0.0859375 10.4375 -0.269531 10.4375 -0.65625 C 10.40625 -1.007812 10.1875 -1.429688 9.78125 -1.921875 L 8.734375 -3.15625 Z M 6.5 -1.265625"/></g><g id="m"><path d="M 0.1875 0.203125 L 0.78125 -0.375 C 0.957031 -0.539062 1.144531 -0.554688 1.34375 -0.421875 L 1.359375 -0.40625 C 1.378906 -0.394531 1.398438 -0.382812 1.421875 -0.375 C 1.429688 -0.363281 1.457031 -0.34375 1.5 -0.3125 C 1.539062 -0.289062 1.570312 -0.269531 1.59375 -0.25 C 1.613281 -0.226562 1.640625 -0.203125 1.671875 -0.171875 C 1.710938 -0.148438 1.757812 -0.117188 1.8125 -0.078125 C 1.863281 -0.0351562 1.90625 -0.00390625 1.9375 0.015625 L 7.28125 -5.09375 C 7.257812 -5.125 7.222656 -5.164062 7.171875 -5.21875 C 7.128906 -5.269531 7.097656 -5.316406 7.078125 -5.359375 C 7.066406 -5.398438 7.050781 -5.429688 7.03125 -5.453125 C 7.007812 -5.484375 6.988281 -5.519531 6.96875 -5.5625 C 6.945312 -5.601562 6.929688 -5.628906 6.921875 -5.640625 C 6.898438 -5.648438 6.882812 -5.664062 6.875 -5.6875 L 6.875 -5.703125 C 6.738281 -5.910156 6.757812 -6.097656 6.9375 -6.265625 L 7.53125 -6.828125 L 8.28125 -6.046875 L 12.71875 -1.421875 L 12.015625 -0.75 L 11.640625 -0.390625 L 10.796875 0.421875 L 10.625 0.25 L 10.234375 -0.171875 C 10.109375 -0.296875 10.09375 -0.4375 10.1875 -0.59375 C 10.46875 -0.925781 10.660156 -1.160156 10.765625 -1.296875 L 8.515625 -3.65625 L 6.46875 -1.703125 L 8.84375 0.78125 L 7.796875 1.796875 L 5.421875 -0.6875 L 3.34375 1.296875 L 5.59375 3.65625 C 5.726562 3.570312 5.972656 3.390625 6.328125 3.109375 C 6.484375 3.015625 6.625 3.03125 6.75 3.15625 L 7.140625 3.578125 L 7.3125 3.75 L 6.46875 4.5625 L 6.078125 4.921875 L 5.375 5.609375 L 0.9375 0.984375 Z M 0.1875 0.203125"/></g><g id="n"><path d="M 5.265625 -5.703125 L 6.84375 -7.515625 L 7 -7.390625 L 7.015625 -7.375 L 13.046875 -2.125 L 13.21875 -1.984375 L 11.640625 -0.171875 L 11.59375 -0.203125 L 11.46875 -0.3125 L 11.03125 -0.6875 C 10.894531 -0.8125 10.867188 -0.953125 10.953125 -1.109375 C 11.054688 -1.285156 11.171875 -1.445312 11.296875 -1.59375 L 9.71875 -2.96875 L 4.96875 2.484375 C 5.019531 2.535156 5.070312 2.597656 5.125 2.671875 C 5.1875 2.742188 5.226562 2.789062 5.25 2.8125 C 5.269531 2.84375 5.296875 2.875 5.328125 2.90625 C 5.359375 2.945312 5.378906 2.972656 5.390625 2.984375 C 5.398438 2.992188 5.40625 3.003906 5.40625 3.015625 C 5.414062 3.035156 5.425781 3.050781 5.4375 3.0625 C 5.582031 3.257812 5.578125 3.445312 5.421875 3.625 L 4.875 4.25 L 4.0625 3.53125 L 2.640625 2.296875 L 1.84375 1.59375 L 2.390625 0.96875 C 2.546875 0.789062 2.726562 0.757812 2.9375 0.875 L 2.96875 0.90625 C 2.988281 0.90625 3.007812 0.910156 3.03125 0.921875 C 3.03125 0.929688 3.050781 0.945312 3.09375 0.96875 C 3.132812 1 3.171875 1.019531 3.203125 1.03125 C 3.234375 1.050781 3.285156 1.085938 3.359375 1.140625 C 3.441406 1.191406 3.503906 1.226562 3.546875 1.25 L 8.296875 -4.203125 L 6.734375 -5.5625 C 6.554688 -5.382812 6.410156 -5.253906 6.296875 -5.171875 C 6.148438 -5.066406 6.015625 -5.066406 5.890625 -5.171875 L 5.4375 -5.5625 L 5.3125 -5.671875 Z M 5.265625 -5.703125"/></g><g id="o"><path d="M 0.21875 0.171875 L 0.71875 -0.484375 C 0.863281 -0.679688 1.046875 -0.734375 1.265625 -0.640625 L 1.296875 -0.625 C 1.304688 -0.601562 1.320312 -0.585938 1.34375 -0.578125 C 1.351562 -0.578125 1.378906 -0.566406 1.421875 -0.546875 C 1.472656 -0.523438 1.507812 -0.507812 1.53125 -0.5 C 1.550781 -0.488281 1.582031 -0.472656 1.625 -0.453125 C 1.664062 -0.429688 1.710938 -0.398438 1.765625 -0.359375 C 1.828125 -0.328125 1.878906 -0.304688 1.921875 -0.296875 L 6.375 -6.203125 C 6.34375 -6.222656 6.300781 -6.253906 6.25 -6.296875 C 6.207031 -6.347656 6.171875 -6.390625 6.140625 -6.421875 C 6.109375 -6.460938 6.082031 -6.488281 6.0625 -6.5 C 6.039062 -6.519531 6.015625 -6.550781 5.984375 -6.59375 C 5.960938 -6.632812 5.945312 -6.65625 5.9375 -6.65625 C 5.90625 -6.6875 5.878906 -6.710938 5.859375 -6.734375 C 5.703125 -6.910156 5.695312 -7.09375 5.84375 -7.28125 L 6.34375 -7.953125 L 7.203125 -7.3125 L 8.71875 -6.171875 L 9.5625 -5.53125 L 9.0625 -4.859375 C 8.914062 -4.671875 8.738281 -4.625 8.53125 -4.71875 C 8.5 -4.738281 8.472656 -4.753906 8.453125 -4.765625 C 8.441406 -4.765625 8.410156 -4.773438 8.359375 -4.796875 C 8.316406 -4.816406 8.285156 -4.832031 8.265625 -4.84375 C 8.234375 -4.863281 8.195312 -4.878906 8.15625 -4.890625 C 8.125 -4.910156 8.078125 -4.9375 8.015625 -4.96875 C 7.960938 -5 7.921875 -5.03125 7.890625 -5.0625 L 6.078125 -2.671875 L 9.875 0.203125 L 11.6875 -2.1875 C 11.644531 -2.21875 11.59375 -2.269531 11.53125 -2.34375 C 11.46875 -2.414062 11.425781 -2.460938 11.40625 -2.484375 C 11.332031 -2.554688 11.285156 -2.609375 11.265625 -2.640625 C 11.253906 -2.648438 11.238281 -2.660156 11.21875 -2.671875 C 11.207031 -2.691406 11.203125 -2.703125 11.203125 -2.703125 C 11.046875 -2.878906 11.039062 -3.0625 11.1875 -3.25 L 11.6875 -3.921875 L 12.515625 -3.296875 L 14.046875 -2.140625 L 14.890625 -1.515625 L 14.390625 -0.84375 C 14.242188 -0.65625 14.0625 -0.609375 13.84375 -0.703125 L 13.828125 -0.703125 C 13.804688 -0.710938 13.789062 -0.722656 13.78125 -0.734375 C 13.769531 -0.742188 13.738281 -0.757812 13.6875 -0.78125 C 13.632812 -0.800781 13.59375 -0.820312 13.5625 -0.84375 C 13.539062 -0.863281 13.488281 -0.890625 13.40625 -0.921875 C 13.332031 -0.960938 13.269531 -1 13.21875 -1.03125 L 8.765625 4.875 C 8.804688 4.914062 8.851562 4.96875 8.90625 5.03125 C 8.96875 5.09375 9.007812 5.132812 9.03125 5.15625 C 9.0625 5.1875 9.09375 5.222656 9.125 5.265625 C 9.15625 5.304688 9.175781 5.332031 9.1875 5.34375 C 9.195312 5.351562 9.210938 5.363281 9.234375 5.375 L 9.25 5.390625 C 9.40625 5.566406 9.410156 5.753906 9.265625 5.953125 L 8.765625 6.609375 L 7.921875 5.984375 L 6.390625 4.828125 L 5.5625 4.203125 L 6.0625 3.546875 C 6.207031 3.347656 6.390625 3.296875 6.609375 3.390625 C 6.628906 3.410156 6.648438 3.425781 6.671875 3.4375 C 6.722656 3.46875 6.789062 3.492188 6.875 3.515625 C 6.894531 3.535156 6.945312 3.566406 7.03125 3.609375 C 7.113281 3.660156 7.179688 3.695312 7.234375 3.71875 L 9.0625 1.28125 L 5.265625 -1.59375 L 3.4375 0.84375 C 3.457031 0.882812 3.488281 0.925781 3.53125 0.96875 C 3.582031 1.007812 3.617188 1.046875 3.640625 1.078125 C 3.671875 1.109375 3.703125 1.132812 3.734375 1.15625 C 3.753906 1.175781 3.773438 1.207031 3.796875 1.25 C 3.828125 1.289062 3.847656 1.3125 3.859375 1.3125 C 3.878906 1.332031 3.90625 1.351562 3.9375 1.375 C 4.082031 1.550781 4.082031 1.738281 3.9375 1.9375 L 3.4375 2.59375 L 2.59375 1.953125 L 1.078125 0.8125 Z M 0.21875 0.171875"/></g><g id="p"><path d="M 0.234375 0.15625 L 0.6875 -0.53125 C 0.820312 -0.738281 0.992188 -0.800781 1.203125 -0.71875 L 1.234375 -0.703125 C 1.265625 -0.703125 1.285156 -0.695312 1.296875 -0.6875 C 1.304688 -0.675781 1.332031 -0.660156 1.375 -0.640625 C 1.425781 -0.617188 1.46875 -0.609375 1.5 -0.609375 C 1.53125 -0.585938 1.566406 -0.570312 1.609375 -0.5625 C 1.648438 -0.550781 1.695312 -0.53125 1.75 -0.5 C 1.800781 -0.46875 1.851562 -0.4375 1.90625 -0.40625 L 5.953125 -6.59375 C 5.910156 -6.632812 5.863281 -6.675781 5.8125 -6.71875 C 5.769531 -6.757812 5.734375 -6.796875 5.703125 -6.828125 C 5.671875 -6.859375 5.640625 -6.882812 5.609375 -6.90625 C 5.585938 -6.914062 5.5625 -6.9375 5.53125 -6.96875 C 5.5 -7.007812 5.476562 -7.035156 5.46875 -7.046875 C 5.457031 -7.054688 5.441406 -7.066406 5.421875 -7.078125 L 5.390625 -7.109375 C 5.234375 -7.273438 5.21875 -7.457031 5.34375 -7.65625 L 5.796875 -8.359375 L 6.703125 -7.765625 L 12.0625 -4.265625 L 11.53125 -3.4375 L 11.25 -3 L 10.609375 -2.03125 L 10.546875 -2.078125 L 10.40625 -2.15625 L 9.921875 -2.46875 C 9.773438 -2.570312 9.734375 -2.707031 9.796875 -2.875 C 9.992188 -3.269531 10.128906 -3.539062 10.203125 -3.6875 L 7.46875 -5.46875 L 5.921875 -3.109375 L 8.796875 -1.234375 L 8 -0.015625 L 5.125 -1.890625 L 3.546875 0.515625 L 6.28125 2.296875 C 6.382812 2.171875 6.582031 1.9375 6.875 1.59375 C 7 1.46875 7.132812 1.457031 7.28125 1.5625 L 7.765625 1.875 L 7.90625 1.953125 L 7.96875 2 L 7.328125 2.984375 L 7.03125 3.421875 L 6.5 4.25 L 1.140625 0.75 Z M 0.234375 0.15625"/></g><g id="q"><path d="M 0.421875 -0.25 L 0.53125 -0.46875 L 1.65625 -2.546875 L 1.71875 -2.53125 L 1.859375 -2.4375 L 2.375 -2.171875 C 2.519531 -2.085938 2.566406 -1.960938 2.515625 -1.796875 C 2.492188 -1.679688 2.351562 -1.328125 2.09375 -0.734375 C 2.394531 -0.421875 2.9375 -0.0546875 3.71875 0.359375 C 4.195312 0.617188 4.617188 0.707031 4.984375 0.625 C 5.347656 0.539062 5.644531 0.285156 5.875 -0.140625 C 6 -0.367188 6.046875 -0.597656 6.015625 -0.828125 C 5.992188 -1.023438 5.90625 -1.226562 5.75 -1.4375 C 5.582031 -1.675781 5.410156 -1.882812 5.234375 -2.0625 C 4.867188 -2.425781 4.660156 -2.632812 4.609375 -2.6875 C 4.429688 -2.851562 4.226562 -3.085938 4 -3.390625 C 3.832031 -3.617188 3.691406 -3.882812 3.578125 -4.1875 C 3.484375 -4.488281 3.457031 -4.8125 3.5 -5.15625 C 3.550781 -5.53125 3.675781 -5.90625 3.875 -6.28125 C 4.0625 -6.613281 4.296875 -6.894531 4.578125 -7.125 C 4.847656 -7.363281 5.179688 -7.535156 5.578125 -7.640625 C 5.929688 -7.742188 6.34375 -7.769531 6.8125 -7.71875 C 7.25 -7.664062 7.707031 -7.515625 8.1875 -7.265625 C 9.0625 -6.796875 9.828125 -6.164062 10.484375 -5.375 L 9.25 -3.078125 L 9.1875 -3.109375 L 9.046875 -3.1875 L 8.53125 -3.46875 C 8.375 -3.550781 8.332031 -3.679688 8.40625 -3.859375 C 8.425781 -3.972656 8.5625 -4.320312 8.8125 -4.90625 C 8.59375 -5.195312 8.144531 -5.523438 7.46875 -5.890625 C 7.25 -6.015625 7.035156 -6.101562 6.828125 -6.15625 C 6.617188 -6.1875 6.429688 -6.1875 6.265625 -6.15625 C 6.097656 -6.101562 5.945312 -6.023438 5.8125 -5.921875 C 5.6875 -5.828125 5.578125 -5.691406 5.484375 -5.515625 C 5.378906 -5.328125 5.34375 -5.125 5.375 -4.90625 C 5.40625 -4.695312 5.5 -4.492188 5.65625 -4.296875 C 5.84375 -4.015625 6.015625 -3.800781 6.171875 -3.65625 C 6.253906 -3.570312 6.375 -3.445312 6.53125 -3.28125 C 6.6875 -3.113281 6.773438 -3.019531 6.796875 -3 C 6.898438 -2.894531 7.09375 -2.660156 7.375 -2.296875 C 7.5625 -2.046875 7.707031 -1.773438 7.8125 -1.484375 C 7.914062 -1.148438 7.953125 -0.847656 7.921875 -0.578125 C 7.910156 -0.273438 7.796875 0.0703125 7.578125 0.46875 C 7.367188 0.851562 7.097656 1.191406 6.765625 1.484375 C 6.429688 1.773438 6.0625 1.972656 5.65625 2.078125 C 5.257812 2.210938 4.828125 2.25 4.359375 2.1875 C 3.921875 2.132812 3.441406 1.96875 2.921875 1.6875 L 2.75 1.59375 C 1.957031 1.164062 1.179688 0.550781 0.421875 -0.25 Z M 0.421875 -0.25"/></g><g id="r"><path d="M 2.3125 -4.546875 C 2.632812 -5.242188 3.03125 -5.816406 3.5 -6.265625 C 4 -6.742188 4.546875 -7.097656 5.140625 -7.328125 C 5.753906 -7.554688 6.398438 -7.65625 7.078125 -7.625 C 7.773438 -7.59375 8.472656 -7.421875 9.171875 -7.109375 C 9.878906 -6.773438 10.453125 -6.363281 10.890625 -5.875 C 11.378906 -5.351562 11.722656 -4.796875 11.921875 -4.203125 C 12.128906 -3.609375 12.21875 -2.960938 12.1875 -2.265625 C 12.15625 -1.597656 11.984375 -0.921875 11.671875 -0.234375 C 11.359375 0.453125 10.953125 1.035156 10.453125 1.515625 C 9.953125 1.972656 9.40625 2.320312 8.8125 2.5625 C 8.21875 2.789062 7.578125 2.890625 6.890625 2.859375 C 6.179688 2.816406 5.492188 2.640625 4.828125 2.328125 C 4.128906 2.015625 3.546875 1.609375 3.078125 1.109375 C 2.609375 0.617188 2.257812 0.0625 2.03125 -0.5625 C 1.820312 -1.175781 1.734375 -1.816406 1.765625 -2.484375 C 1.796875 -3.140625 1.976562 -3.828125 2.3125 -4.546875 Z M 4.0625 -3.734375 C 3.820312 -3.210938 3.675781 -2.722656 3.625 -2.265625 C 3.582031 -1.796875 3.625 -1.367188 3.75 -0.984375 C 3.875 -0.597656 4.085938 -0.242188 4.390625 0.078125 C 4.640625 0.390625 5.007812 0.65625 5.5 0.875 C 5.96875 1.09375 6.40625 1.203125 6.8125 1.203125 C 7.238281 1.222656 7.644531 1.148438 8.03125 0.984375 C 8.425781 0.816406 8.769531 0.566406 9.0625 0.234375 C 9.414062 -0.160156 9.695312 -0.585938 9.90625 -1.046875 C 10.113281 -1.492188 10.25 -1.976562 10.3125 -2.5 C 10.375 -2.9375 10.34375 -3.363281 10.21875 -3.78125 C 10.082031 -4.175781 9.875 -4.535156 9.59375 -4.859375 C 9.332031 -5.160156 8.96875 -5.421875 8.5 -5.640625 C 8.007812 -5.859375 7.566406 -5.972656 7.171875 -5.984375 C 6.722656 -5.992188 6.3125 -5.914062 5.9375 -5.75 C 5.5625 -5.601562 5.207031 -5.351562 4.875 -5 C 4.5625 -4.65625 4.289062 -4.234375 4.0625 -3.734375 Z M 4.0625 -3.734375"/></g><g id="s"><path d="M 0.265625 0.09375 L 0.5625 -0.671875 C 0.644531 -0.898438 0.800781 -1 1.03125 -0.96875 C 1.0625 -0.957031 1.09375 -0.953125 1.125 -0.953125 C 1.1875 -0.941406 1.253906 -0.925781 1.328125 -0.90625 C 1.359375 -0.894531 1.394531 -0.882812 1.4375 -0.875 C 1.476562 -0.875 1.53125 -0.863281 1.59375 -0.84375 C 1.664062 -0.820312 1.722656 -0.8125 1.765625 -0.8125 L 4.40625 -7.71875 C 4.375 -7.738281 4.328125 -7.765625 4.265625 -7.796875 C 4.203125 -7.828125 4.148438 -7.851562 4.109375 -7.875 C 4.078125 -7.90625 4.046875 -7.925781 4.015625 -7.9375 C 3.984375 -7.945312 3.945312 -7.960938 3.90625 -7.984375 C 3.875 -8.015625 3.851562 -8.035156 3.84375 -8.046875 C 3.820312 -8.066406 3.796875 -8.082031 3.765625 -8.09375 C 3.578125 -8.226562 3.523438 -8.40625 3.609375 -8.625 L 3.90625 -9.40625 L 4.90625 -9.015625 L 6.65625 -8.34375 L 7.671875 -7.953125 L 7.375 -7.171875 C 7.289062 -6.953125 7.125 -6.863281 6.875 -6.90625 C 6.84375 -6.914062 6.8125 -6.921875 6.78125 -6.921875 C 6.75 -6.921875 6.679688 -6.929688 6.578125 -6.953125 C 6.535156 -6.972656 6.460938 -6.992188 6.359375 -7.015625 C 6.265625 -7.035156 6.195312 -7.046875 6.15625 -7.046875 L 3.578125 -0.296875 L 6.640625 0.875 C 6.796875 0.53125 6.878906 0.347656 6.890625 0.328125 C 7.003906 0.171875 7.144531 0.125 7.3125 0.1875 L 8.03125 0.453125 L 7.515625 1.78125 L 7.421875 2.03125 L 7.15625 2.734375 L 6.828125 2.609375 L 6.78125 2.59375 L 1.265625 0.484375 Z M 0.265625 0.09375"/></g><g id="t"><path d="M 2.96875 -8.859375 L 3.203125 -9.65625 L 4.21875 -9.34375 L 6.03125 -8.78125 L 7.109375 -8.453125 L 6.875 -7.65625 C 6.800781 -7.425781 6.640625 -7.328125 6.390625 -7.359375 C 6.378906 -7.359375 6.363281 -7.359375 6.34375 -7.359375 C 6.320312 -7.359375 6.300781 -7.359375 6.28125 -7.359375 C 6.269531 -7.367188 6.238281 -7.375 6.1875 -7.375 C 6.132812 -7.375 6.085938 -7.378906 6.046875 -7.390625 C 6.035156 -7.390625 5.894531 -7.410156 5.625 -7.453125 L 4.234375 -2.96875 C 4.109375 -2.5625 4.050781 -2.207031 4.0625 -1.90625 C 4.0625 -1.625 4.128906 -1.328125 4.265625 -1.015625 C 4.378906 -0.753906 4.554688 -0.519531 4.796875 -0.3125 C 5.035156 -0.113281 5.332031 0.0390625 5.6875 0.15625 C 6.050781 0.257812 6.382812 0.296875 6.6875 0.265625 C 7.019531 0.222656 7.300781 0.132812 7.53125 0 C 7.78125 -0.144531 8.003906 -0.347656 8.203125 -0.609375 C 8.429688 -0.941406 8.59375 -1.265625 8.6875 -1.578125 L 10.078125 -6.078125 C 9.828125 -6.203125 9.6875 -6.269531 9.65625 -6.28125 C 9.625 -6.289062 9.582031 -6.3125 9.53125 -6.34375 C 9.488281 -6.375 9.460938 -6.390625 9.453125 -6.390625 C 9.429688 -6.398438 9.410156 -6.40625 9.390625 -6.40625 L 9.359375 -6.4375 C 9.148438 -6.550781 9.082031 -6.722656 9.15625 -6.953125 L 9.390625 -7.75 L 10.484375 -7.40625 L 12.265625 -6.859375 L 13.296875 -6.53125 L 13.0625 -5.734375 C 12.988281 -5.503906 12.828125 -5.40625 12.578125 -5.4375 L 12.546875 -5.4375 C 12.523438 -5.4375 12.507812 -5.4375 12.5 -5.4375 C 12.488281 -5.445312 12.457031 -5.453125 12.40625 -5.453125 C 12.351562 -5.453125 12.3125 -5.457031 12.28125 -5.46875 C 12.257812 -5.46875 12.222656 -5.46875 12.171875 -5.46875 C 12.128906 -5.476562 12.078125 -5.488281 12.015625 -5.5 C 11.953125 -5.519531 11.898438 -5.53125 11.859375 -5.53125 L 10.46875 -1.03125 C 10.289062 -0.445312 10.03125 0.0546875 9.6875 0.484375 C 9.332031 0.929688 8.941406 1.269531 8.515625 1.5 C 8.046875 1.738281 7.535156 1.890625 6.984375 1.953125 C 6.441406 1.992188 5.847656 1.914062 5.203125 1.71875 C 4.566406 1.53125 4.039062 1.265625 3.625 0.921875 C 3.207031 0.554688 2.867188 0.140625 2.609375 -0.328125 C 2.378906 -0.785156 2.242188 -1.285156 2.203125 -1.828125 C 2.160156 -2.347656 2.234375 -2.910156 2.421875 -3.515625 L 3.8125 -8.015625 C 3.769531 -8.035156 3.703125 -8.066406 3.609375 -8.109375 C 3.515625 -8.160156 3.457031 -8.191406 3.4375 -8.203125 C 3.40625 -8.210938 3.367188 -8.226562 3.328125 -8.25 C 3.285156 -8.28125 3.253906 -8.300781 3.234375 -8.3125 C 3.222656 -8.3125 3.207031 -8.316406 3.1875 -8.328125 L 3.15625 -8.34375 C 2.957031 -8.457031 2.894531 -8.628906 2.96875 -8.859375 Z M 2.96875 -8.859375"/></g><g id="u"><path d="M 2.015625 -7.515625 L 2.5625 -9.859375 L 2.75 -9.8125 L 2.765625 -9.796875 L 10.5625 -7.96875 L 10.765625 -7.921875 L 10.21875 -5.578125 L 10.171875 -5.59375 L 10.015625 -5.625 L 9.453125 -5.765625 C 9.265625 -5.804688 9.175781 -5.910156 9.1875 -6.078125 C 9.1875 -6.285156 9.203125 -6.484375 9.234375 -6.671875 L 7.21875 -7.140625 L 5.5625 -0.125 C 5.625 -0.101562 5.695312 -0.0703125 5.78125 -0.03125 C 5.863281 0 5.921875 0.0195312 5.953125 0.03125 C 5.984375 0.0507812 6.019531 0.0703125 6.0625 0.09375 C 6.113281 0.113281 6.144531 0.125 6.15625 0.125 C 6.175781 0.132812 6.191406 0.140625 6.203125 0.140625 C 6.222656 0.148438 6.238281 0.15625 6.25 0.15625 C 6.457031 0.269531 6.535156 0.441406 6.484375 0.671875 L 6.296875 1.484375 L 5.25 1.234375 L 3.40625 0.796875 L 2.375 0.5625 L 2.5625 -0.25 C 2.613281 -0.476562 2.765625 -0.59375 3.015625 -0.59375 L 3.046875 -0.59375 C 3.066406 -0.59375 3.085938 -0.59375 3.109375 -0.59375 C 3.117188 -0.582031 3.144531 -0.578125 3.1875 -0.578125 C 3.238281 -0.578125 3.28125 -0.578125 3.3125 -0.578125 C 3.34375 -0.578125 3.40625 -0.570312 3.5 -0.5625 C 3.59375 -0.5625 3.664062 -0.5625 3.71875 -0.5625 L 5.375 -7.59375 L 3.375 -8.0625 C 3.300781 -7.8125 3.234375 -7.625 3.171875 -7.5 C 3.085938 -7.34375 2.960938 -7.285156 2.796875 -7.328125 L 2.21875 -7.453125 L 2.0625 -7.5 Z M 2.015625 -7.515625"/></g><g id="v"><path d="M 0.28125 0.046875 L 0.4375 -0.765625 C 0.476562 -1.003906 0.613281 -1.128906 0.84375 -1.140625 L 0.875 -1.125 C 0.894531 -1.132812 0.914062 -1.140625 0.9375 -1.140625 C 0.988281 -1.140625 1.054688 -1.140625 1.140625 -1.140625 C 1.171875 -1.140625 1.207031 -1.140625 1.25 -1.140625 C 1.300781 -1.140625 1.359375 -1.132812 1.421875 -1.125 C 1.492188 -1.125 1.550781 -1.125 1.59375 -1.125 L 2.921875 -8.390625 C 2.878906 -8.410156 2.820312 -8.425781 2.75 -8.4375 C 2.6875 -8.457031 2.632812 -8.476562 2.59375 -8.5 C 2.5625 -8.519531 2.53125 -8.53125 2.5 -8.53125 C 2.46875 -8.539062 2.425781 -8.554688 2.375 -8.578125 C 2.332031 -8.609375 2.304688 -8.625 2.296875 -8.625 C 2.265625 -8.632812 2.234375 -8.644531 2.203125 -8.65625 C 1.992188 -8.75 1.910156 -8.910156 1.953125 -9.140625 L 2.109375 -9.953125 L 3.171875 -9.75 L 5.03125 -9.421875 L 6.078125 -9.21875 L 5.921875 -8.40625 C 5.878906 -8.175781 5.734375 -8.0625 5.484375 -8.0625 C 5.472656 -8.0625 5.457031 -8.054688 5.4375 -8.046875 C 5.425781 -8.046875 5.410156 -8.046875 5.390625 -8.046875 C 5.378906 -8.054688 5.347656 -8.054688 5.296875 -8.046875 C 5.253906 -8.035156 5.21875 -8.035156 5.1875 -8.046875 C 5.15625 -8.054688 5.09375 -8.0625 5 -8.0625 C 4.90625 -8.0625 4.832031 -8.0625 4.78125 -8.0625 L 3.453125 -0.796875 C 3.503906 -0.773438 3.570312 -0.75 3.65625 -0.71875 C 3.738281 -0.6875 3.796875 -0.660156 3.828125 -0.640625 C 3.859375 -0.628906 3.894531 -0.613281 3.9375 -0.59375 C 3.988281 -0.582031 4.019531 -0.570312 4.03125 -0.5625 C 4.050781 -0.5625 4.066406 -0.554688 4.078125 -0.546875 C 4.097656 -0.546875 4.113281 -0.546875 4.125 -0.546875 C 4.351562 -0.441406 4.445312 -0.269531 4.40625 -0.03125 L 4.25 0.78125 L 3.203125 0.578125 L 1.34375 0.25 Z M 0.28125 0.046875"/></g><g id="w"><path d="M 0.84375 -5.015625 C 0.9375 -5.785156 1.140625 -6.457031 1.453125 -7.03125 C 1.796875 -7.625 2.210938 -8.125 2.703125 -8.53125 C 3.222656 -8.945312 3.804688 -9.238281 4.453125 -9.40625 C 5.128906 -9.582031 5.84375 -9.625 6.59375 -9.53125 C 7.375 -9.4375 8.050781 -9.222656 8.625 -8.890625 C 9.238281 -8.523438 9.726562 -8.097656 10.09375 -7.609375 C 10.476562 -7.097656 10.757812 -6.503906 10.9375 -5.828125 C 11.113281 -5.179688 11.15625 -4.484375 11.0625 -3.734375 C 10.96875 -2.984375 10.753906 -2.3125 10.421875 -1.71875 C 10.078125 -1.113281 9.660156 -0.613281 9.171875 -0.21875 C 8.671875 0.175781 8.085938 0.460938 7.421875 0.640625 C 6.742188 0.828125 6.035156 0.875 5.296875 0.78125 C 4.546875 0.6875 3.863281 0.46875 3.25 0.125 C 2.664062 -0.207031 2.175781 -0.628906 1.78125 -1.140625 C 1.382812 -1.671875 1.101562 -2.265625 0.9375 -2.921875 C 0.769531 -3.535156 0.738281 -4.234375 0.84375 -5.015625 Z M 2.75 -4.78125 C 2.675781 -4.21875 2.6875 -3.707031 2.78125 -3.25 C 2.875 -2.789062 3.046875 -2.394531 3.296875 -2.0625 C 3.515625 -1.738281 3.816406 -1.460938 4.203125 -1.234375 C 4.546875 -1.023438 4.976562 -0.882812 5.5 -0.8125 C 6.019531 -0.75 6.472656 -0.78125 6.859375 -0.90625 C 7.273438 -1.019531 7.640625 -1.210938 7.953125 -1.484375 C 8.273438 -1.765625 8.53125 -2.109375 8.71875 -2.515625 C 8.925781 -2.992188 9.066406 -3.484375 9.140625 -3.984375 C 9.191406 -4.472656 9.171875 -4.976562 9.078125 -5.5 C 9.015625 -5.925781 8.851562 -6.320312 8.59375 -6.6875 C 8.351562 -7.03125 8.050781 -7.3125 7.6875 -7.53125 C 7.34375 -7.738281 6.910156 -7.875 6.390625 -7.9375 C 5.867188 -8.007812 5.414062 -7.984375 5.03125 -7.859375 C 4.601562 -7.742188 4.238281 -7.546875 3.9375 -7.265625 C 3.625 -7.003906 3.359375 -6.660156 3.140625 -6.234375 C 2.941406 -5.816406 2.8125 -5.332031 2.75 -4.78125 Z M 2.75 -4.78125"/></g><g id="x"><path d="M 0.28125 0.015625 L 0.328125 -0.8125 C 0.335938 -1.050781 0.457031 -1.191406 0.6875 -1.234375 C 0.71875 -1.234375 0.75 -1.238281 0.78125 -1.25 C 0.832031 -1.25 0.898438 -1.257812 0.984375 -1.28125 C 1.015625 -1.28125 1.050781 -1.28125 1.09375 -1.28125 C 1.132812 -1.289062 1.1875 -1.296875 1.25 -1.296875 C 1.320312 -1.304688 1.378906 -1.316406 1.421875 -1.328125 L 1.796875 -8.703125 C 1.753906 -8.710938 1.695312 -8.71875 1.625 -8.71875 C 1.5625 -8.726562 1.507812 -8.738281 1.46875 -8.75 C 1.4375 -8.769531 1.40625 -8.78125 1.375 -8.78125 C 1.34375 -8.78125 1.300781 -8.789062 1.25 -8.8125 C 1.207031 -8.832031 1.179688 -8.84375 1.171875 -8.84375 C 1.148438 -8.84375 1.128906 -8.84375 1.109375 -8.84375 L 1.078125 -8.859375 C 0.847656 -8.921875 0.738281 -9.070312 0.75 -9.3125 L 0.796875 -10.140625 L 1.875 -10.09375 L 2.84375 -10.03125 C 2.875 -10.03125 2.914062 -10.023438 2.96875 -10.015625 C 3.019531 -10.015625 3.050781 -10.015625 3.0625 -10.015625 C 3.125 -10.003906 3.175781 -9.984375 3.21875 -9.953125 C 3.257812 -9.941406 3.296875 -9.914062 3.328125 -9.875 C 3.347656 -9.851562 3.394531 -9.789062 3.46875 -9.6875 L 8.453125 -2.640625 C 8.441406 -2.691406 8.429688 -2.851562 8.421875 -3.125 C 8.421875 -3.226562 8.425781 -3.378906 8.4375 -3.578125 L 8.671875 -8.34375 C 8.097656 -8.457031 7.800781 -8.515625 7.78125 -8.515625 C 7.539062 -8.578125 7.425781 -8.726562 7.4375 -8.96875 L 7.484375 -9.796875 L 8.75 -9.734375 L 10.421875 -9.65625 L 11.484375 -9.609375 L 11.4375 -8.78125 C 11.425781 -8.539062 11.300781 -8.398438 11.0625 -8.359375 L 11.046875 -8.34375 C 11.023438 -8.34375 11.003906 -8.34375 10.984375 -8.34375 C 10.972656 -8.34375 10.941406 -8.335938 10.890625 -8.328125 C 10.835938 -8.316406 10.796875 -8.3125 10.765625 -8.3125 C 10.734375 -8.3125 10.671875 -8.304688 10.578125 -8.296875 C 10.484375 -8.285156 10.40625 -8.273438 10.34375 -8.265625 L 9.90625 0.5 L 8.9375 0.453125 C 8.789062 0.441406 8.664062 0.414062 8.5625 0.375 C 8.46875 0.320312 8.375 0.226562 8.28125 0.09375 L 3.328125 -6.921875 C 3.335938 -6.703125 3.335938 -6.554688 3.328125 -6.484375 C 3.328125 -6.429688 3.320312 -6.359375 3.3125 -6.265625 C 3.3125 -6.171875 3.3125 -6.101562 3.3125 -6.0625 L 3.0625 -1.234375 C 3.226562 -1.210938 3.390625 -1.1875 3.546875 -1.15625 C 3.703125 -1.125 3.8125 -1.097656 3.875 -1.078125 C 3.9375 -1.066406 3.972656 -1.0625 3.984375 -1.0625 C 4.222656 -1 4.335938 -0.847656 4.328125 -0.609375 L 4.28125 0.21875 L 3 0.15625 L 1.359375 0.0625 Z M 0.28125 0.015625"/></g><g id="y"><path d="M 0.359375 -1.078125 C 0.359375 -1.222656 0.382812 -1.34375 0.4375 -1.4375 C 0.507812 -1.582031 0.570312 -1.6875 0.625 -1.75 C 0.695312 -1.8125 0.804688 -1.875 0.953125 -1.9375 C 1.054688 -1.988281 1.195312 -2.015625 1.375 -2.015625 C 1.5625 -2.015625 1.71875 -1.984375 1.84375 -1.921875 C 1.96875 -1.867188 2.070312 -1.78125 2.15625 -1.65625 C 2.25 -1.53125 2.316406 -1.40625 2.359375 -1.28125 C 2.410156 -1.125 2.4375 -0.972656 2.4375 -0.828125 C 2.4375 -0.585938 2.398438 -0.347656 2.328125 -0.109375 C 2.296875 0.0234375 2.195312 0.269531 2.03125 0.625 C 1.90625 0.875 1.742188 1.117188 1.546875 1.359375 C 1.347656 1.597656 1.128906 1.8125 0.890625 2 L 0.578125 1.71875 C 0.492188 1.644531 0.453125 1.5625 0.453125 1.46875 C 0.453125 1.425781 0.46875 1.382812 0.5 1.34375 C 0.539062 1.269531 0.570312 1.222656 0.59375 1.203125 C 0.625 1.171875 0.6875 1.101562 0.78125 1 C 0.789062 0.976562 0.8125 0.945312 0.84375 0.90625 C 0.882812 0.875 0.914062 0.84375 0.9375 0.8125 C 0.96875 0.78125 0.992188 0.75 1.015625 0.71875 C 1.128906 0.53125 1.191406 0.414062 1.203125 0.375 C 1.285156 0.195312 1.335938 0.0625 1.359375 -0.03125 C 1.191406 -0.03125 1.054688 -0.0507812 0.953125 -0.09375 C 0.816406 -0.15625 0.707031 -0.226562 0.625 -0.3125 C 0.550781 -0.40625 0.488281 -0.515625 0.4375 -0.640625 C 0.382812 -0.742188 0.359375 -0.890625 0.359375 -1.078125 Z M 0.359375 -1.078125"/></g><g id="z"><path d="M 0.21875 -0.4375 L 0.203125 -0.6875 L 0.03125 -3.03125 L 0.09375 -3.03125 L 0.265625 -3.046875 L 0.84375 -3.09375 C 1.007812 -3.101562 1.117188 -3.03125 1.171875 -2.875 C 1.210938 -2.769531 1.28125 -2.390625 1.375 -1.734375 C 1.789062 -1.640625 2.4375 -1.625 3.3125 -1.6875 C 3.851562 -1.726562 4.265625 -1.882812 4.546875 -2.15625 C 4.804688 -2.425781 4.921875 -2.800781 4.890625 -3.28125 C 4.867188 -3.53125 4.785156 -3.742188 4.640625 -3.921875 C 4.503906 -4.078125 4.320312 -4.203125 4.09375 -4.296875 C 3.8125 -4.398438 3.550781 -4.484375 3.3125 -4.546875 C 2.8125 -4.648438 2.523438 -4.710938 2.453125 -4.734375 C 2.222656 -4.785156 1.925781 -4.875 1.5625 -5 C 1.300781 -5.101562 1.039062 -5.253906 0.78125 -5.453125 C 0.539062 -5.660156 0.34375 -5.914062 0.1875 -6.21875 C 0.03125 -6.5625 -0.0625 -6.945312 -0.09375 -7.375 C -0.125 -7.757812 -0.078125 -8.125 0.046875 -8.46875 C 0.160156 -8.820312 0.351562 -9.144531 0.625 -9.4375 C 0.863281 -9.707031 1.195312 -9.953125 1.625 -10.171875 C 2.019531 -10.367188 2.484375 -10.484375 3.015625 -10.515625 C 4.003906 -10.585938 4.988281 -10.46875 5.96875 -10.15625 L 6.15625 -7.5625 L 6.09375 -7.5625 L 5.921875 -7.546875 L 5.34375 -7.5 C 5.164062 -7.488281 5.054688 -7.578125 5.015625 -7.765625 C 4.972656 -7.867188 4.90625 -8.238281 4.8125 -8.875 C 4.46875 -9.007812 3.910156 -9.046875 3.140625 -8.984375 C 2.890625 -8.972656 2.664062 -8.929688 2.46875 -8.859375 C 2.28125 -8.773438 2.125 -8.675781 2 -8.5625 C 1.875 -8.425781 1.785156 -8.28125 1.734375 -8.125 C 1.679688 -7.96875 1.664062 -7.789062 1.6875 -7.59375 C 1.695312 -7.375 1.773438 -7.179688 1.921875 -7.015625 C 2.054688 -6.859375 2.238281 -6.738281 2.46875 -6.65625 C 2.769531 -6.53125 3.03125 -6.441406 3.25 -6.390625 C 3.351562 -6.367188 3.515625 -6.328125 3.734375 -6.265625 C 3.960938 -6.210938 4.09375 -6.179688 4.125 -6.171875 C 4.257812 -6.140625 4.550781 -6.046875 5 -5.890625 C 5.28125 -5.785156 5.546875 -5.628906 5.796875 -5.421875 C 6.066406 -5.210938 6.257812 -4.984375 6.375 -4.734375 C 6.53125 -4.460938 6.625 -4.101562 6.65625 -3.65625 C 6.6875 -3.226562 6.632812 -2.800781 6.5 -2.375 C 6.375 -1.957031 6.171875 -1.59375 5.890625 -1.28125 C 5.617188 -0.957031 5.269531 -0.695312 4.84375 -0.5 C 4.445312 -0.300781 3.957031 -0.179688 3.375 -0.140625 L 3.171875 -0.125 C 2.285156 -0.0507812 1.300781 -0.15625 0.21875 -0.4375 Z M 0.21875 -0.4375"/></g><g id="A"><path d="M -0.765625 -7.734375 L -1.078125 -10.125 L -0.875 -10.15625 L -0.859375 -10.15625 L 7.0625 -11.1875 L 7.28125 -11.21875 L 7.59375 -8.828125 L 7.546875 -8.8125 L 7.375 -8.796875 L 6.8125 -8.71875 C 6.625 -8.695312 6.5 -8.773438 6.4375 -8.953125 C 6.375 -9.140625 6.328125 -9.320312 6.296875 -9.5 L 4.234375 -9.234375 L 5.15625 -2.078125 C 5.226562 -2.066406 5.3125 -2.0625 5.40625 -2.0625 C 5.5 -2.0625 5.5625 -2.0625 5.59375 -2.0625 C 5.625 -2.0625 5.660156 -2.054688 5.703125 -2.046875 C 5.753906 -2.046875 5.785156 -2.046875 5.796875 -2.046875 C 5.816406 -2.046875 5.835938 -2.039062 5.859375 -2.03125 C 5.878906 -2.03125 5.894531 -2.035156 5.90625 -2.046875 C 6.144531 -2.023438 6.28125 -1.898438 6.3125 -1.671875 L 6.421875 -0.84375 L 5.34375 -0.703125 L 3.46875 -0.453125 L 2.421875 -0.3125 L 2.3125 -1.140625 C 2.28125 -1.367188 2.378906 -1.523438 2.609375 -1.609375 L 2.640625 -1.609375 C 2.648438 -1.628906 2.664062 -1.640625 2.6875 -1.640625 C 2.695312 -1.640625 2.722656 -1.644531 2.765625 -1.65625 C 2.816406 -1.675781 2.859375 -1.691406 2.890625 -1.703125 C 2.921875 -1.710938 2.984375 -1.726562 3.078125 -1.75 C 3.171875 -1.78125 3.238281 -1.804688 3.28125 -1.828125 L 2.359375 -9 L 0.3125 -8.734375 C 0.320312 -8.484375 0.316406 -8.285156 0.296875 -8.140625 C 0.285156 -7.960938 0.195312 -7.863281 0.03125 -7.84375 L -0.546875 -7.765625 L -0.71875 -7.734375 Z M -0.765625 -7.734375"/></g><g id="B"><path d="M -0.796875 -5.046875 C -0.953125 -5.796875 -0.972656 -6.488281 -0.859375 -7.125 C -0.722656 -7.800781 -0.484375 -8.40625 -0.140625 -8.9375 C 0.210938 -9.5 0.675781 -9.96875 1.25 -10.34375 C 1.832031 -10.71875 2.492188 -10.976562 3.234375 -11.125 C 4.003906 -11.28125 4.71875 -11.296875 5.375 -11.171875 C 6.0625 -11.015625 6.660156 -10.757812 7.171875 -10.40625 C 7.691406 -10.050781 8.140625 -9.582031 8.515625 -9 C 8.890625 -8.4375 9.148438 -7.789062 9.296875 -7.0625 C 9.441406 -6.3125 9.453125 -5.597656 9.328125 -4.921875 C 9.203125 -4.242188 8.972656 -3.640625 8.640625 -3.109375 C 8.296875 -2.578125 7.832031 -2.125 7.25 -1.75 C 6.65625 -1.351562 5.992188 -1.082031 5.265625 -0.9375 C 4.523438 -0.789062 3.8125 -0.785156 3.125 -0.921875 C 2.46875 -1.035156 1.867188 -1.273438 1.328125 -1.640625 C 0.785156 -2.015625 0.328125 -2.484375 -0.046875 -3.046875 C -0.390625 -3.597656 -0.640625 -4.265625 -0.796875 -5.046875 Z M 1.078125 -5.421875 C 1.191406 -4.859375 1.363281 -4.375 1.59375 -3.96875 C 1.832031 -3.550781 2.117188 -3.226562 2.453125 -3 C 2.785156 -2.757812 3.164062 -2.59375 3.59375 -2.5 C 3.976562 -2.40625 4.429688 -2.410156 4.953125 -2.515625 C 5.460938 -2.617188 5.882812 -2.789062 6.21875 -3.03125 C 6.582031 -3.28125 6.863281 -3.578125 7.0625 -3.921875 C 7.289062 -4.285156 7.425781 -4.695312 7.46875 -5.15625 C 7.519531 -5.675781 7.492188 -6.1875 7.390625 -6.6875 C 7.296875 -7.164062 7.125 -7.632812 6.875 -8.09375 C 6.664062 -8.476562 6.382812 -8.800781 6.03125 -9.0625 C 5.695312 -9.320312 5.320312 -9.488281 4.90625 -9.5625 C 4.507812 -9.65625 4.054688 -9.648438 3.546875 -9.546875 C 3.023438 -9.441406 2.601562 -9.269531 2.28125 -9.03125 C 1.914062 -8.800781 1.628906 -8.503906 1.421875 -8.140625 C 1.210938 -7.796875 1.070312 -7.382812 1 -6.90625 C 0.945312 -6.457031 0.972656 -5.960938 1.078125 -5.421875 Z M 1.078125 -5.421875"/></g><g id="C"><path d="M 0.265625 -0.078125 L 0.046875 -0.875 C -0.015625 -1.101562 0.0625 -1.269531 0.28125 -1.375 L 0.3125 -1.390625 C 0.320312 -1.410156 0.335938 -1.421875 0.359375 -1.421875 C 0.398438 -1.441406 0.460938 -1.472656 0.546875 -1.515625 C 0.578125 -1.523438 0.609375 -1.539062 0.640625 -1.5625 C 0.679688 -1.582031 0.734375 -1.601562 0.796875 -1.625 C 0.859375 -1.65625 0.910156 -1.679688 0.953125 -1.703125 L -0.984375 -8.828125 C -1.023438 -8.828125 -1.078125 -8.816406 -1.140625 -8.796875 C -1.210938 -8.785156 -1.269531 -8.78125 -1.3125 -8.78125 C -1.351562 -8.78125 -1.390625 -8.773438 -1.421875 -8.765625 C -1.453125 -8.765625 -1.492188 -8.765625 -1.546875 -8.765625 C -1.597656 -8.765625 -1.628906 -8.765625 -1.640625 -8.765625 C -1.671875 -8.765625 -1.695312 -8.757812 -1.71875 -8.75 C -1.96875 -8.75 -2.125 -8.863281 -2.1875 -9.09375 L -2.390625 -9.890625 L -1.34375 -10.171875 L 1.671875 -10.984375 C 2.328125 -11.160156 2.914062 -11.238281 3.4375 -11.21875 C 3.925781 -11.195312 4.378906 -11.082031 4.796875 -10.875 C 5.171875 -10.695312 5.492188 -10.4375 5.765625 -10.09375 C 6.015625 -9.75 6.203125 -9.347656 6.328125 -8.890625 C 6.460938 -8.398438 6.503906 -7.941406 6.453125 -7.515625 C 6.378906 -7.066406 6.226562 -6.664062 6 -6.3125 C 5.78125 -5.957031 5.445312 -5.625 5 -5.3125 C 4.59375 -5.03125 4.054688 -4.800781 3.390625 -4.625 L 2.1875 -4.296875 L 2.765625 -2.1875 C 2.804688 -2.1875 2.875 -2.191406 2.96875 -2.203125 C 3.070312 -2.210938 3.144531 -2.222656 3.1875 -2.234375 C 3.21875 -2.234375 3.253906 -2.234375 3.296875 -2.234375 C 3.347656 -2.234375 3.378906 -2.234375 3.390625 -2.234375 C 3.410156 -2.242188 3.425781 -2.25 3.4375 -2.25 C 3.457031 -2.25 3.472656 -2.25 3.484375 -2.25 C 3.722656 -2.257812 3.875 -2.148438 3.9375 -1.921875 L 4.15625 -1.125 L 3.125 -0.84375 L 1.3125 -0.359375 Z M 1.796875 -5.734375 L 3 -6.0625 C 3.320312 -6.15625 3.601562 -6.273438 3.84375 -6.421875 C 4.082031 -6.578125 4.257812 -6.753906 4.375 -6.953125 C 4.5 -7.140625 4.566406 -7.351562 4.578125 -7.59375 C 4.585938 -7.84375 4.554688 -8.109375 4.484375 -8.390625 C 4.410156 -8.640625 4.3125 -8.863281 4.1875 -9.0625 C 4.050781 -9.257812 3.878906 -9.410156 3.671875 -9.515625 C 3.472656 -9.617188 3.234375 -9.675781 2.953125 -9.6875 C 2.671875 -9.707031 2.367188 -9.671875 2.046875 -9.578125 L 0.84375 -9.25 Z M 1.796875 -5.734375"/></g><g id="D"><path d="M 0.265625 -0.09375 L -0.03125 -0.875 C -0.113281 -1.09375 -0.0546875 -1.269531 0.140625 -1.40625 L 0.171875 -1.421875 C 0.179688 -1.429688 0.195312 -1.441406 0.21875 -1.453125 C 0.269531 -1.484375 0.328125 -1.523438 0.390625 -1.578125 C 0.421875 -1.585938 0.457031 -1.601562 0.5 -1.625 C 0.539062 -1.644531 0.585938 -1.664062 0.640625 -1.6875 C 0.703125 -1.71875 0.753906 -1.742188 0.796875 -1.765625 L -1.78125 -8.703125 C -1.832031 -8.703125 -1.890625 -8.6875 -1.953125 -8.65625 C -2.015625 -8.632812 -2.066406 -8.625 -2.109375 -8.625 C -2.160156 -8.625 -2.203125 -8.617188 -2.234375 -8.609375 C -2.265625 -8.597656 -2.300781 -8.585938 -2.34375 -8.578125 C -2.394531 -8.578125 -2.425781 -8.578125 -2.4375 -8.578125 C -2.46875 -8.578125 -2.5 -8.570312 -2.53125 -8.5625 C -2.757812 -8.53125 -2.914062 -8.625 -3 -8.84375 L -3.28125 -9.625 L -2.265625 -10 L 0.65625 -11.09375 C 1.289062 -11.332031 1.867188 -11.460938 2.390625 -11.484375 C 2.890625 -11.515625 3.351562 -11.445312 3.78125 -11.28125 C 4.164062 -11.132812 4.507812 -10.898438 4.8125 -10.578125 C 5.09375 -10.265625 5.316406 -9.890625 5.484375 -9.453125 C 5.660156 -8.972656 5.742188 -8.515625 5.734375 -8.078125 C 5.710938 -7.617188 5.601562 -7.207031 5.40625 -6.84375 C 5.21875 -6.457031 4.910156 -6.097656 4.484375 -5.765625 C 4.109375 -5.441406 3.597656 -5.160156 2.953125 -4.921875 L 1.78125 -4.484375 L 2.546875 -2.421875 C 2.585938 -2.429688 2.65625 -2.445312 2.75 -2.46875 C 2.851562 -2.488281 2.921875 -2.507812 2.953125 -2.53125 C 2.992188 -2.53125 3.035156 -2.53125 3.078125 -2.53125 C 3.128906 -2.539062 3.160156 -2.546875 3.171875 -2.546875 C 3.179688 -2.554688 3.195312 -2.5625 3.21875 -2.5625 C 3.238281 -2.5625 3.253906 -2.5625 3.265625 -2.5625 C 3.503906 -2.59375 3.664062 -2.5 3.75 -2.28125 L 4.046875 -1.5 L 3.03125 -1.125 L 1.28125 -0.46875 Z M 1.265625 -5.875 L 2.4375 -6.3125 C 2.75 -6.425781 3.015625 -6.570312 3.234375 -6.75 C 3.460938 -6.9375 3.625 -7.128906 3.71875 -7.328125 C 3.832031 -7.523438 3.878906 -7.742188 3.859375 -7.984375 C 3.859375 -8.234375 3.804688 -8.5 3.703125 -8.78125 C 3.617188 -9.019531 3.492188 -9.226562 3.328125 -9.40625 C 3.191406 -9.59375 3.007812 -9.726562 2.78125 -9.8125 C 2.582031 -9.90625 2.335938 -9.941406 2.046875 -9.921875 C 1.765625 -9.898438 1.46875 -9.832031 1.15625 -9.71875 L -0.015625 -9.28125 Z M 1.265625 -5.875"/></g><g id="E"><path d="M -1.90625 -4.71875 C -2.226562 -5.425781 -2.398438 -6.101562 -2.421875 -6.75 C -2.453125 -7.4375 -2.359375 -8.082031 -2.140625 -8.6875 C -1.921875 -9.3125 -1.570312 -9.867188 -1.09375 -10.359375 C -0.625 -10.859375 -0.0390625 -11.265625 0.65625 -11.578125 C 1.363281 -11.898438 2.054688 -12.066406 2.734375 -12.078125 C 3.441406 -12.085938 4.082031 -11.976562 4.65625 -11.75 C 5.238281 -11.519531 5.785156 -11.164062 6.296875 -10.6875 C 6.765625 -10.21875 7.15625 -9.640625 7.46875 -8.953125 C 7.78125 -8.265625 7.957031 -7.582031 8 -6.90625 C 8.019531 -6.207031 7.925781 -5.5625 7.71875 -4.96875 C 7.488281 -4.363281 7.144531 -3.8125 6.6875 -3.3125 C 6.1875 -2.8125 5.601562 -2.410156 4.9375 -2.109375 C 4.238281 -1.796875 3.546875 -1.625 2.859375 -1.59375 C 2.179688 -1.5625 1.535156 -1.664062 0.921875 -1.90625 C 0.316406 -2.144531 -0.226562 -2.5 -0.71875 -2.96875 C -1.1875 -3.414062 -1.582031 -4 -1.90625 -4.71875 Z M -0.15625 -5.515625 C 0.0820312 -4.992188 0.359375 -4.566406 0.671875 -4.234375 C 0.984375 -3.890625 1.332031 -3.632812 1.71875 -3.46875 C 2.09375 -3.320312 2.5 -3.25 2.9375 -3.25 C 3.34375 -3.238281 3.789062 -3.34375 4.28125 -3.5625 C 4.75 -3.78125 5.113281 -4.039062 5.375 -4.34375 C 5.675781 -4.664062 5.882812 -5.019531 6 -5.40625 C 6.144531 -5.8125 6.1875 -6.238281 6.125 -6.6875 C 6.050781 -7.195312 5.910156 -7.6875 5.703125 -8.15625 C 5.503906 -8.601562 5.234375 -9.023438 4.890625 -9.421875 C 4.597656 -9.753906 4.25 -10.007812 3.84375 -10.1875 C 3.46875 -10.363281 3.0625 -10.441406 2.625 -10.421875 C 2.226562 -10.429688 1.796875 -10.328125 1.328125 -10.109375 C 0.835938 -9.890625 0.457031 -9.628906 0.1875 -9.328125 C -0.101562 -9.015625 -0.3125 -8.65625 -0.4375 -8.25 C -0.570312 -7.875 -0.613281 -7.445312 -0.5625 -6.96875 C -0.519531 -6.5 -0.382812 -6.015625 -0.15625 -5.515625 Z M -0.15625 -5.515625"/></g><g id="F"><path d="M 0.25 -0.125 L -0.140625 -0.859375 C -0.253906 -1.066406 -0.222656 -1.25 -0.046875 -1.40625 C -0.015625 -1.414062 0.0078125 -1.4375 0.03125 -1.46875 C 0.0703125 -1.5 0.125 -1.546875 0.1875 -1.609375 C 0.21875 -1.617188 0.25 -1.640625 0.28125 -1.671875 C 0.3125 -1.703125 0.351562 -1.734375 0.40625 -1.765625 C 0.46875 -1.804688 0.515625 -1.84375 0.546875 -1.875 L -2.921875 -8.390625 C -2.972656 -8.378906 -3.023438 -8.359375 -3.078125 -8.328125 C -3.140625 -8.304688 -3.191406 -8.289062 -3.234375 -8.28125 C -3.273438 -8.269531 -3.3125 -8.257812 -3.34375 -8.25 C -3.375 -8.226562 -3.410156 -8.210938 -3.453125 -8.203125 C -3.503906 -8.191406 -3.53125 -8.1875 -3.53125 -8.1875 C -3.570312 -8.175781 -3.609375 -8.164062 -3.640625 -8.15625 C -3.859375 -8.09375 -4.023438 -8.164062 -4.140625 -8.375 L -4.53125 -9.109375 L -3.578125 -9.625 L -1.921875 -10.5 L -0.96875 -11.015625 L -0.578125 -10.28125 C -0.460938 -10.070312 -0.503906 -9.882812 -0.703125 -9.71875 C -0.722656 -9.695312 -0.742188 -9.675781 -0.765625 -9.65625 C -0.785156 -9.625 -0.835938 -9.582031 -0.921875 -9.53125 C -0.960938 -9.507812 -1.023438 -9.46875 -1.109375 -9.40625 C -1.191406 -9.34375 -1.242188 -9.296875 -1.265625 -9.265625 L 2.125 -2.890625 L 5.015625 -4.4375 C 4.859375 -4.78125 4.78125 -4.960938 4.78125 -4.984375 C 4.726562 -5.171875 4.78125 -5.304688 4.9375 -5.390625 L 5.625 -5.75 L 6.28125 -4.484375 L 6.40625 -4.25 L 6.765625 -3.59375 L 6.453125 -3.4375 L 6.40625 -3.421875 L 1.203125 -0.640625 Z M 0.25 -0.125"/></g><g id="G"><path d="M 0.234375 -0.140625 L -0.203125 -0.84375 C -0.328125 -1.050781 -0.300781 -1.238281 -0.125 -1.40625 C -0.09375 -1.414062 -0.0703125 -1.4375 -0.0625 -1.46875 C -0.0078125 -1.507812 0.0390625 -1.5625 0.09375 -1.625 C 0.125 -1.632812 0.15625 -1.648438 0.1875 -1.671875 C 0.21875 -1.703125 0.257812 -1.738281 0.3125 -1.78125 C 0.363281 -1.820312 0.40625 -1.859375 0.4375 -1.890625 L -3.40625 -8.203125 C -3.445312 -8.191406 -3.492188 -8.171875 -3.546875 -8.140625 C -3.609375 -8.109375 -3.660156 -8.085938 -3.703125 -8.078125 C -3.742188 -8.066406 -3.78125 -8.054688 -3.8125 -8.046875 C -3.832031 -8.023438 -3.867188 -8.003906 -3.921875 -7.984375 C -3.972656 -7.972656 -4.003906 -7.96875 -4.015625 -7.96875 C -4.035156 -7.957031 -4.0625 -7.945312 -4.09375 -7.9375 C -4.320312 -7.851562 -4.5 -7.914062 -4.625 -8.125 L -5.046875 -8.828125 L -4.125 -9.390625 L -2.515625 -10.375 L -1.59375 -10.921875 L -1.171875 -10.21875 C -1.046875 -10.007812 -1.070312 -9.820312 -1.25 -9.65625 C -1.269531 -9.644531 -1.296875 -9.625 -1.328125 -9.59375 C -1.347656 -9.5625 -1.394531 -9.519531 -1.46875 -9.46875 C -1.507812 -9.445312 -1.566406 -9.398438 -1.640625 -9.328125 C -1.722656 -9.265625 -1.773438 -9.21875 -1.796875 -9.1875 L 1.953125 -3.015625 L 4.75 -4.71875 C 4.570312 -5.050781 4.484375 -5.226562 4.484375 -5.25 C 4.421875 -5.425781 4.46875 -5.5625 4.625 -5.65625 L 5.28125 -6.0625 L 6.015625 -4.859375 L 6.15625 -4.625 L 6.546875 -3.984375 L 6.25 -3.796875 L 6.203125 -3.78125 L 1.15625 -0.703125 Z M 0.234375 -0.140625"/></g><g id="H"><path d="M -5.203125 -7.765625 L -5.671875 -8.453125 L -4.796875 -9.0625 L -3.25 -10.15625 L -2.328125 -10.796875 L -1.859375 -10.109375 C -1.722656 -9.910156 -1.738281 -9.722656 -1.90625 -9.546875 C -1.914062 -9.535156 -1.925781 -9.523438 -1.9375 -9.515625 C -1.945312 -9.503906 -1.957031 -9.492188 -1.96875 -9.484375 C -1.976562 -9.472656 -2 -9.445312 -2.03125 -9.40625 C -2.070312 -9.363281 -2.109375 -9.328125 -2.140625 -9.296875 C -2.148438 -9.296875 -2.253906 -9.203125 -2.453125 -9.015625 L 0.234375 -5.171875 C 0.484375 -4.828125 0.722656 -4.566406 0.953125 -4.390625 C 1.203125 -4.210938 1.488281 -4.078125 1.8125 -3.984375 C 2.09375 -3.921875 2.390625 -3.925781 2.703125 -4 C 3.003906 -4.050781 3.304688 -4.1875 3.609375 -4.40625 C 3.921875 -4.625 4.15625 -4.863281 4.3125 -5.125 C 4.476562 -5.414062 4.578125 -5.691406 4.609375 -5.953125 C 4.648438 -6.234375 4.625 -6.539062 4.53125 -6.875 C 4.40625 -7.238281 4.25 -7.5625 4.0625 -7.84375 L 1.359375 -11.6875 C 1.117188 -11.5625 0.984375 -11.488281 0.953125 -11.46875 C 0.929688 -11.457031 0.890625 -11.441406 0.828125 -11.421875 C 0.773438 -11.398438 0.742188 -11.390625 0.734375 -11.390625 C 0.710938 -11.378906 0.695312 -11.363281 0.6875 -11.34375 L 0.640625 -11.328125 C 0.410156 -11.234375 0.226562 -11.285156 0.09375 -11.484375 L -0.375 -12.171875 L 0.5625 -12.828125 L 2.09375 -13.90625 L 2.984375 -14.53125 L 3.453125 -13.84375 C 3.585938 -13.644531 3.570312 -13.453125 3.40625 -13.265625 L 3.390625 -13.25 C 3.367188 -13.238281 3.351562 -13.226562 3.34375 -13.21875 C 3.332031 -13.207031 3.3125 -13.179688 3.28125 -13.140625 C 3.257812 -13.097656 3.234375 -13.070312 3.203125 -13.0625 C 3.191406 -13.039062 3.164062 -13.007812 3.125 -12.96875 C 3.09375 -12.9375 3.050781 -12.898438 3 -12.859375 C 2.945312 -12.828125 2.910156 -12.796875 2.890625 -12.765625 L 5.59375 -8.921875 C 5.945312 -8.410156 6.1875 -7.894531 6.3125 -7.375 C 6.445312 -6.820312 6.472656 -6.300781 6.390625 -5.8125 C 6.304688 -5.289062 6.117188 -4.800781 5.828125 -4.34375 C 5.523438 -3.875 5.097656 -3.445312 4.546875 -3.0625 C 4.003906 -2.675781 3.472656 -2.425781 2.953125 -2.3125 C 2.398438 -2.1875 1.863281 -2.171875 1.34375 -2.265625 C 0.832031 -2.359375 0.347656 -2.554688 -0.109375 -2.859375 C -0.535156 -3.148438 -0.929688 -3.554688 -1.296875 -4.078125 L -4 -7.921875 C -4.050781 -7.898438 -4.117188 -7.863281 -4.203125 -7.8125 C -4.296875 -7.769531 -4.351562 -7.742188 -4.375 -7.734375 C -4.394531 -7.710938 -4.429688 -7.695312 -4.484375 -7.6875 C -4.535156 -7.675781 -4.566406 -7.664062 -4.578125 -7.65625 C -4.585938 -7.644531 -4.601562 -7.632812 -4.625 -7.625 L -4.671875 -7.609375 C -4.890625 -7.515625 -5.066406 -7.566406 -5.203125 -7.765625 Z M -5.203125 -7.765625"/></g><g id="I"><path d="M -4.703125 -6.171875 L -6.21875 -8.046875 L -6.0625 -8.1875 L -6.046875 -8.1875 L 0.15625 -13.234375 L 0.328125 -13.375 L 1.84375 -11.5 L 1.8125 -11.46875 L 1.671875 -11.359375 L 1.234375 -10.984375 C 1.085938 -10.867188 0.941406 -10.867188 0.796875 -10.984375 C 0.640625 -11.117188 0.5 -11.253906 0.375 -11.390625 L -1.234375 -10.078125 L 3.3125 -4.46875 C 3.375 -4.5 3.441406 -4.535156 3.515625 -4.578125 C 3.597656 -4.628906 3.648438 -4.660156 3.671875 -4.671875 C 3.703125 -4.691406 3.738281 -4.710938 3.78125 -4.734375 C 3.820312 -4.765625 3.847656 -4.785156 3.859375 -4.796875 C 3.878906 -4.804688 3.894531 -4.8125 3.90625 -4.8125 C 3.925781 -4.820312 3.941406 -4.828125 3.953125 -4.828125 C 4.171875 -4.941406 4.359375 -4.90625 4.515625 -4.71875 L 5.03125 -4.078125 L 4.1875 -3.390625 L 2.71875 -2.203125 L 1.890625 -1.53125 L 1.375 -2.171875 C 1.21875 -2.359375 1.21875 -2.550781 1.375 -2.75 L 1.40625 -2.765625 C 1.40625 -2.785156 1.414062 -2.804688 1.4375 -2.828125 C 1.4375 -2.828125 1.453125 -2.84375 1.484375 -2.875 C 1.515625 -2.914062 1.539062 -2.945312 1.5625 -2.96875 C 1.582031 -3 1.625 -3.046875 1.6875 -3.109375 C 1.757812 -3.179688 1.8125 -3.238281 1.84375 -3.28125 L -2.71875 -8.90625 L -4.328125 -7.609375 C -4.171875 -7.390625 -4.0625 -7.21875 -4 -7.09375 C -3.925781 -6.925781 -3.953125 -6.789062 -4.078125 -6.6875 L -4.53125 -6.3125 L -4.671875 -6.203125 Z M -4.703125 -6.171875"/></g><g id="J"><path d="M 0.203125 -0.1875 L -0.34375 -0.796875 C -0.507812 -0.984375 -0.519531 -1.171875 -0.375 -1.359375 L -0.359375 -1.375 C -0.347656 -1.394531 -0.335938 -1.414062 -0.328125 -1.4375 C -0.285156 -1.476562 -0.242188 -1.53125 -0.203125 -1.59375 C -0.179688 -1.613281 -0.15625 -1.644531 -0.125 -1.6875 C -0.101562 -1.726562 -0.0664062 -1.769531 -0.015625 -1.8125 C 0.0234375 -1.851562 0.0625 -1.894531 0.09375 -1.9375 L -4.84375 -7.4375 C -4.882812 -7.414062 -4.929688 -7.382812 -4.984375 -7.34375 C -5.046875 -7.3125 -5.09375 -7.28125 -5.125 -7.25 C -5.164062 -7.226562 -5.195312 -7.207031 -5.21875 -7.1875 C -5.238281 -7.164062 -5.269531 -7.144531 -5.3125 -7.125 C -5.363281 -7.101562 -5.394531 -7.09375 -5.40625 -7.09375 C -5.4375 -7.082031 -5.460938 -7.066406 -5.484375 -7.046875 C -5.691406 -6.929688 -5.878906 -6.960938 -6.046875 -7.140625 L -6.59375 -7.75 L -5.78125 -8.46875 L -3.59375 -10.4375 L -3.046875 -9.828125 C -2.878906 -9.648438 -2.867188 -9.460938 -3.015625 -9.265625 C -3.015625 -9.253906 -3.019531 -9.238281 -3.03125 -9.21875 C -3.039062 -9.207031 -3.050781 -9.195312 -3.0625 -9.1875 C -3.070312 -9.175781 -3.085938 -9.148438 -3.109375 -9.109375 C -3.140625 -9.066406 -3.164062 -9.035156 -3.1875 -9.015625 C -3.207031 -8.992188 -3.25 -8.945312 -3.3125 -8.875 C -3.375 -8.800781 -3.414062 -8.742188 -3.4375 -8.703125 L 1.5 -3.203125 C 1.53125 -3.222656 1.585938 -3.257812 1.671875 -3.3125 C 1.753906 -3.363281 1.804688 -3.398438 1.828125 -3.421875 C 1.859375 -3.441406 1.894531 -3.460938 1.9375 -3.484375 C 1.976562 -3.503906 2.003906 -3.519531 2.015625 -3.53125 C 2.023438 -3.539062 2.039062 -3.546875 2.0625 -3.546875 C 2.082031 -3.554688 2.09375 -3.566406 2.09375 -3.578125 C 2.300781 -3.703125 2.488281 -3.671875 2.65625 -3.484375 L 3.203125 -2.875 L 1.015625 -0.90625 Z M 0.203125 -0.1875"/></g><g id="K"><path d="M -3.46875 -3.734375 C -4.007812 -4.273438 -4.410156 -4.847656 -4.671875 -5.453125 C -4.941406 -6.078125 -5.082031 -6.710938 -5.09375 -7.359375 C -5.101562 -8.023438 -4.972656 -8.664062 -4.703125 -9.28125 C -4.429688 -9.914062 -4.03125 -10.503906 -3.5 -11.046875 C -2.945312 -11.597656 -2.359375 -12.003906 -1.734375 -12.265625 C -1.078125 -12.535156 -0.441406 -12.660156 0.171875 -12.640625 C 0.804688 -12.628906 1.441406 -12.488281 2.078125 -12.21875 C 2.691406 -11.957031 3.265625 -11.5625 3.796875 -11.03125 C 4.335938 -10.5 4.742188 -9.921875 5.015625 -9.296875 C 5.285156 -8.648438 5.425781 -8.015625 5.4375 -7.390625 C 5.457031 -6.742188 5.332031 -6.109375 5.0625 -5.484375 C 4.78125 -4.828125 4.378906 -4.238281 3.859375 -3.71875 C 3.328125 -3.175781 2.738281 -2.769531 2.09375 -2.5 C 1.46875 -2.238281 0.828125 -2.109375 0.171875 -2.109375 C -0.484375 -2.117188 -1.117188 -2.257812 -1.734375 -2.53125 C -2.328125 -2.769531 -2.90625 -3.171875 -3.46875 -3.734375 Z M -2.109375 -5.09375 C -1.703125 -4.6875 -1.289062 -4.382812 -0.875 -4.1875 C -0.457031 -3.976562 -0.0351562 -3.867188 0.390625 -3.859375 C 0.785156 -3.835938 1.1875 -3.910156 1.59375 -4.078125 C 1.96875 -4.222656 2.34375 -4.484375 2.71875 -4.859375 C 3.082031 -5.222656 3.335938 -5.59375 3.484375 -5.96875 C 3.648438 -6.375 3.722656 -6.78125 3.703125 -7.1875 C 3.679688 -7.625 3.5625 -8.039062 3.34375 -8.4375 C 3.101562 -8.882812 2.800781 -9.289062 2.4375 -9.65625 C 2.09375 -10 1.6875 -10.296875 1.21875 -10.546875 C 0.832031 -10.753906 0.421875 -10.867188 -0.015625 -10.890625 C -0.441406 -10.910156 -0.851562 -10.835938 -1.25 -10.671875 C -1.625 -10.535156 -1.992188 -10.285156 -2.359375 -9.921875 C -2.734375 -9.546875 -2.992188 -9.164062 -3.140625 -8.78125 C -3.304688 -8.375 -3.367188 -7.96875 -3.328125 -7.5625 C -3.328125 -7.15625 -3.21875 -6.734375 -3 -6.296875 C -2.789062 -5.878906 -2.492188 -5.476562 -2.109375 -5.09375 Z M -2.109375 -5.09375"/></g><g id="L"><path d="M 0.1875 -0.21875 L -0.4375 -0.765625 C -0.625 -0.910156 -0.660156 -1.085938 -0.546875 -1.296875 C -0.523438 -1.328125 -0.507812 -1.351562 -0.5 -1.375 C -0.476562 -1.425781 -0.453125 -1.488281 -0.421875 -1.5625 C -0.398438 -1.582031 -0.375 -1.613281 -0.34375 -1.65625 C -0.320312 -1.695312 -0.289062 -1.742188 -0.25 -1.796875 C -0.21875 -1.847656 -0.191406 -1.894531 -0.171875 -1.9375 L -5.78125 -6.75 C -5.8125 -6.726562 -5.847656 -6.691406 -5.890625 -6.640625 C -5.941406 -6.585938 -5.988281 -6.550781 -6.03125 -6.53125 C -6.070312 -6.507812 -6.101562 -6.488281 -6.125 -6.46875 C -6.144531 -6.445312 -6.171875 -6.421875 -6.203125 -6.390625 C -6.242188 -6.359375 -6.269531 -6.335938 -6.28125 -6.328125 C -6.289062 -6.304688 -6.304688 -6.289062 -6.328125 -6.28125 L -6.359375 -6.265625 C -6.535156 -6.128906 -6.71875 -6.140625 -6.90625 -6.296875 L -7.53125 -6.84375 L -6.828125 -7.65625 L -6.203125 -8.390625 C -6.179688 -8.410156 -6.148438 -8.4375 -6.109375 -8.46875 C -6.078125 -8.507812 -6.054688 -8.535156 -6.046875 -8.546875 C -6.003906 -8.585938 -5.957031 -8.613281 -5.90625 -8.625 C -5.875 -8.65625 -5.828125 -8.671875 -5.765625 -8.671875 C -5.742188 -8.679688 -5.671875 -8.679688 -5.546875 -8.671875 L 3.078125 -8.3125 C 3.035156 -8.332031 2.90625 -8.421875 2.6875 -8.578125 C 2.601562 -8.640625 2.488281 -8.738281 2.34375 -8.875 L -1.296875 -11.984375 C -1.742188 -11.585938 -1.972656 -11.382812 -1.984375 -11.375 C -2.171875 -11.21875 -2.359375 -11.21875 -2.546875 -11.375 L -3.171875 -11.921875 L -2.34375 -12.890625 L -1.265625 -14.15625 L -0.5625 -14.96875 L 0.0625 -14.421875 C 0.25 -14.265625 0.28125 -14.078125 0.15625 -13.859375 L 0.15625 -13.828125 C 0.144531 -13.816406 0.128906 -13.800781 0.109375 -13.78125 C 0.109375 -13.78125 0.09375 -13.753906 0.0625 -13.703125 C 0.0390625 -13.660156 0.0195312 -13.625 0 -13.59375 C -0.0195312 -13.570312 -0.0507812 -13.523438 -0.09375 -13.453125 C -0.132812 -13.378906 -0.175781 -13.3125 -0.21875 -13.25 L 6.453125 -7.53125 L 5.828125 -6.796875 C 5.734375 -6.679688 5.632812 -6.601562 5.53125 -6.5625 C 5.445312 -6.507812 5.316406 -6.488281 5.140625 -6.5 L -3.453125 -6.875 C -3.273438 -6.75 -3.15625 -6.660156 -3.09375 -6.609375 C -3.0625 -6.578125 -3.007812 -6.53125 -2.9375 -6.46875 C -2.863281 -6.40625 -2.8125 -6.363281 -2.78125 -6.34375 L 0.890625 -3.1875 C 1.015625 -3.300781 1.132812 -3.410156 1.25 -3.515625 C 1.375 -3.617188 1.460938 -3.691406 1.515625 -3.734375 C 1.566406 -3.773438 1.59375 -3.800781 1.59375 -3.8125 C 1.78125 -3.945312 1.96875 -3.941406 2.15625 -3.796875 L 2.78125 -3.25 L 1.953125 -2.28125 L 0.890625 -1.03125 Z M 0.1875 -0.21875"/></g><g id="b"><path d="M 12.632812 -6.046875 C 16.9375 -8.230469 19.4375 -12.546875 19.480469 -17.03125 L 14.273438 -17.074219 C 14.269531 -14.476562 12.832031 -12.019531 10.261719 -10.714844 C 6.609375 -8.859375 2.390625 -10.269531 0.535156 -13.925781 C -1.320312 -17.578125 0.03125 -21.816406 3.6875 -23.671875 C 6.257812 -24.976562 9.089844 -24.683594 11.1875 -23.152344 L 14.230469 -27.382812 C 10.582031 -29.992188 5.625 -30.527344 1.320312 -28.339844 C -4.832031 -25.21875 -7.292969 -17.6875 -4.171875 -11.535156 C -1.046875 -5.382812 6.480469 -2.925781 12.632812 -6.046875 Z M 12.632812 -6.046875"/></g><g id="c"><path d="M 8.582031 -28.824219 L 11.824219 -19.597656 L 2.484375 -16.316406 L -0.757812 -25.542969 L -5.8125 -23.765625 L 2.257812 -0.792969 L 7.3125 -2.570312 L 4.058594 -11.835938 L 13.398438 -15.117188 L 16.65625 -5.851562 L 21.671875 -7.617188 L 13.597656 -30.589844 Z M 8.582031 -28.824219"/></g><g id="d"><path d="M 16.890625 -3.679688 L 22.484375 -4.898438 L 8.734375 -26.824219 L 2.867188 -25.546875 L -0.515625 0.113281 L 5.074219 -1.105469 L 5.566406 -5.90625 L 14.449219 -7.839844 Z M 6.003906 -10.570312 L 7 -20.671875 L 12.109375 -11.902344 Z M 6.003906 -10.570312"/></g><g id="e"><path d="M 2.382812 -0.226562 L 10.382812 -0.980469 C 17.050781 -1.609375 21.996094 -7.535156 21.363281 -14.242188 C 20.730469 -20.949219 14.765625 -25.851562 8.097656 -25.222656 L 0.0976562 -24.46875 Z M 7.269531 -5.457031 L 5.875 -20.242188 L 8.503906 -20.492188 C 12.339844 -20.851562 15.632812 -17.941406 16.027344 -13.742188 C 16.425781 -9.539062 13.734375 -6.066406 9.898438 -5.703125 Z M 7.269531 -5.457031"/></g><g id="f"><path d="M 3.523438 -14.9375 L 7.09375 -14.9375 L 7.738281 -24.679688 L 2.871094 -24.675781 Z M 3.523438 -14.9375"/></g><g id="g"><path d="M 9.84375 1.136719 C 14.371094 1.507812 18.433594 -0.847656 18.808594 -5.375 C 19.546875 -14.355469 8.199219 -13.046875 8.546875 -17.253906 C 8.660156 -18.628906 9.761719 -19.191406 11.058594 -19.085938 C 12.433594 -18.972656 13.746094 -18.089844 14.847656 -16.65625 L 18.6875 -19.761719 C 17.078125 -21.96875 14.480469 -23.566406 11.488281 -23.8125 C 7.644531 -24.128906 3.53125 -22.148438 3.132812 -17.292969 C 2.453125 -9.042969 13.820312 -10.101562 13.472656 -5.855469 C 13.363281 -4.519531 12.15625 -3.722656 10.296875 -3.875 C 8.070312 -4.058594 6.433594 -5.457031 5.703125 -7.429688 L 1.066406 -5.042969 C 2.394531 -1.878906 5.59375 0.785156 9.84375 1.136719 Z M 9.84375 1.136719"/></g><g id="h"><path d="M 8.644531 -2.808594 L 13.21875 -21.871094 L 8.011719 -23.121094 L 2.328125 0.558594 L 15.390625 3.691406 L 16.5 -0.925781 Z M 8.644531 -2.808594"/></g><g id="i"><path d="M 2.472656 0.792969 L 7.574219 2.429688 L 15.007812 -20.761719 L 9.90625 -22.394531 Z M 2.472656 0.792969"/></g><g id="j"><path d="M 9.027344 4.085938 C 13.226562 5.824219 17.8125 4.824219 19.550781 0.625 C 22.996094 -7.699219 11.792969 -9.921875 13.40625 -13.820312 C 13.933594 -15.09375 15.15625 -15.292969 16.359375 -14.796875 C 17.632812 -14.269531 18.613281 -13.027344 19.226562 -11.324219 L 23.828125 -13.109375 C 22.972656 -15.703125 20.984375 -18.019531 18.210938 -19.167969 C 14.648438 -20.640625 10.128906 -20.011719 8.265625 -15.511719 C 5.097656 -7.859375 16.246094 -5.398438 14.617188 -1.460938 C 14.105469 -0.222656 12.710938 0.167969 10.988281 -0.546875 C 8.925781 -1.402344 7.792969 -3.230469 7.699219 -5.335938 L 2.554688 -4.476562 C 2.855469 -1.058594 5.089844 2.457031 9.027344 4.085938 Z M 9.027344 4.085938"/></g><g id="k"><path d="M 26.820312 -13.292969 L 11.277344 -21.582031 L 9.042969 -17.390625 L 14.488281 -14.488281 L 5.265625 2.808594 L 9.957031 5.308594 L 19.179688 -11.988281 L 24.585938 -9.105469 Z M 26.820312 -13.292969"/></g><clipPath id="a"><path d="M 86 101 L 289 101 L 289 278.867188 L 86 278.867188 Z M 86 101"/></clipPath></defs><g clip-path="url(#a)"><path fill="#1C1C1C" d="M 102.835938 196.4375 L 182.628906 276.222656 C 185.257812 278.851562 189.515625 278.851562 192.140625 276.222656 L 271.933594 196.4375 C 293.691406 174.679688 293.691406 139.351562 271.933594 117.59375 C 250.175781 95.839844 214.84375 95.839844 193.085938 117.59375 C 193.085938 117.59375 187.382812 123.296875 187.382812 123.296875 C 187.382812 123.296875 181.6875 117.59375 181.6875 117.59375 C 159.925781 95.839844 124.597656 95.839844 102.835938 117.59375 C 81.078125 139.351562 81.078125 174.679688 102.835938 196.4375 Z M 102.835938 196.4375" fill-rule="evenodd"/></g><path fill="#034078" d="M 163.457031 238.035156 L 187.386719 261.960938 L 195.625 253.722656 C 191.625 251.804688 187.609375 249.097656 183.296875 245.777344 C 176.625 240.679688 170.023438 238.015625 163.457031 238.035156 Z M 163.457031 238.035156" fill-rule="evenodd"/><path fill="#034078" d="M 183.304688 205.421875 C 176.691406 200.371094 170.191406 197.640625 163.667969 197.625 C 157.222656 197.605469 150.886719 200.261719 144.535156 205.3125 L 144.144531 205.605469 C 141.40625 207.53125 138.648438 209.148438 135.882812 210.460938 L 151.84375 226.421875 C 164.914062 222.121094 178.148438 224.917969 191.46875 235.09375 L 191.492188 235.109375 C 196.734375 239.152344 201.136719 242.332031 206.089844 243.257812 L 248.929688 200.417969 C 245.363281 201.546875 241.796875 203.304688 238.222656 205.648438 C 220.109375 218.269531 201.824219 219.679688 183.304688 205.421875 Z M 183.304688 205.421875" fill-rule="evenodd"/><path fill="#1282A2" d="M 183.304688 165.0625 C 176.691406 160.011719 170.191406 157.285156 163.667969 157.265625 C 157.222656 157.25 150.886719 159.902344 144.535156 164.957031 L 144.140625 165.25 C 130.625 174.753906 116.808594 177.007812 102.703125 172.027344 C 104.757812 177.460938 107.972656 182.554688 112.347656 186.929688 L 125.527344 200.105469 C 129.144531 198.996094 132.726562 197.179688 136.289062 194.6875 C 145.34375 187.523438 154.523438 184.152344 163.703125 184.175781 C 172.875 184.203125 182.171875 187.632812 191.46875 194.734375 L 191.492188 194.753906 C 204.683594 204.914062 217.703125 203.582031 230.605469 194.566406 L 230.757812 194.464844 C 241.65625 187.285156 252.585938 184.421875 263.488281 185.824219 C 269.53125 179.335938 273.152344 171.402344 274.359375 163.183594 C 262.3125 156.457031 250.269531 157.382812 238.222656 165.292969 C 220.109375 177.914062 201.824219 179.320312 183.304688 165.0625 Z M 183.304688 165.0625" fill-rule="evenodd"/><path fill="#FFF" d="M 273.851562 148.050781 C 272.195312 140.371094 268.386719 133.066406 262.425781 127.101562 C 245.914062 110.59375 219.105469 110.59375 202.59375 127.101562 L 192.140625 137.558594 C 190.835938 138.859375 189.054688 139.570312 187.210938 139.523438 C 185.367188 139.476562 183.625 138.675781 182.390625 137.304688 C 182.390625 137.304688 172.175781 127.101562 172.175781 127.101562 C 155.667969 110.59375 128.859375 110.59375 112.347656 127.101562 C 104.355469 135.09375 100.234375 145.492188 99.976562 155.972656 C 112.394531 163.011719 124.5 162.570312 136.289062 154.328125 C 145.34375 147.164062 154.523438 143.792969 163.703125 143.820312 C 172.875 143.84375 182.171875 147.273438 191.46875 154.378906 L 191.492188 154.394531 C 204.683594 164.558594 217.703125 163.222656 230.605469 154.207031 L 230.757812 154.105469 C 245.121094 144.644531 259.488281 142.464844 273.851562 148.050781 Z M 273.851562 148.050781" fill-rule="evenodd"/><g fill="#001F54"><use x="80.224" y="82.293" xmlns:xlink="http://www.w3.org/1999/xlink" xlink:href="#b" xlink:type="simple" xlink:actuate="onLoad" xlink:show="embed"/></g><g fill="#001F54"><use x="105.425" y="69.683" xmlns:xlink="http://www.w3.org/1999/xlink" xlink:href="#c" xlink:type="simple" xlink:actuate="onLoad" xlink:show="embed"/></g><g fill="#001F54"><use x="131.459" y="60.769" xmlns:xlink="http://www.w3.org/1999/xlink" xlink:href="#d" xlink:type="simple" xlink:actuate="onLoad" xlink:show="embed"/></g><g fill="#001F54"><use x="155.54" y="55.605" xmlns:xlink="http://www.w3.org/1999/xlink" xlink:href="#e" xlink:type="simple" xlink:actuate="onLoad" xlink:show="embed"/></g><g fill="#001F54"><use x="181.935" y="53.543" xmlns:xlink="http://www.w3.org/1999/xlink" xlink:href="#f" xlink:type="simple" xlink:actuate="onLoad" xlink:show="embed"/></g><g fill="#001F54"><use x="195.056" y="53.462" xmlns:xlink="http://www.w3.org/1999/xlink" xlink:href="#g" xlink:type="simple" xlink:actuate="onLoad" xlink:show="embed"/></g><g fill="#001F54"><use x="228.84" y="57.508" xmlns:xlink="http://www.w3.org/1999/xlink" xlink:href="#h" xlink:type="simple" xlink:actuate="onLoad" xlink:show="embed"/></g><g fill="#001F54"><use x="246.741" y="62.004" xmlns:xlink="http://www.w3.org/1999/xlink" xlink:href="#i" xlink:type="simple" xlink:actuate="onLoad" xlink:show="embed"/></g><g fill="#001F54"><use x="259.147" y="65.899" xmlns:xlink="http://www.w3.org/1999/xlink" xlink:href="#j" xlink:type="simple" xlink:actuate="onLoad" xlink:show="embed"/></g><g fill="#001F54"><use x="279.024" y="74.303" xmlns:xlink="http://www.w3.org/1999/xlink" xlink:href="#k" xlink:type="simple" xlink:actuate="onLoad" xlink:show="embed"/></g><g fill="#D90429"><use x="46.611" y="278.954" xmlns:xlink="http://www.w3.org/1999/xlink" xlink:href="#l" xlink:type="simple" xlink:actuate="onLoad" xlink:show="embed"/></g><g fill="#D90429"><use x="54.099" y="287.649" xmlns:xlink="http://www.w3.org/1999/xlink" xlink:href="#m" xlink:type="simple" xlink:actuate="onLoad" xlink:show="embed"/></g><g fill="#D90429"><use x="65.398" y="298.957" xmlns:xlink="http://www.w3.org/1999/xlink" xlink:href="#n" xlink:type="simple" xlink:actuate="onLoad" xlink:show="embed"/></g><g fill="#D90429"><use x="73.995" y="306.375" xmlns:xlink="http://www.w3.org/1999/xlink" xlink:href="#o" xlink:type="simple" xlink:actuate="onLoad" xlink:show="embed"/></g><g fill="#D90429"><use x="85.014" y="314.523" xmlns:xlink="http://www.w3.org/1999/xlink" xlink:href="#p" xlink:type="simple" xlink:actuate="onLoad" xlink:show="embed"/></g><g fill="#D90429"><use x="98.56" y="322.96" xmlns:xlink="http://www.w3.org/1999/xlink" xlink:href="#q" xlink:type="simple" xlink:actuate="onLoad" xlink:show="embed"/></g><g fill="#D90429"><use x="106.956" y="327.454" xmlns:xlink="http://www.w3.org/1999/xlink" xlink:href="#r" xlink:type="simple" xlink:actuate="onLoad" xlink:show="embed"/></g><g fill="#D90429"><use x="118.951" y="332.83" xmlns:xlink="http://www.w3.org/1999/xlink" xlink:href="#s" xlink:type="simple" xlink:actuate="onLoad" xlink:show="embed"/></g><g fill="#D90429"><use x="128.659" y="336.514" xmlns:xlink="http://www.w3.org/1999/xlink" xlink:href="#t" xlink:type="simple" xlink:actuate="onLoad" xlink:show="embed"/></g><g fill="#D90429"><use x="141.526" y="340.364" xmlns:xlink="http://www.w3.org/1999/xlink" xlink:href="#u" xlink:type="simple" xlink:actuate="onLoad" xlink:show="embed"/></g><g fill="#D90429"><use x="152.512" y="342.829" xmlns:xlink="http://www.w3.org/1999/xlink" xlink:href="#v" xlink:type="simple" xlink:actuate="onLoad" xlink:show="embed"/></g><g fill="#D90429"><use x="159.362" y="344.099" xmlns:xlink="http://www.w3.org/1999/xlink" xlink:href="#w" xlink:type="simple" xlink:actuate="onLoad" xlink:show="embed"/></g><g fill="#D90429"><use x="172.463" y="345.659" xmlns:xlink="http://www.w3.org/1999/xlink" xlink:href="#x" xlink:type="simple" xlink:actuate="onLoad" xlink:show="embed"/></g><g fill="#D90429"><use x="186.012" y="346.172" xmlns:xlink="http://www.w3.org/1999/xlink" xlink:href="#y" xlink:type="simple" xlink:actuate="onLoad" xlink:show="embed"/></g><g fill="#D90429"><use x="196.608" y="345.957" xmlns:xlink="http://www.w3.org/1999/xlink" xlink:href="#z" xlink:type="simple" xlink:actuate="onLoad" xlink:show="embed"/></g><g fill="#D90429"><use x="206.076" y="345.229" xmlns:xlink="http://www.w3.org/1999/xlink" xlink:href="#A" xlink:type="simple" xlink:actuate="onLoad" xlink:show="embed"/></g><g fill="#D90429"><use x="217.321" y="343.708" xmlns:xlink="http://www.w3.org/1999/xlink" xlink:href="#B" xlink:type="simple" xlink:actuate="onLoad" xlink:show="embed"/></g><g fill="#D90429"><use x="230.196" y="341.009" xmlns:xlink="http://www.w3.org/1999/xlink" xlink:href="#C" xlink:type="simple" xlink:actuate="onLoad" xlink:show="embed"/></g><g fill="#D90429"><use x="246.085" y="336.321" xmlns:xlink="http://www.w3.org/1999/xlink" xlink:href="#D" xlink:type="simple" xlink:actuate="onLoad" xlink:show="embed"/></g><g fill="#D90429"><use x="256.46" y="332.403" xmlns:xlink="http://www.w3.org/1999/xlink" xlink:href="#E" xlink:type="simple" xlink:actuate="onLoad" xlink:show="embed"/></g><g fill="#D90429"><use x="268.389" y="326.882" xmlns:xlink="http://www.w3.org/1999/xlink" xlink:href="#F" xlink:type="simple" xlink:actuate="onLoad" xlink:show="embed"/></g><g fill="#D90429"><use x="277.483" y="321.963" xmlns:xlink="http://www.w3.org/1999/xlink" xlink:href="#G" xlink:type="simple" xlink:actuate="onLoad" xlink:show="embed"/></g><g fill="#D90429"><use x="286.338" y="316.539" xmlns:xlink="http://www.w3.org/1999/xlink" xlink:href="#H" xlink:type="simple" xlink:actuate="onLoad" xlink:show="embed"/></g><g fill="#D90429"><use x="297.258" y="308.72" xmlns:xlink="http://www.w3.org/1999/xlink" xlink:href="#I" xlink:type="simple" xlink:actuate="onLoad" xlink:show="embed"/></g><g fill="#D90429"><use x="305.932" y="301.544" xmlns:xlink="http://www.w3.org/1999/xlink" xlink:href="#J" xlink:type="simple" xlink:actuate="onLoad" xlink:show="embed"/></g><g fill="#D90429"><use x="311.128" y="296.902" xmlns:xlink="http://www.w3.org/1999/xlink" xlink:href="#K" xlink:type="simple" xlink:actuate="onLoad" xlink:show="embed"/></g><g fill="#D90429"><use x="320.38" y="287.497" xmlns:xlink="http://www.w3.org/1999/xlink" xlink:href="#L" xlink:type="simple" xlink:actuate="onLoad" xlink:show="embed"/></g></svg>