<svg xmlns="http://www.w3.org/2000/svg" width="187.5" viewBox="0 0 187.5 187.5" height="187.5" version="1.0"><path fill="#034078" d="M 165.90625 25.660156 L 161.171875 13.035156 C 159.789062 9.289062 156.238281 6.921875 152.492188 6.921875 C 151.308594 6.921875 150.324219 7.117188 149.335938 7.511719 L 18.164062 55.445312 C 13.234375 57.21875 10.867188 62.546875 12.640625 67.476562 L 17.375 80.101562 C 17.769531 81.285156 18.363281 82.074219 19.152344 83.058594 C 18.164062 84.636719 17.769531 86.214844 17.769531 88.1875 L 17.769531 171.035156 C 17.769531 176.359375 22.109375 180.894531 27.632812 180.894531 L 166.300781 180.894531 C 171.625 180.894531 176.164062 176.558594 176.164062 171.035156 L 176.164062 88.1875 C 176.164062 82.863281 171.824219 78.328125 166.300781 78.328125 L 49.332031 78.328125 L 160.382812 37.691406 C 165.117188 35.917969 167.679688 30.59375 165.90625 25.660156 Z M 110.28125 47.554688 L 116.789062 27.632812 L 134.34375 21.125 L 127.835938 41.046875 Z M 83.257812 57.613281 L 89.964844 37.691406 L 107.519531 31.183594 L 101.011719 51.105469 Z M 56.234375 67.476562 L 62.742188 47.554688 L 80.300781 41.046875 L 73.789062 60.96875 Z M 29.210938 77.339844 L 35.71875 57.417969 L 53.277344 50.910156 L 46.765625 70.832031 Z M 56.824219 86.214844 L 81.480469 104.953125 L 57.8125 104.953125 L 33.15625 86.214844 Z M 93.710938 86.214844 L 118.367188 104.953125 L 94.699219 104.953125 L 70.042969 86.214844 Z M 130.398438 86.214844 L 155.054688 104.953125 L 131.386719 104.953125 L 106.730469 86.214844 Z M 25.464844 90.359375 L 44.792969 105.152344 L 25.464844 105.152344 Z M 20.925781 62.941406 L 26.253906 60.96875 L 22.703125 72.015625 L 20.136719 64.914062 C 19.742188 63.925781 20.136719 63.136719 20.925781 62.941406 Z M 165.90625 173.007812 L 27.238281 173.007812 C 26.253906 173.007812 25.265625 172.21875 25.265625 171.035156 L 25.265625 112.84375 L 167.878906 112.84375 L 167.878906 171.035156 C 167.878906 172.21875 167.089844 173.007812 165.90625 173.007812 Z M 167.878906 88.1875 L 167.878906 104.757812 L 143.417969 86.214844 L 165.90625 86.214844 C 167.089844 86.214844 167.878906 87.203125 167.878906 88.1875 Z M 157.621094 30.199219 L 137.5 37.496094 L 144.011719 17.574219 L 151.902344 14.613281 C 152.097656 14.613281 152.296875 14.613281 152.492188 14.613281 C 153.085938 14.613281 153.675781 14.8125 153.875 15.601562 L 158.605469 28.226562 C 158.804688 29.210938 158.410156 30 157.621094 30.199219 Z M 157.621094 30.199219"/></svg>