<svg xmlns="http://www.w3.org/2000/svg" width="187.5" viewBox="0 0 187.5 187.5" height="187.5" version="1.0"><defs><clipPath id="a"><path d="M 3.464844 3.464844 L 184.214844 3.464844 L 184.214844 184.214844 L 3.464844 184.214844 Z M 3.464844 3.464844"/></clipPath></defs><g clip-path="url(#a)"><path fill="#034078" d="M 134.484375 173.140625 L 145.496094 166.214844 C 145.554688 166.179688 145.613281 166.140625 145.667969 166.097656 C 147.738281 164.574219 149.554688 162.796875 151.125 160.761719 C 152.695312 158.726562 153.953125 156.515625 154.898438 154.125 L 161.664062 137.054688 C 161.804688 136.707031 161.871094 136.34375 161.863281 135.96875 C 161.859375 135.597656 161.78125 135.238281 161.632812 134.894531 C 161.484375 134.550781 161.273438 134.246094 161.007812 133.984375 C 160.738281 133.726562 160.429688 133.527344 160.082031 133.386719 L 152.203125 130.265625 L 161.570312 106.636719 C 161.917969 106.773438 162.28125 106.839844 162.65625 106.835938 C 163.03125 106.832031 163.390625 106.753906 163.734375 106.605469 C 164.078125 106.457031 164.378906 106.246094 164.640625 105.976562 C 164.902344 105.710938 165.101562 105.402344 165.238281 105.050781 L 177.726562 73.546875 C 177.867188 73.199219 177.933594 72.835938 177.925781 72.464844 C 177.921875 72.089844 177.84375 71.730469 177.695312 71.386719 C 177.546875 71.042969 177.335938 70.738281 177.066406 70.480469 C 176.800781 70.21875 176.492188 70.019531 176.144531 69.882812 L 163.015625 64.675781 C 162.667969 64.539062 162.304688 64.472656 161.929688 64.480469 C 161.558594 64.484375 161.199219 64.5625 160.855469 64.710938 C 160.511719 64.859375 160.207031 65.066406 159.949219 65.335938 C 159.6875 65.605469 159.488281 65.914062 159.347656 66.261719 L 146.859375 97.765625 C 146.722656 98.117188 146.65625 98.476562 146.660156 98.851562 C 146.667969 99.226562 146.746094 99.585938 146.894531 99.929688 C 147.042969 100.273438 147.25 100.574219 147.519531 100.835938 C 147.789062 101.097656 148.097656 101.296875 148.445312 101.433594 L 139.078125 125.0625 L 131.199219 121.941406 C 130.851562 121.800781 130.492188 121.734375 130.117188 121.742188 C 129.742188 121.746094 129.382812 121.824219 129.039062 121.972656 C 128.695312 122.121094 128.394531 122.332031 128.132812 122.597656 C 127.871094 122.867188 127.671875 123.175781 127.535156 123.523438 L 121.1875 139.53125 C 120.113281 142.261719 119.488281 145.089844 119.316406 148.019531 C 119.144531 150.949219 119.429688 153.832031 120.175781 156.667969 L 121.394531 165.378906 C 106.632812 157.164062 87.109375 148.179688 71.246094 147.394531 L 71.246094 134.742188 L 86.789062 122.402344 C 88.910156 122.652344 91.039062 122.773438 93.171875 122.773438 C 94.988281 122.777344 96.800781 122.683594 98.609375 122.492188 C 109.011719 121.382812 116.996094 117.042969 121.703125 109.933594 C 132.589844 93.492188 125.5 63.382812 125.191406 62.109375 C 125.109375 61.765625 124.964844 61.445312 124.757812 61.152344 C 124.554688 60.859375 124.304688 60.613281 124.003906 60.417969 C 123.707031 60.222656 123.386719 60.085938 123.035156 60.011719 C 122.6875 59.9375 122.335938 59.929688 121.984375 59.988281 C 120.691406 60.199219 90.203125 65.425781 79.316406 81.867188 C 74.609375 88.972656 73.730469 98.019531 76.769531 108.03125 C 77.980469 111.957031 79.617188 115.695312 81.679688 119.246094 L 71.246094 127.53125 L 71.246094 75.875 C 74.925781 74.054688 78.347656 71.84375 81.519531 69.242188 C 89.582031 62.574219 93.839844 54.546875 93.839844 46.023438 C 93.839844 26.304688 71.304688 5.113281 70.347656 4.222656 C 70.085938 3.980469 69.789062 3.792969 69.457031 3.660156 C 69.125 3.53125 68.78125 3.464844 68.421875 3.464844 C 68.066406 3.464844 67.722656 3.53125 67.390625 3.660156 C 67.058594 3.792969 66.761719 3.980469 66.5 4.222656 C 62.253906 8.3125 58.375 12.722656 54.859375 17.453125 C 46.996094 28.027344 43.003906 37.640625 43.003906 46.023438 C 43.003906 54.546875 47.265625 62.574219 55.324219 69.242188 C 58.496094 71.84375 61.921875 74.054688 65.597656 75.875 L 65.597656 130.355469 L 55.167969 122.070312 C 57.230469 118.519531 58.867188 114.78125 60.078125 110.855469 C 63.117188 100.847656 62.234375 91.800781 57.53125 84.695312 C 46.644531 68.253906 16.15625 63.027344 14.863281 62.8125 C 14.511719 62.753906 14.160156 62.765625 13.8125 62.839844 C 13.460938 62.914062 13.140625 63.046875 12.839844 63.246094 C 12.542969 63.441406 12.292969 63.6875 12.085938 63.980469 C 11.882812 64.273438 11.738281 64.589844 11.65625 64.9375 C 11.347656 66.210938 4.257812 96.320312 15.144531 112.761719 C 19.851562 119.867188 27.835938 124.210938 38.238281 125.320312 C 40.042969 125.507812 41.855469 125.605469 43.675781 125.601562 C 45.808594 125.601562 47.9375 125.476562 50.058594 125.226562 L 65.597656 137.566406 L 65.597656 147.492188 C 65.503906 147.5 65.410156 147.503906 65.316406 147.515625 C 53.082031 148.738281 40.019531 154.503906 26.484375 164.660156 C 20.851562 168.871094 15.59375 173.507812 10.710938 178.566406 L 3.464844 178.566406 L 3.464844 184.214844 L 184.214844 184.214844 L 184.214844 178.566406 L 142.738281 178.566406 C 141.414062 177.648438 138.511719 175.679688 134.484375 173.140625 Z M 84.023438 84.988281 C 91.84375 73.179688 112.816406 67.703125 120.253906 66.089844 C 121.125 70.679688 121.691406 75.308594 121.957031 79.972656 C 122.585938 91.679688 120.867188 100.964844 116.992188 106.816406 C 109.0625 118.792969 91.445312 117.328125 86.738281 116.699219 C 84.316406 112.605469 76.097656 96.960938 84.023438 84.988281 Z M 19.855469 109.640625 C 12.035156 97.835938 15.179688 76.386719 16.597656 68.910156 C 21.164062 69.902344 25.644531 71.183594 30.042969 72.761719 C 41.066406 76.753906 48.945312 81.957031 52.820312 87.8125 C 60.753906 99.789062 52.523438 115.441406 50.105469 119.523438 C 45.398438 120.164062 27.8125 121.660156 19.855469 109.640625 Z M 163.558594 70.96875 L 171.4375 74.089844 L 161.027344 100.34375 L 153.152344 97.222656 Z M 153.695312 103.515625 L 156.320312 104.554688 L 146.953125 128.183594 L 144.328125 127.144531 Z M 125.746094 155.710938 C 125.730469 155.59375 125.707031 155.476562 125.675781 155.359375 C 125.0625 153.085938 124.820312 150.777344 124.949219 148.425781 C 125.082031 146.074219 125.578125 143.804688 126.441406 141.613281 L 131.746094 128.230469 L 155.375 137.597656 L 149.648438 152.042969 C 148.902344 153.925781 147.914062 155.667969 146.683594 157.273438 C 145.449219 158.878906 144.023438 160.285156 142.398438 161.492188 L 129.273438 169.746094 C 129.222656 169.777344 129.175781 169.8125 129.128906 169.847656 C 128.628906 169.546875 128.117188 169.242188 127.597656 168.9375 Z M 48.652344 46.023438 C 48.652344 31.863281 63.117188 15.710938 68.425781 10.261719 C 71.664062 13.585938 74.675781 17.105469 77.453125 20.820312 C 84.480469 30.269531 88.191406 38.984375 88.191406 46.023438 C 88.191406 52.867188 84.773438 59.183594 78.03125 64.800781 C 75.070312 67.234375 71.871094 69.289062 68.421875 70.96875 C 64.148438 68.90625 48.652344 60.4375 48.652344 46.023438 Z M 65.882812 153.136719 C 86.152344 151.105469 117.882812 169.34375 132.445312 178.566406 L 18.75 178.566406 C 27.210938 170.597656 45.96875 155.125 65.882812 153.136719 Z M 65.882812 153.136719"/></g><path fill="#034078" d="M 70.117188 56.5625 L 81.414062 48.089844 L 78.023438 43.570312 L 68.421875 50.773438 L 58.820312 43.570312 L 55.429688 48.089844 L 66.726562 56.5625 C 66.972656 56.746094 67.238281 56.882812 67.53125 56.980469 C 67.820312 57.078125 68.117188 57.125 68.421875 57.125 C 68.726562 57.125 69.027344 57.078125 69.316406 56.980469 C 69.605469 56.882812 69.871094 56.746094 70.117188 56.5625 Z M 70.117188 56.5625"/><path fill="#034078" d="M 68.421875 43.003906 C 68.992188 43.003906 69.515625 42.847656 69.988281 42.53125 L 78.460938 36.882812 L 75.328125 32.183594 L 68.421875 36.785156 L 61.515625 32.183594 L 58.382812 36.882812 L 66.855469 42.53125 C 67.332031 42.847656 67.851562 43.003906 68.421875 43.003906 Z M 68.421875 43.003906"/><path fill="#034078" d="M 94.886719 105.050781 L 109.007812 105.136719 L 109.042969 99.488281 L 97.039062 99.414062 L 93.75 87.871094 L 88.320312 89.417969 L 92.1875 103 C 92.273438 103.292969 92.398438 103.566406 92.574219 103.820312 C 92.746094 104.070312 92.953125 104.289062 93.195312 104.476562 C 93.4375 104.660156 93.707031 104.800781 93.996094 104.898438 C 94.285156 105 94.582031 105.046875 94.886719 105.050781 Z M 94.886719 105.050781"/><path fill="#034078" d="M 103.273438 93.800781 L 113.4375 94.429688 L 113.785156 88.789062 L 105.5 88.28125 L 102.785156 80.433594 L 97.449219 82.28125 L 100.777344 91.90625 C 100.964844 92.445312 101.285156 92.886719 101.738281 93.230469 C 102.191406 93.574219 102.703125 93.765625 103.273438 93.800781 Z M 103.273438 93.800781"/><path fill="#034078" d="M 39.824219 102.238281 L 27.820312 102.3125 L 27.855469 107.960938 L 41.976562 107.875 C 42.28125 107.871094 42.578125 107.824219 42.871094 107.722656 C 43.160156 107.625 43.425781 107.484375 43.667969 107.300781 C 43.910156 107.113281 44.121094 106.894531 44.292969 106.644531 C 44.464844 106.390625 44.59375 106.117188 44.675781 105.824219 L 48.546875 92.246094 L 43.113281 90.695312 Z M 39.824219 102.238281"/><path fill="#034078" d="M 36.085938 94.730469 L 39.414062 85.105469 L 34.078125 83.261719 L 31.363281 91.105469 L 23.078125 91.613281 L 23.425781 97.253906 L 33.589844 96.625 C 34.160156 96.589844 34.671875 96.398438 35.125 96.054688 C 35.578125 95.710938 35.898438 95.269531 36.085938 94.730469 Z M 36.085938 94.730469"/><path fill="#034078" d="M 69.835938 158.796875 C 69.1875 158.796875 68.542969 158.863281 67.90625 158.988281 C 67.269531 159.117188 66.652344 159.304688 66.054688 159.554688 C 65.453125 159.800781 64.886719 160.105469 64.347656 160.46875 C 63.804688 160.828125 63.308594 161.238281 62.847656 161.695312 C 62.390625 162.15625 61.980469 162.652344 61.621094 163.195312 C 61.257812 163.734375 60.953125 164.300781 60.707031 164.902344 C 60.457031 165.5 60.269531 166.117188 60.140625 166.753906 C 60.015625 167.390625 59.949219 168.035156 59.949219 168.683594 L 65.597656 168.683594 C 65.597656 168.40625 65.625 168.128906 65.679688 167.855469 C 65.734375 167.582031 65.816406 167.320312 65.921875 167.0625 C 66.027344 166.804688 66.15625 166.558594 66.3125 166.328125 C 66.46875 166.097656 66.644531 165.882812 66.839844 165.6875 C 67.035156 165.492188 67.25 165.316406 67.480469 165.160156 C 67.710938 165.003906 67.957031 164.875 68.214844 164.769531 C 68.472656 164.664062 68.734375 164.582031 69.007812 164.527344 C 69.28125 164.472656 69.558594 164.445312 69.835938 164.445312 C 70.113281 164.445312 70.390625 164.472656 70.660156 164.527344 C 70.933594 164.582031 71.199219 164.664062 71.457031 164.769531 C 71.714844 164.875 71.957031 165.003906 72.1875 165.160156 C 72.417969 165.316406 72.632812 165.492188 72.832031 165.6875 C 73.027344 165.882812 73.203125 166.097656 73.355469 166.328125 C 73.511719 166.558594 73.640625 166.804688 73.75 167.0625 C 73.855469 167.320312 73.9375 167.582031 73.988281 167.855469 C 74.042969 168.128906 74.070312 168.40625 74.070312 168.683594 L 79.71875 168.683594 C 79.71875 168.035156 79.65625 167.390625 79.527344 166.753906 C 79.402344 166.117188 79.214844 165.5 78.964844 164.902344 C 78.714844 164.300781 78.410156 163.734375 78.050781 163.195312 C 77.691406 162.652344 77.28125 162.15625 76.820312 161.695312 C 76.363281 161.238281 75.863281 160.828125 75.324219 160.46875 C 74.785156 160.105469 74.214844 159.800781 73.617188 159.554688 C 73.015625 159.304688 72.398438 159.117188 71.761719 158.988281 C 71.125 158.863281 70.484375 158.796875 69.835938 158.796875 Z M 69.835938 158.796875"/><path fill="#034078" d="M 95.253906 163.035156 C 94.605469 163.035156 93.960938 163.097656 93.324219 163.226562 C 92.6875 163.351562 92.070312 163.539062 91.472656 163.789062 C 90.871094 164.039062 90.304688 164.34375 89.765625 164.703125 C 89.222656 165.0625 88.726562 165.472656 88.265625 165.933594 C 87.808594 166.390625 87.398438 166.890625 87.039062 167.429688 C 86.675781 167.96875 86.371094 168.539062 86.125 169.136719 C 85.875 169.738281 85.6875 170.355469 85.558594 170.992188 C 85.433594 171.628906 85.367188 172.269531 85.367188 172.917969 L 91.015625 172.917969 C 91.015625 172.640625 91.042969 172.367188 91.097656 172.09375 C 91.152344 171.820312 91.234375 171.554688 91.339844 171.296875 C 91.445312 171.039062 91.574219 170.796875 91.730469 170.566406 C 91.886719 170.335938 92.0625 170.121094 92.257812 169.921875 C 92.453125 169.726562 92.667969 169.550781 92.898438 169.398438 C 93.128906 169.242188 93.375 169.113281 93.632812 169.003906 C 93.890625 168.898438 94.152344 168.816406 94.425781 168.765625 C 94.699219 168.710938 94.976562 168.683594 95.253906 168.683594 C 95.53125 168.683594 95.808594 168.710938 96.078125 168.765625 C 96.351562 168.816406 96.617188 168.898438 96.875 169.003906 C 97.132812 169.113281 97.375 169.242188 97.605469 169.398438 C 97.835938 169.550781 98.050781 169.726562 98.25 169.921875 C 98.445312 170.121094 98.621094 170.335938 98.773438 170.566406 C 98.929688 170.796875 99.058594 171.039062 99.167969 171.296875 C 99.273438 171.554688 99.355469 171.820312 99.40625 172.09375 C 99.460938 172.367188 99.488281 172.640625 99.488281 172.917969 L 105.136719 172.917969 C 105.136719 172.269531 105.074219 171.628906 104.945312 170.992188 C 104.820312 170.355469 104.632812 169.738281 104.382812 169.136719 C 104.132812 168.539062 103.828125 167.96875 103.46875 167.429688 C 103.109375 166.890625 102.699219 166.390625 102.238281 165.933594 C 101.78125 165.472656 101.28125 165.0625 100.742188 164.703125 C 100.203125 164.34375 99.632812 164.039062 99.035156 163.789062 C 98.433594 163.539062 97.816406 163.351562 97.179688 163.226562 C 96.542969 163.097656 95.902344 163.035156 95.253906 163.035156 Z M 95.253906 163.035156"/><path fill="#034078" d="M 47.242188 163.035156 C 46.59375 163.035156 45.949219 163.097656 45.3125 163.226562 C 44.675781 163.351562 44.058594 163.539062 43.460938 163.789062 C 42.859375 164.039062 42.292969 164.34375 41.753906 164.703125 C 41.210938 165.0625 40.714844 165.472656 40.253906 165.933594 C 39.796875 166.390625 39.386719 166.890625 39.027344 167.429688 C 38.664062 167.96875 38.359375 168.539062 38.113281 169.136719 C 37.863281 169.738281 37.675781 170.355469 37.546875 170.992188 C 37.421875 171.628906 37.355469 172.269531 37.355469 172.917969 L 43.003906 172.917969 C 43.003906 172.640625 43.03125 172.367188 43.085938 172.09375 C 43.140625 171.820312 43.222656 171.554688 43.328125 171.296875 C 43.433594 171.039062 43.5625 170.796875 43.71875 170.566406 C 43.875 170.335938 44.050781 170.121094 44.246094 169.921875 C 44.441406 169.726562 44.65625 169.550781 44.886719 169.398438 C 45.117188 169.242188 45.363281 169.113281 45.621094 169.003906 C 45.878906 168.898438 46.140625 168.816406 46.414062 168.765625 C 46.6875 168.710938 46.964844 168.683594 47.242188 168.683594 C 47.519531 168.683594 47.796875 168.710938 48.066406 168.765625 C 48.339844 168.816406 48.605469 168.898438 48.863281 169.003906 C 49.121094 169.113281 49.363281 169.242188 49.59375 169.398438 C 49.824219 169.550781 50.039062 169.726562 50.238281 169.921875 C 50.433594 170.121094 50.609375 170.335938 50.761719 170.566406 C 50.917969 170.796875 51.046875 171.039062 51.15625 171.296875 C 51.261719 171.554688 51.34375 171.820312 51.394531 172.09375 C 51.449219 172.367188 51.476562 172.640625 51.476562 172.917969 L 57.125 172.917969 C 57.125 172.269531 57.0625 171.628906 56.933594 170.992188 C 56.808594 170.355469 56.621094 169.738281 56.371094 169.136719 C 56.121094 168.539062 55.816406 167.96875 55.457031 167.429688 C 55.097656 166.890625 54.6875 166.390625 54.226562 165.933594 C 53.769531 165.472656 53.269531 165.0625 52.730469 164.703125 C 52.191406 164.34375 51.621094 164.039062 51.023438 163.789062 C 50.421875 163.539062 49.804688 163.351562 49.167969 163.226562 C 48.53125 163.097656 47.890625 163.035156 47.242188 163.035156 Z M 47.242188 163.035156"/><path fill="#034078" d="M 124.90625 45.828125 C 125.648438 45.828125 126.382812 45.757812 127.109375 45.613281 C 127.839844 45.46875 128.546875 45.253906 129.230469 44.96875 C 129.914062 44.683594 130.566406 44.335938 131.183594 43.925781 C 131.800781 43.511719 132.371094 43.042969 132.894531 42.519531 C 133.417969 41.996094 133.886719 41.425781 134.300781 40.808594 C 134.710938 40.191406 135.058594 39.539062 135.34375 38.855469 C 135.628906 38.171875 135.84375 37.464844 135.988281 36.734375 C 136.132812 36.007812 136.203125 35.273438 136.203125 34.53125 C 136.203125 33.789062 136.132812 33.054688 135.988281 32.328125 C 135.84375 31.601562 135.628906 30.894531 135.34375 30.210938 C 135.058594 29.523438 134.710938 28.871094 134.300781 28.257812 C 133.886719 27.640625 133.417969 27.070312 132.894531 26.542969 C 132.371094 26.019531 131.800781 25.550781 131.183594 25.140625 C 130.566406 24.726562 129.914062 24.378906 129.230469 24.09375 C 128.546875 23.8125 127.839844 23.597656 127.109375 23.453125 C 126.382812 23.308594 125.648438 23.234375 124.90625 23.234375 C 124.164062 23.234375 123.429688 23.308594 122.703125 23.453125 C 121.976562 23.597656 121.269531 23.8125 120.585938 24.09375 C 119.898438 24.378906 119.246094 24.726562 118.632812 25.140625 C 118.015625 25.550781 117.445312 26.019531 116.917969 26.542969 C 116.394531 27.070312 115.925781 27.640625 115.515625 28.257812 C 115.101562 28.871094 114.753906 29.523438 114.46875 30.210938 C 114.1875 30.894531 113.972656 31.601562 113.828125 32.328125 C 113.683594 33.054688 113.609375 33.789062 113.609375 34.53125 C 113.609375 35.273438 113.683594 36.007812 113.828125 36.734375 C 113.976562 37.460938 114.191406 38.167969 114.472656 38.851562 C 114.757812 39.539062 115.105469 40.1875 115.519531 40.804688 C 115.929688 41.421875 116.398438 41.992188 116.921875 42.515625 C 117.445312 43.042969 118.019531 43.507812 118.632812 43.921875 C 119.25 44.332031 119.902344 44.683594 120.585938 44.964844 C 121.269531 45.25 121.976562 45.464844 122.703125 45.609375 C 123.429688 45.753906 124.164062 45.828125 124.90625 45.828125 Z M 124.90625 28.882812 C 125.277344 28.882812 125.644531 28.921875 126.007812 28.992188 C 126.371094 29.066406 126.726562 29.171875 127.070312 29.3125 C 127.410156 29.457031 127.738281 29.628906 128.046875 29.835938 C 128.355469 30.042969 128.640625 30.277344 128.902344 30.539062 C 129.164062 30.800781 129.398438 31.085938 129.605469 31.394531 C 129.808594 31.703125 129.984375 32.027344 130.125 32.371094 C 130.269531 32.714844 130.375 33.066406 130.445312 33.429688 C 130.519531 33.792969 130.554688 34.160156 130.554688 34.53125 C 130.554688 34.902344 130.519531 35.269531 130.445312 35.632812 C 130.375 35.996094 130.269531 36.351562 130.125 36.695312 C 129.984375 37.035156 129.808594 37.363281 129.605469 37.671875 C 129.398438 37.980469 129.164062 38.265625 128.902344 38.527344 C 128.640625 38.789062 128.355469 39.023438 128.046875 39.230469 C 127.738281 39.433594 127.410156 39.609375 127.070312 39.75 C 126.726562 39.894531 126.371094 40 126.007812 40.070312 C 125.644531 40.144531 125.277344 40.179688 124.90625 40.179688 C 124.535156 40.179688 124.167969 40.144531 123.804688 40.070312 C 123.441406 40 123.089844 39.894531 122.746094 39.75 C 122.402344 39.609375 122.078125 39.433594 121.769531 39.230469 C 121.460938 39.023438 121.175781 38.789062 120.914062 38.527344 C 120.652344 38.265625 120.417969 37.980469 120.210938 37.671875 C 120.003906 37.363281 119.832031 37.035156 119.6875 36.695312 C 119.546875 36.351562 119.441406 35.996094 119.367188 35.632812 C 119.296875 35.269531 119.257812 34.902344 119.257812 34.53125 C 119.257812 34.160156 119.296875 33.792969 119.367188 33.429688 C 119.441406 33.066406 119.546875 32.714844 119.691406 32.371094 C 119.832031 32.027344 120.007812 31.703125 120.210938 31.394531 C 120.417969 31.085938 120.652344 30.800781 120.914062 30.539062 C 121.175781 30.277344 121.460938 30.042969 121.769531 29.835938 C 122.078125 29.632812 122.402344 29.457031 122.746094 29.316406 C 123.089844 29.171875 123.441406 29.066406 123.804688 28.992188 C 124.167969 28.921875 124.535156 28.882812 124.90625 28.882812 Z M 124.90625 28.882812"/><path fill="#034078" d="M 7.574219 33.25 C 7.9375 33.613281 8.371094 33.859375 8.871094 33.988281 C 9.371094 34.117188 9.867188 34.109375 10.363281 33.964844 L 19.226562 31.367188 L 28.089844 33.964844 C 28.585938 34.109375 29.082031 34.117188 29.582031 33.988281 C 30.082031 33.859375 30.515625 33.613281 30.878906 33.25 C 31.246094 32.886719 31.492188 32.453125 31.621094 31.953125 C 31.746094 31.453125 31.738281 30.953125 31.59375 30.460938 L 29 21.59375 L 31.59375 12.730469 C 31.738281 12.238281 31.75 11.738281 31.621094 11.238281 C 31.492188 10.738281 31.246094 10.304688 30.882812 9.941406 C 30.515625 9.578125 30.082031 9.328125 29.582031 9.203125 C 29.082031 9.074219 28.585938 9.082031 28.089844 9.226562 L 19.226562 11.824219 L 10.363281 9.226562 C 9.867188 9.082031 9.371094 9.074219 8.871094 9.203125 C 8.371094 9.332031 7.9375 9.578125 7.574219 9.941406 C 7.207031 10.308594 6.960938 10.738281 6.832031 11.238281 C 6.707031 11.738281 6.714844 12.238281 6.859375 12.734375 L 9.457031 21.597656 L 6.859375 30.460938 C 6.714844 30.953125 6.707031 31.453125 6.832031 31.953125 C 6.960938 32.453125 7.207031 32.886719 7.574219 33.25 Z M 15.109375 20.800781 L 13.730469 16.101562 L 18.433594 17.476562 C 18.960938 17.632812 19.492188 17.632812 20.019531 17.476562 L 24.722656 16.101562 L 23.347656 20.800781 C 23.191406 21.332031 23.191406 21.859375 23.347656 22.390625 L 24.722656 27.09375 L 20.019531 25.714844 C 19.492188 25.558594 18.960938 25.558594 18.433594 25.714844 L 13.730469 27.09375 L 15.109375 22.390625 C 15.261719 21.859375 15.261719 21.332031 15.109375 20.800781 Z M 15.109375 20.800781"/><path fill="#034078" d="M 96.664062 133.378906 L 102.3125 133.378906 L 102.3125 139.027344 L 96.664062 139.027344 Z M 96.664062 133.378906"/></svg>