<svg xmlns="http://www.w3.org/2000/svg" width="187.5" viewBox="0 0 187.5 187.5" height="187.5" version="1.0"><defs><clipPath id="a"><path d="M 6.816406 7 L 180.816406 7 L 180.816406 180.816406 L 6.816406 180.816406 Z M 6.816406 7"/></clipPath></defs><g clip-path="url(#a)"><path fill="#034078" d="M 152.554688 148.402344 C 152.785156 148.035156 153.054688 147.675781 153.273438 147.3125 C 154.496094 145.335938 155.609375 143.292969 156.605469 141.191406 C 158.105469 138.078125 159.363281 134.851562 160.359375 131.542969 C 162.398438 124.941406 163.429688 118.074219 163.417969 111.167969 C 163.417969 109.824219 163.378906 108.480469 163.300781 107.140625 C 162.761719 97.769531 160.328125 88.605469 156.152344 80.203125 L 156.144531 80.195312 L 156.144531 80.1875 C 155.109375 78.125 153.972656 76.109375 152.738281 74.160156 L 152.734375 74.15625 L 152.730469 74.148438 L 152.722656 74.136719 L 152.71875 74.132812 C 149.988281 69.769531 146.773438 65.726562 143.136719 62.078125 C 142.164062 61.105469 141.15625 60.175781 140.140625 59.265625 L 155.015625 44.808594 C 157.019531 45.398438 159.1875 44.835938 160.648438 43.34375 L 177.050781 26.9375 C 179.988281 24.007812 181.140625 19.734375 180.066406 15.726562 C 178.996094 11.71875 175.867188 8.589844 171.859375 7.519531 C 167.851562 6.445312 163.578125 7.59375 160.648438 10.53125 L 144.242188 26.9375 C 142.746094 28.398438 142.183594 30.566406 142.773438 32.574219 L 126.242188 49.597656 C 125.992188 49.464844 125.757812 49.324219 125.503906 49.195312 C 122.882812 47.851562 120.183594 46.675781 117.414062 45.679688 C 116.0625 45.195312 114.707031 44.769531 113.347656 44.371094 C 110.011719 43.386719 106.597656 42.660156 103.148438 42.203125 C 97.078125 41.382812 90.925781 41.371094 84.855469 42.164062 C 82 42.519531 79.171875 43.058594 76.382812 43.769531 L 76.378906 43.773438 L 76.367188 43.773438 L 76.289062 43.796875 C 75.335938 44.039062 74.386719 44.300781 73.46875 44.589844 C 73.316406 44.632812 73.175781 44.6875 73.027344 44.734375 L 72.914062 44.773438 C 72.203125 44.996094 71.5 45.226562 70.804688 45.464844 L 70.679688 45.511719 L 70.5625 45.554688 C 70.210938 45.679688 69.855469 45.8125 69.5 45.949219 L 69.488281 45.953125 C 69.390625 45.976562 69.292969 46.007812 69.195312 46.042969 C 68.847656 46.175781 68.523438 46.304688 68.195312 46.433594 L 67.546875 46.683594 C 66.792969 47.003906 66.054688 47.324219 65.355469 47.648438 C 65.277344 47.679688 65.195312 47.707031 65.121094 47.742188 C 65.046875 47.773438 64.976562 47.816406 64.90625 47.847656 C 64.707031 47.941406 64.515625 48.035156 64.316406 48.128906 C 63.875 48.332031 63.425781 48.535156 63 48.746094 L 62.664062 48.914062 C 62.261719 49.109375 61.851562 49.316406 61.578125 49.472656 C 61.519531 49.5 61.453125 49.542969 61.394531 49.570312 L 44.863281 32.574219 C 45.453125 30.566406 44.890625 28.398438 43.394531 26.9375 L 26.988281 10.53125 C 24.058594 7.59375 19.785156 6.445312 15.777344 7.519531 C 11.769531 8.589844 8.640625 11.71875 7.570312 15.726562 C 6.496094 19.734375 7.648438 24.007812 10.585938 26.9375 L 26.988281 43.34375 C 28.449219 44.835938 30.617188 45.398438 32.621094 44.804688 L 47.503906 59.25 C 46.890625 59.800781 46.273438 60.363281 45.652344 60.957031 L 45.648438 60.960938 L 45.632812 60.972656 L 45.628906 60.980469 C 43.082031 63.40625 40.730469 66.03125 38.597656 68.828125 C 38.558594 68.878906 38.527344 68.929688 38.488281 68.980469 L 38.476562 68.996094 C 24.960938 86.6875 20.746094 109.785156 27.152344 131.109375 C 27.578125 132.527344 28.054688 133.941406 28.558594 135.328125 C 28.753906 135.890625 28.957031 136.453125 29.148438 136.890625 C 30.308594 139.8125 31.667969 142.652344 33.21875 145.390625 C 33.550781 146.003906 33.921875 146.617188 34.292969 147.230469 C 34.3125 147.265625 34.335938 147.300781 34.355469 147.335938 L 34.378906 147.371094 C 34.601562 147.730469 34.835938 148.070312 35.058594 148.425781 L 7.667969 175.816406 C 6.925781 176.546875 6.636719 177.621094 6.902344 178.625 C 7.171875 179.628906 7.957031 180.414062 8.960938 180.683594 C 9.964844 180.949219 11.039062 180.65625 11.769531 179.917969 L 38.421875 153.261719 C 38.457031 153.308594 38.492188 153.359375 38.527344 153.40625 C 42.785156 158.996094 47.867188 163.90625 53.601562 167.964844 C 53.632812 167.988281 53.683594 167.996094 53.722656 168.019531 C 53.761719 168.050781 53.785156 168.097656 53.828125 168.128906 C 54.089844 168.320312 54.347656 168.5 54.476562 168.570312 C 64.316406 175.324219 75.726562 179.433594 87.617188 180.496094 C 89.628906 180.675781 91.714844 180.765625 93.816406 180.765625 C 112.71875 180.746094 130.804688 173.050781 143.921875 159.441406 C 145.773438 157.53125 147.507812 155.515625 149.117188 153.394531 L 149.214844 153.261719 L 175.867188 179.917969 C 177.003906 181.039062 178.828125 181.03125 179.957031 179.90625 C 181.082031 178.777344 181.089844 176.953125 179.96875 175.816406 Z M 126.21875 131.984375 C 126.261719 131.949219 126.296875 131.90625 126.335938 131.867188 L 126.34375 131.859375 C 126.386719 131.820312 126.429688 131.78125 126.46875 131.734375 C 126.996094 131.136719 127.492188 130.546875 127.996094 129.957031 C 128.957031 131.917969 130.023438 133.828125 131.191406 135.675781 C 128.878906 135.238281 126.578125 134.710938 124.28125 134.089844 C 124.941406 133.386719 125.601562 132.679688 126.21875 131.984375 Z M 139.042969 136.84375 C 136.21875 133.164062 133.878906 129.128906 132.085938 124.847656 C 136.304688 119.285156 139.984375 113.339844 143.082031 107.085938 C 143.839844 116.265625 147.796875 124.882812 154.265625 131.433594 C 153.988281 132.277344 153.71875 133.125 153.394531 133.964844 C 153.234375 134.382812 153.054688 134.796875 152.882812 135.214844 C 152.621094 135.863281 152.332031 136.503906 152.046875 137.144531 C 150.464844 137.226562 148.953125 137.265625 147.46875 137.265625 C 146.773438 137.246094 146.09375 137.265625 145.359375 137.242188 C 143.257812 137.191406 141.148438 137.046875 139.042969 136.84375 Z M 155.027344 93.089844 C 155.050781 93.171875 155.070312 93.253906 155.089844 93.332031 C 155.578125 95 155.976562 96.691406 156.324219 98.398438 C 156.390625 98.734375 156.464844 99.070312 156.53125 99.40625 C 156.847656 101.121094 157.09375 102.851562 157.269531 104.601562 C 157.304688 104.953125 157.332031 105.304688 157.359375 105.65625 C 157.515625 107.476562 157.617188 109.3125 157.617188 111.167969 C 157.617188 112.597656 157.554688 114.019531 157.460938 115.433594 C 157.433594 115.84375 157.394531 116.253906 157.359375 116.664062 C 157.269531 117.746094 157.148438 118.820312 157 119.894531 C 156.949219 120.265625 156.90625 120.636719 156.847656 121.003906 C 156.644531 122.304688 156.398438 123.601562 156.113281 124.882812 C 151.332031 118.941406 148.722656 111.546875 148.714844 103.917969 C 148.699219 98.148438 150.1875 92.476562 153.039062 87.460938 C 153.109375 87.640625 153.179688 87.820312 153.25 88 C 153.910156 89.675781 154.519531 91.371094 155.027344 93.089844 Z M 87.390625 133.996094 L 87.363281 134.023438 L 87.320312 134.039062 C 86.320312 134.648438 85.316406 135.207031 84.320312 135.742188 C 73.285156 141.5625 61.144531 144.992188 48.695312 145.800781 C 47.078125 145.910156 45.40625 145.96875 43.738281 145.96875 L 43.066406 145.96875 C 42.160156 145.96875 41.253906 145.957031 40.34375 145.921875 C 39.996094 145.382812 39.636719 144.84375 39.296875 144.300781 L 39.238281 144.203125 C 38.917969 143.667969 38.597656 143.136719 38.285156 142.566406 C 36.847656 140.023438 35.585938 137.386719 34.511719 134.671875 C 34.390625 134.378906 34.28125 134.078125 34.171875 133.78125 C 37.125 134.148438 40.09375 134.347656 43.066406 134.367188 C 43.539062 134.367188 44.046875 134.363281 44.351562 134.339844 C 46.746094 134.308594 49.140625 134.160156 51.519531 133.886719 C 56.410156 133.363281 61.234375 132.355469 65.925781 130.882812 L 66.058594 130.835938 C 68.113281 130.1875 70.101562 129.464844 71.925781 128.707031 L 71.9375 128.703125 L 71.945312 128.699219 C 76.882812 126.71875 81.589844 124.199219 85.980469 121.191406 C 86.875 120.605469 87.710938 120.019531 88.554688 119.386719 C 90.128906 118.222656 91.535156 117.070312 92.875 115.914062 C 93.429688 115.4375 93.980469 114.953125 94.523438 114.460938 C 94.621094 114.375 94.730469 114.285156 94.828125 114.195312 C 95.707031 113.40625 96.558594 112.585938 97.375 111.769531 C 97.464844 111.679688 97.539062 111.589844 97.628906 111.5 C 98.273438 110.851562 98.898438 110.179688 99.519531 109.507812 C 99.679688 109.332031 99.859375 109.15625 100.015625 108.980469 C 100.523438 108.445312 100.996094 107.910156 101.390625 107.433594 C 101.558594 107.246094 101.699219 107.042969 101.863281 106.855469 C 102.390625 106.230469 102.917969 105.601562 103.425781 104.953125 C 103.5625 104.78125 103.710938 104.621094 103.84375 104.449219 C 103.960938 104.316406 104.074219 104.167969 104.1875 104.023438 C 105.042969 102.902344 105.898438 101.742188 106.707031 100.550781 L 106.746094 100.496094 L 106.753906 100.488281 L 106.757812 100.480469 L 107.105469 99.957031 C 107.152344 99.890625 107.191406 99.824219 107.230469 99.753906 C 107.554688 99.285156 107.855469 98.8125 108.15625 98.320312 L 108.363281 98.011719 C 108.539062 97.753906 108.695312 97.484375 108.832031 97.203125 C 108.9375 97.042969 109.023438 96.875 109.121094 96.710938 C 109.347656 96.335938 109.574219 95.960938 109.789062 95.578125 L 109.808594 95.550781 C 109.914062 95.386719 110.023438 95.207031 110.148438 94.992188 C 110.425781 94.492188 110.652344 93.976562 110.921875 93.472656 C 111.445312 92.484375 111.960938 91.492188 112.441406 90.484375 C 112.535156 90.285156 112.652344 90.089844 112.746094 89.890625 C 113.191406 88.929688 113.613281 87.96875 114.039062 86.964844 L 114.070312 86.878906 C 114.835938 85.03125 115.519531 83.148438 116.140625 81.246094 C 116.339844 80.636719 116.503906 80.019531 116.6875 79.40625 C 117.074219 78.101562 117.4375 76.792969 117.757812 75.46875 C 117.933594 74.734375 118.097656 73.996094 118.253906 73.253906 C 118.527344 71.945312 118.761719 70.628906 118.964844 69.304688 C 119.070312 68.644531 119.1875 67.984375 119.273438 67.316406 C 119.527344 65.335938 119.726562 63.347656 119.828125 61.34375 C 119.890625 60.078125 119.917969 58.8125 119.917969 57.515625 C 119.917969 55.992188 119.867188 54.449219 119.769531 52.894531 C 120.804688 53.359375 121.839844 53.835938 122.859375 54.355469 L 122.863281 54.359375 C 123.710938 54.796875 124.53125 55.230469 125.363281 55.722656 C 127.484375 56.921875 129.53125 58.25 131.488281 59.695312 C 131.476562 60.042969 131.457031 60.394531 131.429688 60.765625 C 131.28125 65.449219 130.746094 70.109375 129.832031 74.703125 C 128.394531 82.011719 126.027344 89.101562 122.789062 95.808594 C 120.496094 100.558594 117.769531 105.089844 114.652344 109.347656 C 113.074219 111.566406 111.375 113.695312 109.558594 115.722656 C 107.925781 117.585938 106.230469 119.359375 104.449219 121.054688 C 102.902344 122.609375 101.277344 124.085938 99.585938 125.472656 C 95.78125 128.667969 91.699219 131.519531 87.390625 133.996094 Z M 41.300781 37.230469 L 56.230469 52.582031 C 56.066406 52.6875 55.886719 52.800781 55.714844 52.914062 C 55.589844 53 55.457031 53.078125 55.332031 53.164062 L 54.753906 53.550781 L 54.738281 53.558594 C 53.761719 54.230469 52.859375 54.882812 52 55.53125 L 37.285156 41.25 Z M 84.308594 48.09375 C 85.476562 47.917969 86.65625 47.820312 87.835938 47.710938 C 88.667969 47.636719 89.492188 47.519531 90.324219 47.476562 C 91.621094 47.40625 92.921875 47.425781 94.222656 47.433594 C 94.9375 47.4375 95.65625 47.398438 96.371094 47.425781 C 96.742188 47.441406 97.109375 47.503906 97.480469 47.523438 C 91.085938 57.058594 86.375 67.621094 83.554688 78.746094 C 82.558594 82.59375 81.800781 86.496094 81.289062 90.4375 C 81.117188 91.660156 80.972656 92.878906 80.859375 94.074219 C 80.742188 95.273438 80.65625 96.460938 80.597656 97.625 L 80.601562 97.636719 C 80.457031 99.578125 80.390625 101.628906 80.390625 103.917969 C 80.390625 104.800781 80.410156 105.617188 80.429688 106.4375 C 79.679688 105.570312 78.9375 104.695312 78.195312 103.765625 C 77.035156 102.304688 75.921875 100.808594 74.859375 99.28125 C 74.515625 98.789062 74.207031 98.273438 73.871094 97.773438 C 73.175781 96.730469 72.472656 95.691406 71.824219 94.625 C 71.453125 94.011719 71.117188 93.378906 70.761719 92.761719 C 70.195312 91.78125 69.621094 90.804688 69.097656 89.804688 C 68.746094 89.132812 68.429688 88.445312 68.09375 87.765625 C 67.683594 86.925781 67.265625 86.089844 66.882812 85.242188 C 67.074219 84.070312 67.292969 82.910156 67.515625 81.757812 C 67.632812 81.140625 67.734375 80.515625 67.863281 79.90625 C 68.261719 78 68.703125 76.125 69.191406 74.289062 C 70.160156 70.574219 71.304688 66.9375 72.585938 63.480469 C 74.394531 58.558594 76.539062 53.773438 79 49.144531 C 79.917969 48.925781 80.847656 48.746094 81.78125 48.570312 C 82.625 48.40625 83.457031 48.21875 84.308594 48.09375 Z M 113.519531 66.585938 C 113.441406 67.191406 113.335938 67.785156 113.242188 68.386719 C 113.050781 69.625 112.832031 70.859375 112.574219 72.085938 C 112.433594 72.753906 112.285156 73.421875 112.125 74.085938 C 111.828125 75.328125 111.488281 76.558594 111.125 77.78125 C 110.957031 78.332031 110.808594 78.886719 110.632812 79.433594 C 110.058594 81.195312 109.429688 82.9375 108.714844 84.65625 C 108.25 85.777344 107.738281 86.878906 107.214844 87.976562 C 106.824219 88.816406 106.378906 89.65625 105.941406 90.496094 C 105.5625 91.214844 105.191406 91.9375 104.789062 92.644531 L 104.765625 92.679688 C 104.535156 93.117188 104.28125 93.527344 104.019531 93.941406 C 103.359375 95.042969 102.6875 96.140625 101.964844 97.210938 L 101.941406 97.25 L 101.9375 97.253906 C 100.902344 98.769531 99.796875 100.226562 98.660156 101.652344 C 98.40625 101.976562 98.136719 102.304688 97.863281 102.632812 C 97.054688 103.613281 96.199219 104.550781 95.335938 105.488281 C 94.730469 106.152344 94.117188 106.808594 93.46875 107.460938 C 92.554688 108.382812 91.613281 109.277344 90.648438 110.148438 C 90.148438 110.613281 89.613281 111.070312 89.082031 111.527344 C 88.390625 112.117188 87.667969 112.675781 86.953125 113.238281 L 86.636719 112.941406 C 86.542969 111.980469 86.449219 111.019531 86.386719 110.003906 C 86.257812 108.152344 86.191406 106.164062 86.191406 103.917969 C 86.191406 101.742188 86.257812 99.800781 86.394531 97.914062 C 86.5 95.757812 86.714844 93.515625 87.039062 91.207031 C 87.519531 87.492188 88.234375 83.808594 89.175781 80.183594 C 92.085938 68.703125 97.125 57.871094 104.027344 48.246094 C 104.703125 48.355469 105.378906 48.480469 106.054688 48.609375 C 107 48.792969 107.945312 48.972656 108.898438 49.203125 C 109.855469 49.4375 110.8125 49.722656 111.769531 50.003906 C 112.4375 50.199219 113.101562 50.402344 113.769531 50.621094 C 114 52.941406 114.117188 55.253906 114.117188 57.515625 C 114.117188 58.714844 114.089844 59.886719 114.03125 61.054688 C 113.941406 62.914062 113.753906 64.753906 113.519531 66.585938 Z M 62.609375 55.507812 L 62.714844 55.449219 C 64.167969 54.636719 65.652344 53.894531 67.164062 53.199219 C 67.273438 53.148438 67.375 53.097656 67.484375 53.046875 L 67.492188 53.042969 L 67.511719 53.03125 C 67.601562 52.992188 67.6875 52.960938 67.773438 52.917969 C 68.964844 52.386719 70.183594 51.917969 71.40625 51.460938 C 69.863281 54.71875 68.40625 58.042969 67.144531 61.46875 C 65.796875 65.101562 64.597656 68.921875 63.582031 72.8125 C 63.378906 73.570312 63.1875 74.335938 62.996094 75.105469 C 61.214844 69.359375 60.023438 63.445312 59.453125 57.457031 C 60.496094 56.789062 61.53125 56.109375 62.609375 55.507812 Z M 49.691406 65.117188 C 50.953125 63.898438 52.277344 62.722656 53.65625 61.601562 L 53.75 61.523438 C 53.839844 61.453125 53.9375 61.390625 54.027344 61.316406 C 55.207031 70.113281 57.621094 78.695312 61.203125 86.808594 L 61.207031 86.820312 C 64.464844 94.171875 68.644531 101.082031 73.652344 107.375 L 73.664062 107.386719 C 74.214844 108.078125 74.773438 108.714844 75.328125 109.371094 C 75.738281 109.863281 76.148438 110.382812 76.566406 110.851562 C 76.621094 110.914062 76.675781 110.96875 76.730469 111.027344 C 77.648438 112.058594 78.570312 113.054688 79.507812 114.007812 C 80.007812 114.546875 80.550781 115.085938 81.082031 115.625 C 81.148438 116.179688 81.21875 116.726562 81.289062 117.277344 C 78.195312 119.308594 74.941406 121.078125 71.558594 122.574219 C 71.433594 122.441406 71.320312 122.335938 71.191406 122.195312 C 69.304688 120.253906 67.535156 118.277344 65.902344 116.285156 L 65.496094 115.800781 C 56.820312 105.21875 50.289062 93.046875 46.269531 79.964844 C 45.402344 77.1875 44.667969 74.285156 44.035156 71.34375 C 45.765625 69.15625 47.644531 67.085938 49.65625 65.152344 Z M 61.019531 119.484375 L 61.445312 119.996094 C 62.636719 121.449219 63.925781 122.894531 65.242188 124.320312 C 65.40625 124.496094 65.542969 124.671875 65.707031 124.847656 C 65.214844 125.015625 64.714844 125.179688 64.210938 125.335938 C 64.128906 125.363281 64.046875 125.390625 63.964844 125.425781 C 59.703125 126.746094 55.320312 127.648438 50.882812 128.121094 C 49.550781 128.277344 48.160156 128.375 46.738281 128.445312 C 45.273438 120.351562 44.53125 112.144531 44.519531 103.917969 C 44.519531 100.289062 44.667969 96.667969 44.949219 93.070312 C 49.050781 102.578125 54.460938 111.46875 61.019531 119.484375 Z M 150.351562 41.25 L 135.621094 55.570312 C 134.234375 54.519531 132.820312 53.542969 131.390625 52.621094 L 146.335938 37.234375 Z M 164.75 14.632812 C 167.042969 12.445312 170.65625 12.445312 172.949219 14.632812 C 174.039062 15.722656 174.648438 17.195312 174.648438 18.734375 C 174.648438 20.273438 174.039062 21.75 172.949219 22.835938 L 156.546875 39.242188 L 156.542969 39.238281 L 156.535156 39.226562 L 148.359375 31.050781 L 148.34375 31.039062 Z M 14.6875 22.835938 C 12.445312 20.566406 12.457031 16.914062 14.710938 14.660156 C 16.964844 12.40625 20.617188 12.394531 22.886719 14.632812 L 39.296875 31.035156 L 39.277344 31.050781 L 31.089844 39.238281 L 31.089844 39.242188 Z M 39.582031 77.628906 C 39.886719 78.777344 40.207031 79.914062 40.546875 81.03125 C 38.007812 96.753906 38.113281 112.792969 40.863281 128.484375 C 37.980469 128.414062 35.105469 128.160156 32.257812 127.730469 C 32.117188 127.214844 31.980469 126.699219 31.851562 126.179688 C 31.703125 125.5625 31.546875 124.949219 31.417969 124.332031 C 31.234375 123.476562 31.085938 122.613281 30.941406 121.753906 C 30.839844 121.164062 30.730469 120.578125 30.644531 119.984375 C 30.511719 119.019531 30.417969 118.050781 30.328125 117.082031 C 30.28125 116.585938 30.214844 116.09375 30.179688 115.59375 C 30.078125 114.125 30.019531 112.648438 30.019531 111.167969 C 29.984375 99.308594 33.300781 87.683594 39.582031 77.628906 Z M 44.652344 151.738281 C 46.148438 151.71875 47.648438 151.6875 49.082031 151.585938 C 62.351562 150.722656 75.289062 147.066406 87.050781 140.859375 C 88.140625 140.273438 89.203125 139.679688 90.265625 139.035156 L 90.269531 139.03125 L 90.292969 139.015625 L 90.339844 138.992188 L 90.34375 138.984375 C 94.921875 136.351562 99.257812 133.320312 103.300781 129.925781 C 105.117188 128.433594 106.859375 126.851562 108.519531 125.1875 C 110.355469 123.4375 112.171875 121.539062 113.90625 119.5625 C 115.847656 117.390625 117.664062 115.113281 119.355469 112.742188 C 122.671875 108.210938 125.566406 103.390625 128.007812 98.335938 C 131.464844 91.183594 133.988281 83.617188 135.527344 75.828125 C 136.257812 72.003906 136.746094 68.140625 136.988281 64.257812 C 137.675781 64.890625 138.371094 65.515625 139.035156 66.179688 C 142.113281 69.265625 144.859375 72.660156 147.230469 76.316406 C 144.257812 92.910156 137.339844 108.546875 127.058594 121.910156 L 126.472656 122.667969 C 125.222656 124.273438 123.835938 125.949219 122.339844 127.648438 C 122.304688 127.679688 122.273438 127.714844 122.238281 127.75 L 122.203125 127.785156 C 122.164062 127.824219 122.128906 127.855469 122.09375 127.894531 C 120.484375 129.71875 118.699219 131.601562 116.800781 133.472656 C 114.9375 135.273438 113.183594 136.84375 111.378906 138.320312 C 108.269531 140.996094 105 143.476562 101.585938 145.753906 C 99.121094 147.382812 96.863281 148.757812 94.664062 149.960938 L 94.664062 149.964844 L 94.660156 149.964844 C 88.714844 153.296875 82.457031 156.035156 75.972656 158.148438 C 69.5 160.28125 62.828125 161.769531 56.0625 162.589844 C 51.824219 159.460938 47.992188 155.8125 44.652344 151.738281 Z M 131.675781 162.488281 C 130.277344 163.527344 128.839844 164.496094 127.375 165.410156 C 126.886719 165.710938 126.378906 165.976562 125.886719 166.265625 C 124.890625 166.847656 123.894531 167.429688 122.871094 167.957031 C 122.273438 168.265625 121.65625 168.535156 121.046875 168.824219 C 120.097656 169.273438 119.152344 169.722656 118.179688 170.125 C 117.515625 170.402344 116.832031 170.644531 116.15625 170.894531 C 115.5 171.144531 114.835938 171.378906 114.167969 171.601562 C 108.761719 166.167969 104.035156 160.09375 100.09375 153.519531 C 101.183594 152.875 102.3125 152.171875 103.46875 151.429688 C 113.523438 155.785156 124.179688 158.59375 135.074219 159.761719 C 133.953125 160.714844 132.824219 161.648438 131.675781 162.488281 Z M 80.132812 173.484375 C 79.730469 173.394531 79.332031 173.277344 78.925781 173.179688 C 78.011719 172.960938 77.097656 172.742188 76.195312 172.484375 C 75.847656 172.382812 75.507812 172.261719 75.164062 172.15625 C 74.210938 171.863281 73.257812 171.566406 72.320312 171.230469 C 72.027344 171.125 71.746094 171.003906 71.457031 170.894531 C 70.472656 170.527344 69.492188 170.148438 68.527344 169.730469 C 68.261719 169.617188 68.007812 169.484375 67.742188 169.367188 C 66.773438 168.933594 65.804688 168.484375 64.855469 168 C 64.546875 167.84375 64.246094 167.667969 63.941406 167.503906 C 63.804688 167.433594 63.667969 167.351562 63.53125 167.277344 C 67.578125 166.527344 71.578125 165.546875 75.515625 164.34375 C 77.339844 167.535156 79.316406 170.664062 81.449219 173.730469 C 81.011719 173.644531 80.570312 173.578125 80.132812 173.484375 Z M 89.351562 174.769531 C 86.363281 170.84375 83.617188 166.742188 81.125 162.480469 C 85.894531 160.753906 90.539062 158.695312 95.027344 156.328125 C 98.703125 162.464844 103.027344 168.191406 107.921875 173.40625 C 103.292969 174.449219 98.5625 174.972656 93.816406 174.96875 C 92.304688 174.96875 90.820312 174.875 89.351562 174.769531 Z M 142.402344 152.484375 C 142.183594 152.742188 141.945312 153 141.71875 153.257812 C 141.363281 153.660156 140.996094 154.054688 140.628906 154.449219 C 134.929688 154.085938 129.269531 153.261719 123.703125 151.988281 C 118.746094 150.839844 113.871094 149.339844 109.125 147.5 C 111.226562 145.945312 113.253906 144.363281 115.113281 142.761719 C 116.570312 141.566406 118.050781 140.242188 119.570312 138.816406 C 124.117188 140.226562 128.761719 141.296875 133.464844 142.019531 C 133.511719 142.027344 133.5625 142.03125 133.617188 142.039062 C 134.816406 142.214844 136.011719 142.386719 137.167969 142.496094 C 139.820312 142.796875 142.535156 142.976562 145.179688 143.035156 C 145.941406 143.066406 146.707031 143.066406 147.46875 143.066406 C 147.988281 143.066406 148.523438 143.046875 149.050781 143.039062 C 148.804688 143.457031 148.585938 143.863281 148.324219 144.292969 C 147.519531 145.621094 146.660156 146.917969 145.75 148.191406 L 145.746094 148.195312 L 145.742188 148.203125 C 145.324219 148.789062 144.90625 149.347656 144.484375 149.902344 C 143.828125 150.769531 143.128906 151.632812 142.402344 152.484375 Z M 142.402344 152.484375"/></g></svg>